<?xml version="1.0" encoding="utf-8" standalone="no"?>
<!DOCTYPE svg PUBLIC "-//W3C//DTD SVG 1.1//EN"
  "http://www.w3.org/Graphics/SVG/1.1/DTD/svg11.dtd">
<svg xmlns:xlink="http://www.w3.org/1999/xlink" width="360pt" height="360pt" viewBox="0 0 360 360" xmlns="http://www.w3.org/2000/svg" version="1.1">
 <metadata>
  <rdf:RDF xmlns:dc="http://purl.org/dc/elements/1.1/" xmlns:cc="http://creativecommons.org/ns#" xmlns:rdf="http://www.w3.org/1999/02/22-rdf-syntax-ns#">
   <cc:Work>
    <dc:type rdf:resource="http://purl.org/dc/dcmitype/StillImage"/>
    <dc:date>2022-12-19T01:35:52.798990</dc:date>
    <dc:format>image/svg+xml</dc:format>
    <dc:creator>
     <cc:Agent>
      <dc:title>Matplotlib v3.6.2, https://matplotlib.org/</dc:title>
     </cc:Agent>
    </dc:creator>
   </cc:Work>
  </rdf:RDF>
 </metadata>
 <defs>
  <style type="text/css">*{stroke-linejoin: round; stroke-linecap: butt}</style>
 </defs>
 <g id="figure_1">
  <g id="patch_1">
   <path d="M 0 360 
L 360 360 
L 360 0 
L 0 0 
z
" style="fill: #ffffff"/>
  </g>
  <g id="axes_1">
   <g id="patch_2">
    <path d="M 47.855 318.04 
L 349.2 318.04 
L 349.2 10.8 
L 47.855 10.8 
z
" style="fill: #ffffff"/>
   </g>
   <g id="PathCollection_1">
    <path d="M 72.348559 167.42 
C 73.144168 167.42 73.907299 167.103901 74.469879 166.54132 
C 75.03246 165.97874 75.348559 165.215609 75.348559 164.42 
C 75.348559 163.624391 75.03246 162.86126 74.469879 162.29868 
C 73.907299 161.736099 73.144168 161.42 72.348559 161.42 
C 71.55295 161.42 70.78982 161.736099 70.227239 162.29868 
C 69.664658 162.86126 69.348559 163.624391 69.348559 164.42 
C 69.348559 165.215609 69.664658 165.97874 70.227239 166.54132 
C 70.78982 167.103901 71.55295 167.42 72.348559 167.42 
z
" clip-path="url(#p5662796e01)" style="fill: #1f77b4; stroke: #ffffff; stroke-width: 0.48"/>
    <path d="M 87.042648 167.42 
L 88.542648 165.92 
L 90.042648 167.42 
L 91.542648 165.92 
L 90.042648 164.42 
L 91.542648 162.92 
L 90.042648 161.42 
L 88.542648 162.92 
L 87.042648 161.42 
L 85.542648 162.92 
L 87.042648 164.42 
L 85.542648 165.92 
z
" clip-path="url(#p5662796e01)" style="fill: #ff7f0e; stroke: #ffffff; stroke-width: 0.48"/>
    <path d="M 59.43118 162.29868 
L 59.43118 166.54132 
L 63.67382 166.54132 
L 63.67382 162.29868 
z
" clip-path="url(#p5662796e01)" style="fill: #2ca02c; stroke: #ffffff; stroke-width: 0.48"/>
    <path d="M 70.999052 83.627273 
C 71.794661 83.627273 72.557791 83.311174 73.120372 82.748593 
C 73.682953 82.186012 73.999052 81.422882 73.999052 80.627273 
C 73.999052 79.831663 73.682953 79.068533 73.120372 78.505952 
C 72.557791 77.943372 71.794661 77.627273 70.999052 77.627273 
C 70.203442 77.627273 69.440312 77.943372 68.877731 78.505952 
C 68.315151 79.068533 67.999052 79.831663 67.999052 80.627273 
C 67.999052 81.422882 68.315151 82.186012 68.877731 82.748593 
C 69.440312 83.311174 70.203442 83.627273 70.999052 83.627273 
z
" clip-path="url(#p5662796e01)" style="fill: #1f77b4; stroke: #ffffff; stroke-width: 0.48"/>
    <path d="M 87.042648 83.627273 
L 88.542648 82.127273 
L 90.042648 83.627273 
L 91.542648 82.127273 
L 90.042648 80.627273 
L 91.542648 79.127273 
L 90.042648 77.627273 
L 88.542648 79.127273 
L 87.042648 77.627273 
L 85.542648 79.127273 
L 87.042648 80.627273 
L 85.542648 82.127273 
z
" clip-path="url(#p5662796e01)" style="fill: #ff7f0e; stroke: #ffffff; stroke-width: 0.48"/>
    <path d="M 59.43118 78.505952 
L 59.43118 82.748593 
L 63.67382 82.748593 
L 63.67382 78.505952 
z
" clip-path="url(#p5662796e01)" style="fill: #2ca02c; stroke: #ffffff; stroke-width: 0.48"/>
    <path d="M 66.95053 307.074545 
C 67.746139 307.074545 68.509269 306.758447 69.07185 306.195866 
C 69.634431 305.633285 69.95053 304.870155 69.95053 304.074545 
C 69.95053 303.278936 69.634431 302.515806 69.07185 301.953225 
C 68.509269 301.390644 67.746139 301.074545 66.95053 301.074545 
C 66.15492 301.074545 65.39179 301.390644 64.829209 301.953225 
C 64.266628 302.515806 63.95053 303.278936 63.95053 304.074545 
C 63.95053 304.870155 64.266628 305.633285 64.829209 306.195866 
C 65.39179 306.758447 66.15492 307.074545 66.95053 307.074545 
z
" clip-path="url(#p5662796e01)" style="fill: #1f77b4; stroke: #ffffff; stroke-width: 0.48"/>
    <path d="M 105.935751 307.074545 
L 107.435751 305.574545 
L 108.935751 307.074545 
L 110.435751 305.574545 
L 108.935751 304.074545 
L 110.435751 302.574545 
L 108.935751 301.074545 
L 107.435751 302.574545 
L 105.935751 301.074545 
L 104.435751 302.574545 
L 105.935751 304.074545 
L 104.435751 305.574545 
z
" clip-path="url(#p5662796e01)" style="fill: #ff7f0e; stroke: #ffffff; stroke-width: 0.48"/>
    <path d="M 59.43118 301.953225 
L 59.43118 306.195866 
L 63.67382 306.195866 
L 63.67382 301.953225 
z
" clip-path="url(#p5662796e01)" style="fill: #2ca02c; stroke: #ffffff; stroke-width: 0.48"/>
    <path d="M 64.251515 55.696364 
C 65.047124 55.696364 65.810254 55.380265 66.372835 54.817684 
C 66.935416 54.255103 67.251515 53.491973 67.251515 52.696364 
C 67.251515 51.900754 66.935416 51.137624 66.372835 50.575043 
C 65.810254 50.012463 65.047124 49.696364 64.251515 49.696364 
C 63.455905 49.696364 62.692775 50.012463 62.130194 50.575043 
C 61.567614 51.137624 61.251515 51.900754 61.251515 52.696364 
C 61.251515 53.491973 61.567614 54.255103 62.130194 54.817684 
C 62.692775 55.380265 63.455905 55.696364 64.251515 55.696364 
z
" clip-path="url(#p5662796e01)" style="fill: #1f77b4; stroke: #ffffff; stroke-width: 0.48"/>
    <path d="M 101.887229 55.696364 
L 103.387229 54.196364 
L 104.887229 55.696364 
L 106.387229 54.196364 
L 104.887229 52.696364 
L 106.387229 51.196364 
L 104.887229 49.696364 
L 103.387229 51.196364 
L 101.887229 49.696364 
L 100.387229 51.196364 
L 101.887229 52.696364 
L 100.387229 54.196364 
z
" clip-path="url(#p5662796e01)" style="fill: #ff7f0e; stroke: #ffffff; stroke-width: 0.48"/>
    <path d="M 333.38118 50.575043 
L 333.38118 54.817684 
L 337.62382 54.817684 
L 337.62382 50.575043 
z
" clip-path="url(#p5662796e01)" style="fill: #2ca02c; stroke: #ffffff; stroke-width: 0.48"/>
    <path d="M 89.892155 27.765455 
C 90.687764 27.765455 91.450895 27.449356 92.013476 26.886775 
C 92.576056 26.324194 92.892155 25.561064 92.892155 24.765455 
C 92.892155 23.969845 92.576056 23.206715 92.013476 22.644134 
C 91.450895 22.081553 90.687764 21.765455 89.892155 21.765455 
C 89.096546 21.765455 88.333416 22.081553 87.770835 22.644134 
C 87.208254 23.206715 86.892155 23.969845 86.892155 24.765455 
C 86.892155 25.561064 87.208254 26.324194 87.770835 26.886775 
C 88.333416 27.449356 89.096546 27.765455 89.892155 27.765455 
z
" clip-path="url(#p5662796e01)" style="fill: #1f77b4; stroke: #ffffff; stroke-width: 0.48"/>
    <path d="M 87.042648 27.765455 
L 88.542648 26.265455 
L 90.042648 27.765455 
L 91.542648 26.265455 
L 90.042648 24.765455 
L 91.542648 23.265455 
L 90.042648 21.765455 
L 88.542648 23.265455 
L 87.042648 21.765455 
L 85.542648 23.265455 
L 87.042648 24.765455 
L 85.542648 26.265455 
z
" clip-path="url(#p5662796e01)" style="fill: #ff7f0e; stroke: #ffffff; stroke-width: 0.48"/>
    <path d="M 59.43118 22.644134 
L 59.43118 26.886775 
L 63.67382 26.886775 
L 63.67382 22.644134 
z
" clip-path="url(#p5662796e01)" style="fill: #2ca02c; stroke: #ffffff; stroke-width: 0.48"/>
    <path d="M 79.096096 167.42 
C 79.891705 167.42 80.654836 167.103901 81.217416 166.54132 
C 81.779997 165.97874 82.096096 165.215609 82.096096 164.42 
C 82.096096 163.624391 81.779997 162.86126 81.217416 162.29868 
C 80.654836 161.736099 79.891705 161.42 79.096096 161.42 
C 78.300487 161.42 77.537356 161.736099 76.974776 162.29868 
C 76.412195 162.86126 76.096096 163.624391 76.096096 164.42 
C 76.096096 165.215609 76.412195 165.97874 76.974776 166.54132 
C 77.537356 167.103901 78.300487 167.42 79.096096 167.42 
z
" clip-path="url(#p5662796e01)" style="fill: #1f77b4; stroke: #ffffff; stroke-width: 0.48"/>
    <path d="M 87.042648 167.42 
L 88.542648 165.92 
L 90.042648 167.42 
L 91.542648 165.92 
L 90.042648 164.42 
L 91.542648 162.92 
L 90.042648 161.42 
L 88.542648 162.92 
L 87.042648 161.42 
L 85.542648 162.92 
L 87.042648 164.42 
L 85.542648 165.92 
z
" clip-path="url(#p5662796e01)" style="fill: #ff7f0e; stroke: #ffffff; stroke-width: 0.48"/>
    <path d="M 59.43118 162.29868 
L 59.43118 166.54132 
L 63.67382 166.54132 
L 63.67382 162.29868 
z
" clip-path="url(#p5662796e01)" style="fill: #2ca02c; stroke: #ffffff; stroke-width: 0.48"/>
    <path d="M 95.290185 83.627273 
C 96.085794 83.627273 96.848924 83.311174 97.411505 82.748593 
C 97.974086 82.186012 98.290185 81.422882 98.290185 80.627273 
C 98.290185 79.831663 97.974086 79.068533 97.411505 78.505952 
C 96.848924 77.943372 96.085794 77.627273 95.290185 77.627273 
C 94.494575 77.627273 93.731445 77.943372 93.168864 78.505952 
C 92.606284 79.068533 92.290185 79.831663 92.290185 80.627273 
C 92.290185 81.422882 92.606284 82.186012 93.168864 82.748593 
C 93.731445 83.311174 94.494575 83.627273 95.290185 83.627273 
z
" clip-path="url(#p5662796e01)" style="fill: #1f77b4; stroke: #ffffff; stroke-width: 0.48"/>
    <path d="M 87.042648 83.627273 
L 88.542648 82.127273 
L 90.042648 83.627273 
L 91.542648 82.127273 
L 90.042648 80.627273 
L 91.542648 79.127273 
L 90.042648 77.627273 
L 88.542648 79.127273 
L 87.042648 77.627273 
L 85.542648 79.127273 
L 87.042648 80.627273 
L 85.542648 82.127273 
z
" clip-path="url(#p5662796e01)" style="fill: #ff7f0e; stroke: #ffffff; stroke-width: 0.48"/>
    <path d="M 59.43118 78.505952 
L 59.43118 82.748593 
L 63.67382 82.748593 
L 63.67382 78.505952 
z
" clip-path="url(#p5662796e01)" style="fill: #2ca02c; stroke: #ffffff; stroke-width: 0.48"/>
    <path d="M 77.746589 213.971515 
C 78.542198 213.971515 79.305328 213.655416 79.867909 213.092835 
C 80.43049 212.530255 80.746589 211.767124 80.746589 210.971515 
C 80.746589 210.175906 80.43049 209.412776 79.867909 208.850195 
C 79.305328 208.287614 78.542198 207.971515 77.746589 207.971515 
C 76.950979 207.971515 76.187849 208.287614 75.625268 208.850195 
C 75.062688 209.412776 74.746589 210.175906 74.746589 210.971515 
C 74.746589 211.767124 75.062688 212.530255 75.625268 213.092835 
C 76.187849 213.655416 76.950979 213.971515 77.746589 213.971515 
z
" clip-path="url(#p5662796e01)" style="fill: #1f77b4; stroke: #ffffff; stroke-width: 0.48"/>
    <path d="M 87.042648 213.971515 
L 88.542648 212.471515 
L 90.042648 213.971515 
L 91.542648 212.471515 
L 90.042648 210.971515 
L 91.542648 209.471515 
L 90.042648 207.971515 
L 88.542648 209.471515 
L 87.042648 207.971515 
L 85.542648 209.471515 
L 87.042648 210.971515 
L 85.542648 212.471515 
z
" clip-path="url(#p5662796e01)" style="fill: #ff7f0e; stroke: #ffffff; stroke-width: 0.48"/>
    <path d="M 59.43118 208.850195 
L 59.43118 213.092835 
L 63.67382 213.092835 
L 63.67382 208.850195 
z
" clip-path="url(#p5662796e01)" style="fill: #2ca02c; stroke: #ffffff; stroke-width: 0.48"/>
   </g>
   <g id="PathCollection_2"/>
   <g id="PathCollection_3"/>
   <g id="PathCollection_4"/>
   <g id="matplotlib.axis_1">
    <g id="xtick_1">
     <g id="line2d_1">
      <defs>
       <path id="m230888d2bb" d="M 0 0 
L 0 3.5 
" style="stroke: #000000; stroke-width: 0.8"/>
      </defs>
      <g>
       <use xlink:href="#m230888d2bb" x="61.5525" y="318.04" style="stroke: #000000; stroke-width: 0.8"/>
      </g>
     </g>
     <g id="text_1">
      <!-- 0 -->
      <g transform="translate(58.37125 332.638438) scale(0.1 -0.1)">
       <defs>
        <path id="DejaVuSans-30" d="M 2034 4250 
Q 1547 4250 1301 3770 
Q 1056 3291 1056 2328 
Q 1056 1369 1301 889 
Q 1547 409 2034 409 
Q 2525 409 2770 889 
Q 3016 1369 3016 2328 
Q 3016 3291 2770 3770 
Q 2525 4250 2034 4250 
z
M 2034 4750 
Q 2819 4750 3233 4129 
Q 3647 3509 3647 2328 
Q 3647 1150 3233 529 
Q 2819 -91 2034 -91 
Q 1250 -91 836 529 
Q 422 1150 422 2328 
Q 422 3509 836 4129 
Q 1250 4750 2034 4750 
z
" transform="scale(0.015625)"/>
       </defs>
       <use xlink:href="#DejaVuSans-30"/>
      </g>
     </g>
    </g>
    <g id="xtick_2">
     <g id="line2d_2">
      <g>
       <use xlink:href="#m230888d2bb" x="95.290185" y="318.04" style="stroke: #000000; stroke-width: 0.8"/>
      </g>
     </g>
     <g id="text_2">
      <!-- 25 -->
      <g transform="translate(88.927685 332.638438) scale(0.1 -0.1)">
       <defs>
        <path id="DejaVuSans-32" d="M 1228 531 
L 3431 531 
L 3431 0 
L 469 0 
L 469 531 
Q 828 903 1448 1529 
Q 2069 2156 2228 2338 
Q 2531 2678 2651 2914 
Q 2772 3150 2772 3378 
Q 2772 3750 2511 3984 
Q 2250 4219 1831 4219 
Q 1534 4219 1204 4116 
Q 875 4013 500 3803 
L 500 4441 
Q 881 4594 1212 4672 
Q 1544 4750 1819 4750 
Q 2544 4750 2975 4387 
Q 3406 4025 3406 3419 
Q 3406 3131 3298 2873 
Q 3191 2616 2906 2266 
Q 2828 2175 2409 1742 
Q 1991 1309 1228 531 
z
" transform="scale(0.015625)"/>
        <path id="DejaVuSans-35" d="M 691 4666 
L 3169 4666 
L 3169 4134 
L 1269 4134 
L 1269 2991 
Q 1406 3038 1543 3061 
Q 1681 3084 1819 3084 
Q 2600 3084 3056 2656 
Q 3513 2228 3513 1497 
Q 3513 744 3044 326 
Q 2575 -91 1722 -91 
Q 1428 -91 1123 -41 
Q 819 9 494 109 
L 494 744 
Q 775 591 1075 516 
Q 1375 441 1709 441 
Q 2250 441 2565 725 
Q 2881 1009 2881 1497 
Q 2881 1984 2565 2268 
Q 2250 2553 1709 2553 
Q 1456 2553 1204 2497 
Q 953 2441 691 2322 
L 691 4666 
z
" transform="scale(0.015625)"/>
       </defs>
       <use xlink:href="#DejaVuSans-32"/>
       <use xlink:href="#DejaVuSans-35" x="63.623047"/>
      </g>
     </g>
    </g>
    <g id="xtick_3">
     <g id="line2d_3">
      <g>
       <use xlink:href="#m230888d2bb" x="129.027869" y="318.04" style="stroke: #000000; stroke-width: 0.8"/>
      </g>
     </g>
     <g id="text_3">
      <!-- 50 -->
      <g transform="translate(122.665369 332.638438) scale(0.1 -0.1)">
       <use xlink:href="#DejaVuSans-35"/>
       <use xlink:href="#DejaVuSans-30" x="63.623047"/>
      </g>
     </g>
    </g>
    <g id="xtick_4">
     <g id="line2d_4">
      <g>
       <use xlink:href="#m230888d2bb" x="162.765554" y="318.04" style="stroke: #000000; stroke-width: 0.8"/>
      </g>
     </g>
     <g id="text_4">
      <!-- 75 -->
      <g transform="translate(156.403054 332.638438) scale(0.1 -0.1)">
       <defs>
        <path id="DejaVuSans-37" d="M 525 4666 
L 3525 4666 
L 3525 4397 
L 1831 0 
L 1172 0 
L 2766 4134 
L 525 4134 
L 525 4666 
z
" transform="scale(0.015625)"/>
       </defs>
       <use xlink:href="#DejaVuSans-37"/>
       <use xlink:href="#DejaVuSans-35" x="63.623047"/>
      </g>
     </g>
    </g>
    <g id="xtick_5">
     <g id="line2d_5">
      <g>
       <use xlink:href="#m230888d2bb" x="196.503239" y="318.04" style="stroke: #000000; stroke-width: 0.8"/>
      </g>
     </g>
     <g id="text_5">
      <!-- 100 -->
      <g transform="translate(186.959489 332.638438) scale(0.1 -0.1)">
       <defs>
        <path id="DejaVuSans-31" d="M 794 531 
L 1825 531 
L 1825 4091 
L 703 3866 
L 703 4441 
L 1819 4666 
L 2450 4666 
L 2450 531 
L 3481 531 
L 3481 0 
L 794 0 
L 794 531 
z
" transform="scale(0.015625)"/>
       </defs>
       <use xlink:href="#DejaVuSans-31"/>
       <use xlink:href="#DejaVuSans-30" x="63.623047"/>
       <use xlink:href="#DejaVuSans-30" x="127.246094"/>
      </g>
     </g>
    </g>
    <g id="xtick_6">
     <g id="line2d_6">
      <g>
       <use xlink:href="#m230888d2bb" x="230.240924" y="318.04" style="stroke: #000000; stroke-width: 0.8"/>
      </g>
     </g>
     <g id="text_6">
      <!-- 125 -->
      <g transform="translate(220.697174 332.638438) scale(0.1 -0.1)">
       <use xlink:href="#DejaVuSans-31"/>
       <use xlink:href="#DejaVuSans-32" x="63.623047"/>
       <use xlink:href="#DejaVuSans-35" x="127.246094"/>
      </g>
     </g>
    </g>
    <g id="xtick_7">
     <g id="line2d_7">
      <g>
       <use xlink:href="#m230888d2bb" x="263.978608" y="318.04" style="stroke: #000000; stroke-width: 0.8"/>
      </g>
     </g>
     <g id="text_7">
      <!-- 150 -->
      <g transform="translate(254.434858 332.638438) scale(0.1 -0.1)">
       <use xlink:href="#DejaVuSans-31"/>
       <use xlink:href="#DejaVuSans-35" x="63.623047"/>
       <use xlink:href="#DejaVuSans-30" x="127.246094"/>
      </g>
     </g>
    </g>
    <g id="xtick_8">
     <g id="line2d_8">
      <g>
       <use xlink:href="#m230888d2bb" x="297.716293" y="318.04" style="stroke: #000000; stroke-width: 0.8"/>
      </g>
     </g>
     <g id="text_8">
      <!-- 175 -->
      <g transform="translate(288.172543 332.638438) scale(0.1 -0.1)">
       <use xlink:href="#DejaVuSans-31"/>
       <use xlink:href="#DejaVuSans-37" x="63.623047"/>
       <use xlink:href="#DejaVuSans-35" x="127.246094"/>
      </g>
     </g>
    </g>
    <g id="xtick_9">
     <g id="line2d_9">
      <g>
       <use xlink:href="#m230888d2bb" x="331.453978" y="318.04" style="stroke: #000000; stroke-width: 0.8"/>
      </g>
     </g>
     <g id="text_9">
      <!-- 200 -->
      <g transform="translate(321.910228 332.638438) scale(0.1 -0.1)">
       <use xlink:href="#DejaVuSans-32"/>
       <use xlink:href="#DejaVuSans-30" x="63.623047"/>
       <use xlink:href="#DejaVuSans-30" x="127.246094"/>
      </g>
     </g>
    </g>
    <g id="text_10">
     <!-- Length -->
     <g transform="translate(181.280625 346.316563) scale(0.1 -0.1)">
      <defs>
       <path id="DejaVuSans-4c" d="M 628 4666 
L 1259 4666 
L 1259 531 
L 3531 531 
L 3531 0 
L 628 0 
L 628 4666 
z
" transform="scale(0.015625)"/>
       <path id="DejaVuSans-65" d="M 3597 1894 
L 3597 1613 
L 953 1613 
Q 991 1019 1311 708 
Q 1631 397 2203 397 
Q 2534 397 2845 478 
Q 3156 559 3463 722 
L 3463 178 
Q 3153 47 2828 -22 
Q 2503 -91 2169 -91 
Q 1331 -91 842 396 
Q 353 884 353 1716 
Q 353 2575 817 3079 
Q 1281 3584 2069 3584 
Q 2775 3584 3186 3129 
Q 3597 2675 3597 1894 
z
M 3022 2063 
Q 3016 2534 2758 2815 
Q 2500 3097 2075 3097 
Q 1594 3097 1305 2825 
Q 1016 2553 972 2059 
L 3022 2063 
z
" transform="scale(0.015625)"/>
       <path id="DejaVuSans-6e" d="M 3513 2113 
L 3513 0 
L 2938 0 
L 2938 2094 
Q 2938 2591 2744 2837 
Q 2550 3084 2163 3084 
Q 1697 3084 1428 2787 
Q 1159 2491 1159 1978 
L 1159 0 
L 581 0 
L 581 3500 
L 1159 3500 
L 1159 2956 
Q 1366 3272 1645 3428 
Q 1925 3584 2291 3584 
Q 2894 3584 3203 3211 
Q 3513 2838 3513 2113 
z
" transform="scale(0.015625)"/>
       <path id="DejaVuSans-67" d="M 2906 1791 
Q 2906 2416 2648 2759 
Q 2391 3103 1925 3103 
Q 1463 3103 1205 2759 
Q 947 2416 947 1791 
Q 947 1169 1205 825 
Q 1463 481 1925 481 
Q 2391 481 2648 825 
Q 2906 1169 2906 1791 
z
M 3481 434 
Q 3481 -459 3084 -895 
Q 2688 -1331 1869 -1331 
Q 1566 -1331 1297 -1286 
Q 1028 -1241 775 -1147 
L 775 -588 
Q 1028 -725 1275 -790 
Q 1522 -856 1778 -856 
Q 2344 -856 2625 -561 
Q 2906 -266 2906 331 
L 2906 616 
Q 2728 306 2450 153 
Q 2172 0 1784 0 
Q 1141 0 747 490 
Q 353 981 353 1791 
Q 353 2603 747 3093 
Q 1141 3584 1784 3584 
Q 2172 3584 2450 3431 
Q 2728 3278 2906 2969 
L 2906 3500 
L 3481 3500 
L 3481 434 
z
" transform="scale(0.015625)"/>
       <path id="DejaVuSans-74" d="M 1172 4494 
L 1172 3500 
L 2356 3500 
L 2356 3053 
L 1172 3053 
L 1172 1153 
Q 1172 725 1289 603 
Q 1406 481 1766 481 
L 2356 481 
L 2356 0 
L 1766 0 
Q 1100 0 847 248 
Q 594 497 594 1153 
L 594 3053 
L 172 3053 
L 172 3500 
L 594 3500 
L 594 4494 
L 1172 4494 
z
" transform="scale(0.015625)"/>
       <path id="DejaVuSans-68" d="M 3513 2113 
L 3513 0 
L 2938 0 
L 2938 2094 
Q 2938 2591 2744 2837 
Q 2550 3084 2163 3084 
Q 1697 3084 1428 2787 
Q 1159 2491 1159 1978 
L 1159 0 
L 581 0 
L 581 4863 
L 1159 4863 
L 1159 2956 
Q 1366 3272 1645 3428 
Q 1925 3584 2291 3584 
Q 2894 3584 3203 3211 
Q 3513 2838 3513 2113 
z
" transform="scale(0.015625)"/>
      </defs>
      <use xlink:href="#DejaVuSans-4c"/>
      <use xlink:href="#DejaVuSans-65" x="53.962891"/>
      <use xlink:href="#DejaVuSans-6e" x="115.486328"/>
      <use xlink:href="#DejaVuSans-67" x="178.865234"/>
      <use xlink:href="#DejaVuSans-74" x="242.341797"/>
      <use xlink:href="#DejaVuSans-68" x="281.550781"/>
     </g>
    </g>
   </g>
   <g id="matplotlib.axis_2">
    <g id="ytick_1">
     <g id="line2d_10">
      <defs>
       <path id="md9ee923bb6" d="M 0 0 
L -3.5 0 
" style="stroke: #000000; stroke-width: 0.8"/>
      </defs>
      <g>
       <use xlink:href="#md9ee923bb6" x="47.855" y="304.074545" style="stroke: #000000; stroke-width: 0.8"/>
      </g>
     </g>
     <g id="text_11">
      <!-- 1.5 -->
      <g transform="translate(24.951875 307.873764) scale(0.1 -0.1)">
       <defs>
        <path id="DejaVuSans-2e" d="M 684 794 
L 1344 794 
L 1344 0 
L 684 0 
L 684 794 
z
" transform="scale(0.015625)"/>
       </defs>
       <use xlink:href="#DejaVuSans-31"/>
       <use xlink:href="#DejaVuSans-2e" x="63.623047"/>
       <use xlink:href="#DejaVuSans-35" x="95.410156"/>
      </g>
     </g>
    </g>
    <g id="ytick_2">
     <g id="line2d_11">
      <g>
       <use xlink:href="#md9ee923bb6" x="47.855" y="248.212727" style="stroke: #000000; stroke-width: 0.8"/>
      </g>
     </g>
     <g id="text_12">
      <!-- 2.0 -->
      <g transform="translate(24.951875 252.011946) scale(0.1 -0.1)">
       <use xlink:href="#DejaVuSans-32"/>
       <use xlink:href="#DejaVuSans-2e" x="63.623047"/>
       <use xlink:href="#DejaVuSans-30" x="95.410156"/>
      </g>
     </g>
    </g>
    <g id="ytick_3">
     <g id="line2d_12">
      <g>
       <use xlink:href="#md9ee923bb6" x="47.855" y="192.350909" style="stroke: #000000; stroke-width: 0.8"/>
      </g>
     </g>
     <g id="text_13">
      <!-- 2.5 -->
      <g transform="translate(24.951875 196.150128) scale(0.1 -0.1)">
       <use xlink:href="#DejaVuSans-32"/>
       <use xlink:href="#DejaVuSans-2e" x="63.623047"/>
       <use xlink:href="#DejaVuSans-35" x="95.410156"/>
      </g>
     </g>
    </g>
    <g id="ytick_4">
     <g id="line2d_13">
      <g>
       <use xlink:href="#md9ee923bb6" x="47.855" y="136.489091" style="stroke: #000000; stroke-width: 0.8"/>
      </g>
     </g>
     <g id="text_14">
      <!-- 3.0 -->
      <g transform="translate(24.951875 140.28831) scale(0.1 -0.1)">
       <defs>
        <path id="DejaVuSans-33" d="M 2597 2516 
Q 3050 2419 3304 2112 
Q 3559 1806 3559 1356 
Q 3559 666 3084 287 
Q 2609 -91 1734 -91 
Q 1441 -91 1130 -33 
Q 819 25 488 141 
L 488 750 
Q 750 597 1062 519 
Q 1375 441 1716 441 
Q 2309 441 2620 675 
Q 2931 909 2931 1356 
Q 2931 1769 2642 2001 
Q 2353 2234 1838 2234 
L 1294 2234 
L 1294 2753 
L 1863 2753 
Q 2328 2753 2575 2939 
Q 2822 3125 2822 3475 
Q 2822 3834 2567 4026 
Q 2313 4219 1838 4219 
Q 1578 4219 1281 4162 
Q 984 4106 628 3988 
L 628 4550 
Q 988 4650 1302 4700 
Q 1616 4750 1894 4750 
Q 2613 4750 3031 4423 
Q 3450 4097 3450 3541 
Q 3450 3153 3228 2886 
Q 3006 2619 2597 2516 
z
" transform="scale(0.015625)"/>
       </defs>
       <use xlink:href="#DejaVuSans-33"/>
       <use xlink:href="#DejaVuSans-2e" x="63.623047"/>
       <use xlink:href="#DejaVuSans-30" x="95.410156"/>
      </g>
     </g>
    </g>
    <g id="ytick_5">
     <g id="line2d_14">
      <g>
       <use xlink:href="#md9ee923bb6" x="47.855" y="80.627273" style="stroke: #000000; stroke-width: 0.8"/>
      </g>
     </g>
     <g id="text_15">
      <!-- 3.5 -->
      <g transform="translate(24.951875 84.426491) scale(0.1 -0.1)">
       <use xlink:href="#DejaVuSans-33"/>
       <use xlink:href="#DejaVuSans-2e" x="63.623047"/>
       <use xlink:href="#DejaVuSans-35" x="95.410156"/>
      </g>
     </g>
    </g>
    <g id="ytick_6">
     <g id="line2d_15">
      <g>
       <use xlink:href="#md9ee923bb6" x="47.855" y="24.765455" style="stroke: #000000; stroke-width: 0.8"/>
      </g>
     </g>
     <g id="text_16">
      <!-- 4.0 -->
      <g transform="translate(24.951875 28.564673) scale(0.1 -0.1)">
       <defs>
        <path id="DejaVuSans-34" d="M 2419 4116 
L 825 1625 
L 2419 1625 
L 2419 4116 
z
M 2253 4666 
L 3047 4666 
L 3047 1625 
L 3713 1625 
L 3713 1100 
L 3047 1100 
L 3047 0 
L 2419 0 
L 2419 1100 
L 313 1100 
L 313 1709 
L 2253 4666 
z
" transform="scale(0.015625)"/>
       </defs>
       <use xlink:href="#DejaVuSans-34"/>
       <use xlink:href="#DejaVuSans-2e" x="63.623047"/>
       <use xlink:href="#DejaVuSans-30" x="95.410156"/>
      </g>
     </g>
    </g>
    <g id="text_17">
     <!-- Rating -->
     <g transform="translate(18.872187 180.537969) rotate(-90) scale(0.1 -0.1)">
      <defs>
       <path id="DejaVuSans-52" d="M 2841 2188 
Q 3044 2119 3236 1894 
Q 3428 1669 3622 1275 
L 4263 0 
L 3584 0 
L 2988 1197 
Q 2756 1666 2539 1819 
Q 2322 1972 1947 1972 
L 1259 1972 
L 1259 0 
L 628 0 
L 628 4666 
L 2053 4666 
Q 2853 4666 3247 4331 
Q 3641 3997 3641 3322 
Q 3641 2881 3436 2590 
Q 3231 2300 2841 2188 
z
M 1259 4147 
L 1259 2491 
L 2053 2491 
Q 2509 2491 2742 2702 
Q 2975 2913 2975 3322 
Q 2975 3731 2742 3939 
Q 2509 4147 2053 4147 
L 1259 4147 
z
" transform="scale(0.015625)"/>
       <path id="DejaVuSans-61" d="M 2194 1759 
Q 1497 1759 1228 1600 
Q 959 1441 959 1056 
Q 959 750 1161 570 
Q 1363 391 1709 391 
Q 2188 391 2477 730 
Q 2766 1069 2766 1631 
L 2766 1759 
L 2194 1759 
z
M 3341 1997 
L 3341 0 
L 2766 0 
L 2766 531 
Q 2569 213 2275 61 
Q 1981 -91 1556 -91 
Q 1019 -91 701 211 
Q 384 513 384 1019 
Q 384 1609 779 1909 
Q 1175 2209 1959 2209 
L 2766 2209 
L 2766 2266 
Q 2766 2663 2505 2880 
Q 2244 3097 1772 3097 
Q 1472 3097 1187 3025 
Q 903 2953 641 2809 
L 641 3341 
Q 956 3463 1253 3523 
Q 1550 3584 1831 3584 
Q 2591 3584 2966 3190 
Q 3341 2797 3341 1997 
z
" transform="scale(0.015625)"/>
       <path id="DejaVuSans-69" d="M 603 3500 
L 1178 3500 
L 1178 0 
L 603 0 
L 603 3500 
z
M 603 4863 
L 1178 4863 
L 1178 4134 
L 603 4134 
L 603 4863 
z
" transform="scale(0.015625)"/>
      </defs>
      <use xlink:href="#DejaVuSans-52"/>
      <use xlink:href="#DejaVuSans-61" x="67.232422"/>
      <use xlink:href="#DejaVuSans-74" x="128.511719"/>
      <use xlink:href="#DejaVuSans-69" x="167.720703"/>
      <use xlink:href="#DejaVuSans-6e" x="195.503906"/>
      <use xlink:href="#DejaVuSans-67" x="258.882812"/>
     </g>
    </g>
   </g>
   <g id="patch_3">
    <path d="M 47.855 318.04 
L 47.855 10.8 
" style="fill: none; stroke: #000000; stroke-width: 0.8; stroke-linejoin: miter; stroke-linecap: square"/>
   </g>
   <g id="patch_4">
    <path d="M 349.2 318.04 
L 349.2 10.8 
" style="fill: none; stroke: #000000; stroke-width: 0.8; stroke-linejoin: miter; stroke-linecap: square"/>
   </g>
   <g id="patch_5">
    <path d="M 47.855 318.04 
L 349.2 318.04 
" style="fill: none; stroke: #000000; stroke-width: 0.8; stroke-linejoin: miter; stroke-linecap: square"/>
   </g>
   <g id="patch_6">
    <path d="M 47.855 10.8 
L 349.2 10.8 
" style="fill: none; stroke: #000000; stroke-width: 0.8; stroke-linejoin: miter; stroke-linecap: square"/>
   </g>
   <g id="legend_1">
    <g id="patch_7">
     <path d="M 268.935937 313.04 
L 342.2 313.04 
Q 344.2 313.04 344.2 311.04 
L 344.2 253.3275 
Q 344.2 251.3275 342.2 251.3275 
L 268.935937 251.3275 
Q 266.935937 251.3275 266.935937 253.3275 
L 266.935937 311.04 
Q 266.935937 313.04 268.935937 313.04 
z
" style="fill: #ffffff; opacity: 0.8; stroke: #cccccc; stroke-linejoin: miter"/>
    </g>
    <g id="text_18">
     <!-- Level -->
     <g transform="translate(292.367969 262.925938) scale(0.1 -0.1)">
      <defs>
       <path id="DejaVuSans-76" d="M 191 3500 
L 800 3500 
L 1894 563 
L 2988 3500 
L 3597 3500 
L 2284 0 
L 1503 0 
L 191 3500 
z
" transform="scale(0.015625)"/>
       <path id="DejaVuSans-6c" d="M 603 4863 
L 1178 4863 
L 1178 0 
L 603 0 
L 603 4863 
z
" transform="scale(0.015625)"/>
      </defs>
      <use xlink:href="#DejaVuSans-4c"/>
      <use xlink:href="#DejaVuSans-65" x="53.962891"/>
      <use xlink:href="#DejaVuSans-76" x="115.486328"/>
      <use xlink:href="#DejaVuSans-65" x="174.666016"/>
      <use xlink:href="#DejaVuSans-6c" x="236.189453"/>
     </g>
    </g>
    <g id="PathCollection_5">
     <defs>
      <path id="m3475619dcd" d="M 0 3 
C 0.795609 3 1.55874 2.683901 2.12132 2.12132 
C 2.683901 1.55874 3 0.795609 3 0 
C 3 -0.795609 2.683901 -1.55874 2.12132 -2.12132 
C 1.55874 -2.683901 0.795609 -3 0 -3 
C -0.795609 -3 -1.55874 -2.683901 -2.12132 -2.12132 
C -2.683901 -1.55874 -3 -0.795609 -3 0 
C -3 0.795609 -2.683901 1.55874 -2.12132 2.12132 
C -1.55874 2.683901 -0.795609 3 0 3 
z
" style="stroke: #1f77b4"/>
     </defs>
     <g>
      <use xlink:href="#m3475619dcd" x="280.935937" y="274.979062" style="fill: #1f77b4; stroke: #1f77b4"/>
     </g>
    </g>
    <g id="text_19">
     <!-- title -->
     <g transform="translate(298.935937 277.604062) scale(0.1 -0.1)">
      <use xlink:href="#DejaVuSans-74"/>
      <use xlink:href="#DejaVuSans-69" x="39.208984"/>
      <use xlink:href="#DejaVuSans-74" x="66.992188"/>
      <use xlink:href="#DejaVuSans-6c" x="106.201172"/>
      <use xlink:href="#DejaVuSans-65" x="133.984375"/>
     </g>
    </g>
    <g id="PathCollection_6">
     <defs>
      <path id="m7760638843" d="M -1.5 3 
L 0 1.5 
L 1.5 3 
L 3 1.5 
L 1.5 0 
L 3 -1.5 
L 1.5 -3 
L 0 -1.5 
L -1.5 -3 
L -3 -1.5 
L -1.5 0 
L -3 1.5 
z
" style="stroke: #ff7f0e"/>
     </defs>
     <g>
      <use xlink:href="#m7760638843" x="280.935937" y="289.657187" style="fill: #ff7f0e; stroke: #ff7f0e"/>
     </g>
    </g>
    <g id="text_20">
     <!-- desc -->
     <g transform="translate(298.935937 292.282187) scale(0.1 -0.1)">
      <defs>
       <path id="DejaVuSans-64" d="M 2906 2969 
L 2906 4863 
L 3481 4863 
L 3481 0 
L 2906 0 
L 2906 525 
Q 2725 213 2448 61 
Q 2172 -91 1784 -91 
Q 1150 -91 751 415 
Q 353 922 353 1747 
Q 353 2572 751 3078 
Q 1150 3584 1784 3584 
Q 2172 3584 2448 3432 
Q 2725 3281 2906 2969 
z
M 947 1747 
Q 947 1113 1208 752 
Q 1469 391 1925 391 
Q 2381 391 2643 752 
Q 2906 1113 2906 1747 
Q 2906 2381 2643 2742 
Q 2381 3103 1925 3103 
Q 1469 3103 1208 2742 
Q 947 2381 947 1747 
z
" transform="scale(0.015625)"/>
       <path id="DejaVuSans-73" d="M 2834 3397 
L 2834 2853 
Q 2591 2978 2328 3040 
Q 2066 3103 1784 3103 
Q 1356 3103 1142 2972 
Q 928 2841 928 2578 
Q 928 2378 1081 2264 
Q 1234 2150 1697 2047 
L 1894 2003 
Q 2506 1872 2764 1633 
Q 3022 1394 3022 966 
Q 3022 478 2636 193 
Q 2250 -91 1575 -91 
Q 1294 -91 989 -36 
Q 684 19 347 128 
L 347 722 
Q 666 556 975 473 
Q 1284 391 1588 391 
Q 1994 391 2212 530 
Q 2431 669 2431 922 
Q 2431 1156 2273 1281 
Q 2116 1406 1581 1522 
L 1381 1569 
Q 847 1681 609 1914 
Q 372 2147 372 2553 
Q 372 3047 722 3315 
Q 1072 3584 1716 3584 
Q 2034 3584 2315 3537 
Q 2597 3491 2834 3397 
z
" transform="scale(0.015625)"/>
       <path id="DejaVuSans-63" d="M 3122 3366 
L 3122 2828 
Q 2878 2963 2633 3030 
Q 2388 3097 2138 3097 
Q 1578 3097 1268 2742 
Q 959 2388 959 1747 
Q 959 1106 1268 751 
Q 1578 397 2138 397 
Q 2388 397 2633 464 
Q 2878 531 3122 666 
L 3122 134 
Q 2881 22 2623 -34 
Q 2366 -91 2075 -91 
Q 1284 -91 818 406 
Q 353 903 353 1747 
Q 353 2603 823 3093 
Q 1294 3584 2113 3584 
Q 2378 3584 2631 3529 
Q 2884 3475 3122 3366 
z
" transform="scale(0.015625)"/>
      </defs>
      <use xlink:href="#DejaVuSans-64"/>
      <use xlink:href="#DejaVuSans-65" x="63.476562"/>
      <use xlink:href="#DejaVuSans-73" x="125"/>
      <use xlink:href="#DejaVuSans-63" x="177.099609"/>
     </g>
    </g>
    <g id="PathCollection_7">
     <defs>
      <path id="m57df3c309f" d="M -2.12132 -2.12132 
L -2.12132 2.12132 
L 2.12132 2.12132 
L 2.12132 -2.12132 
z
" style="stroke: #2ca02c"/>
     </defs>
     <g>
      <use xlink:href="#m57df3c309f" x="280.935937" y="304.335312" style="fill: #2ca02c; stroke: #2ca02c"/>
     </g>
    </g>
    <g id="text_21">
     <!-- abstract -->
     <g transform="translate(298.935937 306.960312) scale(0.1 -0.1)">
      <defs>
       <path id="DejaVuSans-62" d="M 3116 1747 
Q 3116 2381 2855 2742 
Q 2594 3103 2138 3103 
Q 1681 3103 1420 2742 
Q 1159 2381 1159 1747 
Q 1159 1113 1420 752 
Q 1681 391 2138 391 
Q 2594 391 2855 752 
Q 3116 1113 3116 1747 
z
M 1159 2969 
Q 1341 3281 1617 3432 
Q 1894 3584 2278 3584 
Q 2916 3584 3314 3078 
Q 3713 2572 3713 1747 
Q 3713 922 3314 415 
Q 2916 -91 2278 -91 
Q 1894 -91 1617 61 
Q 1341 213 1159 525 
L 1159 0 
L 581 0 
L 581 4863 
L 1159 4863 
L 1159 2969 
z
" transform="scale(0.015625)"/>
       <path id="DejaVuSans-72" d="M 2631 2963 
Q 2534 3019 2420 3045 
Q 2306 3072 2169 3072 
Q 1681 3072 1420 2755 
Q 1159 2438 1159 1844 
L 1159 0 
L 581 0 
L 581 3500 
L 1159 3500 
L 1159 2956 
Q 1341 3275 1631 3429 
Q 1922 3584 2338 3584 
Q 2397 3584 2469 3576 
Q 2541 3569 2628 3553 
L 2631 2963 
z
" transform="scale(0.015625)"/>
      </defs>
      <use xlink:href="#DejaVuSans-61"/>
      <use xlink:href="#DejaVuSans-62" x="61.279297"/>
      <use xlink:href="#DejaVuSans-73" x="124.755859"/>
      <use xlink:href="#DejaVuSans-74" x="176.855469"/>
      <use xlink:href="#DejaVuSans-72" x="216.064453"/>
      <use xlink:href="#DejaVuSans-61" x="257.177734"/>
      <use xlink:href="#DejaVuSans-63" x="318.457031"/>
      <use xlink:href="#DejaVuSans-74" x="373.4375"/>
     </g>
    </g>
   </g>
  </g>
 </g>
 <defs>
  <clipPath id="p5662796e01">
   <rect x="47.855" y="10.8" width="301.345" height="307.24"/>
  </clipPath>
 </defs>
</svg>
