<?xml version="1.0" encoding="utf-8" standalone="no"?>
<!DOCTYPE svg PUBLIC "-//W3C//DTD SVG 1.1//EN"
  "http://www.w3.org/Graphics/SVG/1.1/DTD/svg11.dtd">
<svg xmlns:xlink="http://www.w3.org/1999/xlink" width="360pt" height="360pt" viewBox="0 0 360 360" xmlns="http://www.w3.org/2000/svg" version="1.1">
 <metadata>
  <rdf:RDF xmlns:dc="http://purl.org/dc/elements/1.1/" xmlns:cc="http://creativecommons.org/ns#" xmlns:rdf="http://www.w3.org/1999/02/22-rdf-syntax-ns#">
   <cc:Work>
    <dc:type rdf:resource="http://purl.org/dc/dcmitype/StillImage"/>
    <dc:date>2022-12-19T02:02:26.942993</dc:date>
    <dc:format>image/svg+xml</dc:format>
    <dc:creator>
     <cc:Agent>
      <dc:title>Matplotlib v3.6.2, https://matplotlib.org/</dc:title>
     </cc:Agent>
    </dc:creator>
   </cc:Work>
  </rdf:RDF>
 </metadata>
 <defs>
  <style type="text/css">*{stroke-linejoin: round; stroke-linecap: butt}</style>
 </defs>
 <g id="figure_1">
  <g id="patch_1">
   <path d="M 0 360 
L 360 360 
L 360 0 
L 0 0 
z
" style="fill: #ffffff"/>
  </g>
  <g id="axes_1">
   <g id="patch_2">
    <path d="M 47.855 318.04 
L 349.2 318.04 
L 349.2 10.8 
L 47.855 10.8 
z
" style="fill: #ffffff"/>
   </g>
   <g id="PathCollection_1">
    <path d="M 61.5525 92.221399 
C 62.348109 92.221399 63.11124 91.9053 63.67382 91.342719 
C 64.236401 90.780138 64.5525 90.017008 64.5525 89.221399 
C 64.5525 88.425789 64.236401 87.662659 63.67382 87.100078 
C 63.11124 86.537498 62.348109 86.221399 61.5525 86.221399 
C 60.756891 86.221399 59.99376 86.537498 59.43118 87.100078 
C 58.868599 87.662659 58.5525 88.425789 58.5525 89.221399 
C 58.5525 90.017008 58.868599 90.780138 59.43118 91.342719 
C 59.99376 91.9053 60.756891 92.221399 61.5525 92.221399 
z
" clip-path="url(#p3889ce7862)" style="fill: #1f77b4; stroke: #ffffff; stroke-width: 0.48"/>
    <path d="M 61.5525 92.221399 
C 62.348109 92.221399 63.11124 91.9053 63.67382 91.342719 
C 64.236401 90.780138 64.5525 90.017008 64.5525 89.221399 
C 64.5525 88.425789 64.236401 87.662659 63.67382 87.100078 
C 63.11124 86.537498 62.348109 86.221399 61.5525 86.221399 
C 60.756891 86.221399 59.99376 86.537498 59.43118 87.100078 
C 58.868599 87.662659 58.5525 88.425789 58.5525 89.221399 
C 58.5525 90.017008 58.868599 90.780138 59.43118 91.342719 
C 59.99376 91.9053 60.756891 92.221399 61.5525 92.221399 
z
" clip-path="url(#p3889ce7862)" style="fill: #ff7f0e; stroke: #ffffff; stroke-width: 0.48"/>
    <path d="M 61.5525 92.221399 
C 62.348109 92.221399 63.11124 91.9053 63.67382 91.342719 
C 64.236401 90.780138 64.5525 90.017008 64.5525 89.221399 
C 64.5525 88.425789 64.236401 87.662659 63.67382 87.100078 
C 63.11124 86.537498 62.348109 86.221399 61.5525 86.221399 
C 60.756891 86.221399 59.99376 86.537498 59.43118 87.100078 
C 58.868599 87.662659 58.5525 88.425789 58.5525 89.221399 
C 58.5525 90.017008 58.868599 90.780138 59.43118 91.342719 
C 59.99376 91.9053 60.756891 92.221399 61.5525 92.221399 
z
" clip-path="url(#p3889ce7862)" style="fill: #2ca02c; stroke: #ffffff; stroke-width: 0.48"/>
    <path d="M 61.5525 92.221399 
C 62.348109 92.221399 63.11124 91.9053 63.67382 91.342719 
C 64.236401 90.780138 64.5525 90.017008 64.5525 89.221399 
C 64.5525 88.425789 64.236401 87.662659 63.67382 87.100078 
C 63.11124 86.537498 62.348109 86.221399 61.5525 86.221399 
C 60.756891 86.221399 59.99376 86.537498 59.43118 87.100078 
C 58.868599 87.662659 58.5525 88.425789 58.5525 89.221399 
C 58.5525 90.017008 58.868599 90.780138 59.43118 91.342719 
C 59.99376 91.9053 60.756891 92.221399 61.5525 92.221399 
z
" clip-path="url(#p3889ce7862)" style="fill: #d62728; stroke: #ffffff; stroke-width: 0.48"/>
    <path d="M 86.457045 92.221399 
C 87.252655 92.221399 88.015785 91.9053 88.578366 91.342719 
C 89.140947 90.780138 89.457045 90.017008 89.457045 89.221399 
C 89.457045 88.425789 89.140947 87.662659 88.578366 87.100078 
C 88.015785 86.537498 87.252655 86.221399 86.457045 86.221399 
C 85.661436 86.221399 84.898306 86.537498 84.335725 87.100078 
C 83.773144 87.662659 83.457045 88.425789 83.457045 89.221399 
C 83.457045 90.017008 83.773144 90.780138 84.335725 91.342719 
C 84.898306 91.9053 85.661436 92.221399 86.457045 92.221399 
z
" clip-path="url(#p3889ce7862)" style="fill: #9467bd; stroke: #ffffff; stroke-width: 0.48"/>
    <path d="M 60.0525 285.589231 
L 61.5525 284.089231 
L 63.0525 285.589231 
L 64.5525 284.089231 
L 63.0525 282.589231 
L 64.5525 281.089231 
L 63.0525 279.589231 
L 61.5525 281.089231 
L 60.0525 279.589231 
L 58.5525 281.089231 
L 60.0525 282.589231 
L 58.5525 284.089231 
z
" clip-path="url(#p3889ce7862)" style="fill: #1f77b4; stroke: #ffffff; stroke-width: 0.48"/>
    <path d="M 60.0525 285.589231 
L 61.5525 284.089231 
L 63.0525 285.589231 
L 64.5525 284.089231 
L 63.0525 282.589231 
L 64.5525 281.089231 
L 63.0525 279.589231 
L 61.5525 281.089231 
L 60.0525 279.589231 
L 58.5525 281.089231 
L 60.0525 282.589231 
L 58.5525 284.089231 
z
" clip-path="url(#p3889ce7862)" style="fill: #ff7f0e; stroke: #ffffff; stroke-width: 0.48"/>
    <path d="M 60.0525 285.589231 
L 61.5525 284.089231 
L 63.0525 285.589231 
L 64.5525 284.089231 
L 63.0525 282.589231 
L 64.5525 281.089231 
L 63.0525 279.589231 
L 61.5525 281.089231 
L 60.0525 279.589231 
L 58.5525 281.089231 
L 60.0525 282.589231 
L 58.5525 284.089231 
z
" clip-path="url(#p3889ce7862)" style="fill: #2ca02c; stroke: #ffffff; stroke-width: 0.48"/>
    <path d="M 60.0525 285.589231 
L 61.5525 284.089231 
L 63.0525 285.589231 
L 64.5525 284.089231 
L 63.0525 282.589231 
L 64.5525 281.089231 
L 63.0525 279.589231 
L 61.5525 281.089231 
L 60.0525 279.589231 
L 58.5525 281.089231 
L 60.0525 282.589231 
L 58.5525 284.089231 
z
" clip-path="url(#p3889ce7862)" style="fill: #d62728; stroke: #ffffff; stroke-width: 0.48"/>
    <path d="M 84.957045 285.589231 
L 86.457045 284.089231 
L 87.957045 285.589231 
L 89.457045 284.089231 
L 87.957045 282.589231 
L 89.457045 281.089231 
L 87.957045 279.589231 
L 86.457045 281.089231 
L 84.957045 279.589231 
L 83.457045 281.089231 
L 84.957045 282.589231 
L 83.457045 284.089231 
z
" clip-path="url(#p3889ce7862)" style="fill: #9467bd; stroke: #ffffff; stroke-width: 0.48"/>
    <path d="M 59.43118 130.070708 
L 59.43118 134.313348 
L 63.67382 134.313348 
L 63.67382 130.070708 
z
" clip-path="url(#p3889ce7862)" style="fill: #1f77b4; stroke: #ffffff; stroke-width: 0.48"/>
    <path d="M 59.43118 130.070708 
L 59.43118 134.313348 
L 63.67382 134.313348 
L 63.67382 130.070708 
z
" clip-path="url(#p3889ce7862)" style="fill: #ff7f0e; stroke: #ffffff; stroke-width: 0.48"/>
    <path d="M 59.43118 130.070708 
L 59.43118 134.313348 
L 63.67382 134.313348 
L 63.67382 130.070708 
z
" clip-path="url(#p3889ce7862)" style="fill: #2ca02c; stroke: #ffffff; stroke-width: 0.48"/>
    <path d="M 59.43118 130.070708 
L 59.43118 134.313348 
L 63.67382 134.313348 
L 63.67382 130.070708 
z
" clip-path="url(#p3889ce7862)" style="fill: #d62728; stroke: #ffffff; stroke-width: 0.48"/>
    <path d="M 84.335725 130.070708 
L 84.335725 134.313348 
L 88.578366 134.313348 
L 88.578366 130.070708 
z
" clip-path="url(#p3889ce7862)" style="fill: #9467bd; stroke: #ffffff; stroke-width: 0.48"/>
    <path d="M 61.5525 199.647972 
C 62.348109 199.647972 63.11124 199.331873 63.67382 198.769292 
C 64.236401 198.206712 64.5525 197.443581 64.5525 196.647972 
C 64.5525 195.852363 64.236401 195.089232 63.67382 194.526652 
C 63.11124 193.964071 62.348109 193.647972 61.5525 193.647972 
C 60.756891 193.647972 59.99376 193.964071 59.43118 194.526652 
C 58.868599 195.089232 58.5525 195.852363 58.5525 196.647972 
C 58.5525 197.443581 58.868599 198.206712 59.43118 198.769292 
C 59.99376 199.331873 60.756891 199.647972 61.5525 199.647972 
z
" clip-path="url(#p3889ce7862)" style="fill: #1f77b4; stroke: #ffffff; stroke-width: 0.48"/>
    <path d="M 61.5525 199.647972 
C 62.348109 199.647972 63.11124 199.331873 63.67382 198.769292 
C 64.236401 198.206712 64.5525 197.443581 64.5525 196.647972 
C 64.5525 195.852363 64.236401 195.089232 63.67382 194.526652 
C 63.11124 193.964071 62.348109 193.647972 61.5525 193.647972 
C 60.756891 193.647972 59.99376 193.964071 59.43118 194.526652 
C 58.868599 195.089232 58.5525 195.852363 58.5525 196.647972 
C 58.5525 197.443581 58.868599 198.206712 59.43118 198.769292 
C 59.99376 199.331873 60.756891 199.647972 61.5525 199.647972 
z
" clip-path="url(#p3889ce7862)" style="fill: #ff7f0e; stroke: #ffffff; stroke-width: 0.48"/>
    <path d="M 61.5525 199.647972 
C 62.348109 199.647972 63.11124 199.331873 63.67382 198.769292 
C 64.236401 198.206712 64.5525 197.443581 64.5525 196.647972 
C 64.5525 195.852363 64.236401 195.089232 63.67382 194.526652 
C 63.11124 193.964071 62.348109 193.647972 61.5525 193.647972 
C 60.756891 193.647972 59.99376 193.964071 59.43118 194.526652 
C 58.868599 195.089232 58.5525 195.852363 58.5525 196.647972 
C 58.5525 197.443581 58.868599 198.206712 59.43118 198.769292 
C 59.99376 199.331873 60.756891 199.647972 61.5525 199.647972 
z
" clip-path="url(#p3889ce7862)" style="fill: #2ca02c; stroke: #ffffff; stroke-width: 0.48"/>
    <path d="M 61.5525 199.647972 
C 62.348109 199.647972 63.11124 199.331873 63.67382 198.769292 
C 64.236401 198.206712 64.5525 197.443581 64.5525 196.647972 
C 64.5525 195.852363 64.236401 195.089232 63.67382 194.526652 
C 63.11124 193.964071 62.348109 193.647972 61.5525 193.647972 
C 60.756891 193.647972 59.99376 193.964071 59.43118 194.526652 
C 58.868599 195.089232 58.5525 195.852363 58.5525 196.647972 
C 58.5525 197.443581 58.868599 198.206712 59.43118 198.769292 
C 59.99376 199.331873 60.756891 199.647972 61.5525 199.647972 
z
" clip-path="url(#p3889ce7862)" style="fill: #d62728; stroke: #ffffff; stroke-width: 0.48"/>
    <path d="M 94.758561 199.647972 
C 95.55417 199.647972 96.3173 199.331873 96.879881 198.769292 
C 97.442462 198.206712 97.758561 197.443581 97.758561 196.647972 
C 97.758561 195.852363 97.442462 195.089232 96.879881 194.526652 
C 96.3173 193.964071 95.55417 193.647972 94.758561 193.647972 
C 93.962951 193.647972 93.199821 193.964071 92.63724 194.526652 
C 92.07466 195.089232 91.758561 195.852363 91.758561 196.647972 
C 91.758561 197.443581 92.07466 198.206712 92.63724 198.769292 
C 93.199821 199.331873 93.962951 199.647972 94.758561 199.647972 
z
" clip-path="url(#p3889ce7862)" style="fill: #9467bd; stroke: #ffffff; stroke-width: 0.48"/>
    <path d="M 60.0525 113.706713 
L 61.5525 112.206713 
L 63.0525 113.706713 
L 64.5525 112.206713 
L 63.0525 110.706713 
L 64.5525 109.206713 
L 63.0525 107.706713 
L 61.5525 109.206713 
L 60.0525 107.706713 
L 58.5525 109.206713 
L 60.0525 110.706713 
L 58.5525 112.206713 
z
" clip-path="url(#p3889ce7862)" style="fill: #1f77b4; stroke: #ffffff; stroke-width: 0.48"/>
    <path d="M 60.0525 113.706713 
L 61.5525 112.206713 
L 63.0525 113.706713 
L 64.5525 112.206713 
L 63.0525 110.706713 
L 64.5525 109.206713 
L 63.0525 107.706713 
L 61.5525 109.206713 
L 60.0525 107.706713 
L 58.5525 109.206713 
L 60.0525 110.706713 
L 58.5525 112.206713 
z
" clip-path="url(#p3889ce7862)" style="fill: #ff7f0e; stroke: #ffffff; stroke-width: 0.48"/>
    <path d="M 60.0525 113.706713 
L 61.5525 112.206713 
L 63.0525 113.706713 
L 64.5525 112.206713 
L 63.0525 110.706713 
L 64.5525 109.206713 
L 63.0525 107.706713 
L 61.5525 109.206713 
L 60.0525 107.706713 
L 58.5525 109.206713 
L 60.0525 110.706713 
L 58.5525 112.206713 
z
" clip-path="url(#p3889ce7862)" style="fill: #2ca02c; stroke: #ffffff; stroke-width: 0.48"/>
    <path d="M 60.0525 113.706713 
L 61.5525 112.206713 
L 63.0525 113.706713 
L 64.5525 112.206713 
L 63.0525 110.706713 
L 64.5525 109.206713 
L 63.0525 107.706713 
L 61.5525 109.206713 
L 60.0525 107.706713 
L 58.5525 109.206713 
L 60.0525 110.706713 
L 58.5525 112.206713 
z
" clip-path="url(#p3889ce7862)" style="fill: #d62728; stroke: #ffffff; stroke-width: 0.48"/>
    <path d="M 93.258561 113.706713 
L 94.758561 112.206713 
L 96.258561 113.706713 
L 97.758561 112.206713 
L 96.258561 110.706713 
L 97.758561 109.206713 
L 96.258561 107.706713 
L 94.758561 109.206713 
L 93.258561 107.706713 
L 91.758561 109.206713 
L 93.258561 110.706713 
L 91.758561 112.206713 
z
" clip-path="url(#p3889ce7862)" style="fill: #9467bd; stroke: #ffffff; stroke-width: 0.48"/>
    <path d="M 59.43118 258.982596 
L 59.43118 263.225236 
L 63.67382 263.225236 
L 63.67382 258.982596 
z
" clip-path="url(#p3889ce7862)" style="fill: #1f77b4; stroke: #ffffff; stroke-width: 0.48"/>
    <path d="M 59.43118 258.982596 
L 59.43118 263.225236 
L 63.67382 263.225236 
L 63.67382 258.982596 
z
" clip-path="url(#p3889ce7862)" style="fill: #ff7f0e; stroke: #ffffff; stroke-width: 0.48"/>
    <path d="M 59.43118 258.982596 
L 59.43118 263.225236 
L 63.67382 263.225236 
L 63.67382 258.982596 
z
" clip-path="url(#p3889ce7862)" style="fill: #2ca02c; stroke: #ffffff; stroke-width: 0.48"/>
    <path d="M 59.43118 258.982596 
L 59.43118 263.225236 
L 63.67382 263.225236 
L 63.67382 258.982596 
z
" clip-path="url(#p3889ce7862)" style="fill: #d62728; stroke: #ffffff; stroke-width: 0.48"/>
    <path d="M 92.63724 258.982596 
L 92.63724 263.225236 
L 96.879881 263.225236 
L 96.879881 258.982596 
z
" clip-path="url(#p3889ce7862)" style="fill: #9467bd; stroke: #ffffff; stroke-width: 0.48"/>
    <path d="M 61.5525 135.192028 
C 62.348109 135.192028 63.11124 134.875929 63.67382 134.313348 
C 64.236401 133.750768 64.5525 132.987637 64.5525 132.192028 
C 64.5525 131.396419 64.236401 130.633288 63.67382 130.070708 
C 63.11124 129.508127 62.348109 129.192028 61.5525 129.192028 
C 60.756891 129.192028 59.99376 129.508127 59.43118 130.070708 
C 58.868599 130.633288 58.5525 131.396419 58.5525 132.192028 
C 58.5525 132.987637 58.868599 133.750768 59.43118 134.313348 
C 59.99376 134.875929 60.756891 135.192028 61.5525 135.192028 
z
" clip-path="url(#p3889ce7862)" style="fill: #1f77b4; stroke: #ffffff; stroke-width: 0.48"/>
    <path d="M 61.5525 135.192028 
C 62.348109 135.192028 63.11124 134.875929 63.67382 134.313348 
C 64.236401 133.750768 64.5525 132.987637 64.5525 132.192028 
C 64.5525 131.396419 64.236401 130.633288 63.67382 130.070708 
C 63.11124 129.508127 62.348109 129.192028 61.5525 129.192028 
C 60.756891 129.192028 59.99376 129.508127 59.43118 130.070708 
C 58.868599 130.633288 58.5525 131.396419 58.5525 132.192028 
C 58.5525 132.987637 58.868599 133.750768 59.43118 134.313348 
C 59.99376 134.875929 60.756891 135.192028 61.5525 135.192028 
z
" clip-path="url(#p3889ce7862)" style="fill: #ff7f0e; stroke: #ffffff; stroke-width: 0.48"/>
    <path d="M 61.5525 135.192028 
C 62.348109 135.192028 63.11124 134.875929 63.67382 134.313348 
C 64.236401 133.750768 64.5525 132.987637 64.5525 132.192028 
C 64.5525 131.396419 64.236401 130.633288 63.67382 130.070708 
C 63.11124 129.508127 62.348109 129.192028 61.5525 129.192028 
C 60.756891 129.192028 59.99376 129.508127 59.43118 130.070708 
C 58.868599 130.633288 58.5525 131.396419 58.5525 132.192028 
C 58.5525 132.987637 58.868599 133.750768 59.43118 134.313348 
C 59.99376 134.875929 60.756891 135.192028 61.5525 135.192028 
z
" clip-path="url(#p3889ce7862)" style="fill: #2ca02c; stroke: #ffffff; stroke-width: 0.48"/>
    <path d="M 61.5525 135.192028 
C 62.348109 135.192028 63.11124 134.875929 63.67382 134.313348 
C 64.236401 133.750768 64.5525 132.987637 64.5525 132.192028 
C 64.5525 131.396419 64.236401 130.633288 63.67382 130.070708 
C 63.11124 129.508127 62.348109 129.192028 61.5525 129.192028 
C 60.756891 129.192028 59.99376 129.508127 59.43118 130.070708 
C 58.868599 130.633288 58.5525 131.396419 58.5525 132.192028 
C 58.5525 132.987637 58.868599 133.750768 59.43118 134.313348 
C 59.99376 134.875929 60.756891 135.192028 61.5525 135.192028 
z
" clip-path="url(#p3889ce7862)" style="fill: #d62728; stroke: #ffffff; stroke-width: 0.48"/>
    <path d="M 127.964621 135.192028 
C 128.760231 135.192028 129.523361 134.875929 130.085942 134.313348 
C 130.648522 133.750768 130.964621 132.987637 130.964621 132.192028 
C 130.964621 131.396419 130.648522 130.633288 130.085942 130.070708 
C 129.523361 129.508127 128.760231 129.192028 127.964621 129.192028 
C 127.169012 129.192028 126.405882 129.508127 125.843301 130.070708 
C 125.28072 130.633288 124.964621 131.396419 124.964621 132.192028 
C 124.964621 132.987637 125.28072 133.750768 125.843301 134.313348 
C 126.405882 134.875929 127.169012 135.192028 127.964621 135.192028 
z
" clip-path="url(#p3889ce7862)" style="fill: #9467bd; stroke: #ffffff; stroke-width: 0.48"/>
    <path d="M 60.0525 242.618601 
L 61.5525 241.118601 
L 63.0525 242.618601 
L 64.5525 241.118601 
L 63.0525 239.618601 
L 64.5525 238.118601 
L 63.0525 236.618601 
L 61.5525 238.118601 
L 60.0525 236.618601 
L 58.5525 238.118601 
L 60.0525 239.618601 
L 58.5525 241.118601 
z
" clip-path="url(#p3889ce7862)" style="fill: #1f77b4; stroke: #ffffff; stroke-width: 0.48"/>
    <path d="M 60.0525 242.618601 
L 61.5525 241.118601 
L 63.0525 242.618601 
L 64.5525 241.118601 
L 63.0525 239.618601 
L 64.5525 238.118601 
L 63.0525 236.618601 
L 61.5525 238.118601 
L 60.0525 236.618601 
L 58.5525 238.118601 
L 60.0525 239.618601 
L 58.5525 241.118601 
z
" clip-path="url(#p3889ce7862)" style="fill: #ff7f0e; stroke: #ffffff; stroke-width: 0.48"/>
    <path d="M 60.0525 242.618601 
L 61.5525 241.118601 
L 63.0525 242.618601 
L 64.5525 241.118601 
L 63.0525 239.618601 
L 64.5525 238.118601 
L 63.0525 236.618601 
L 61.5525 238.118601 
L 60.0525 236.618601 
L 58.5525 238.118601 
L 60.0525 239.618601 
L 58.5525 241.118601 
z
" clip-path="url(#p3889ce7862)" style="fill: #2ca02c; stroke: #ffffff; stroke-width: 0.48"/>
    <path d="M 60.0525 242.618601 
L 61.5525 241.118601 
L 63.0525 242.618601 
L 64.5525 241.118601 
L 63.0525 239.618601 
L 64.5525 238.118601 
L 63.0525 236.618601 
L 61.5525 238.118601 
L 60.0525 236.618601 
L 58.5525 238.118601 
L 60.0525 239.618601 
L 58.5525 241.118601 
z
" clip-path="url(#p3889ce7862)" style="fill: #d62728; stroke: #ffffff; stroke-width: 0.48"/>
    <path d="M 126.464621 242.618601 
L 127.964621 241.118601 
L 129.464621 242.618601 
L 130.964621 241.118601 
L 129.464621 239.618601 
L 130.964621 238.118601 
L 129.464621 236.618601 
L 127.964621 238.118601 
L 126.464621 236.618601 
L 124.964621 238.118601 
L 126.464621 239.618601 
L 124.964621 241.118601 
z
" clip-path="url(#p3889ce7862)" style="fill: #9467bd; stroke: #ffffff; stroke-width: 0.48"/>
    <path d="M 59.43118 151.556022 
L 59.43118 155.798663 
L 63.67382 155.798663 
L 63.67382 151.556022 
z
" clip-path="url(#p3889ce7862)" style="fill: #1f77b4; stroke: #ffffff; stroke-width: 0.48"/>
    <path d="M 59.43118 151.556022 
L 59.43118 155.798663 
L 63.67382 155.798663 
L 63.67382 151.556022 
z
" clip-path="url(#p3889ce7862)" style="fill: #ff7f0e; stroke: #ffffff; stroke-width: 0.48"/>
    <path d="M 59.43118 151.556022 
L 59.43118 155.798663 
L 63.67382 155.798663 
L 63.67382 151.556022 
z
" clip-path="url(#p3889ce7862)" style="fill: #2ca02c; stroke: #ffffff; stroke-width: 0.48"/>
    <path d="M 59.43118 151.556022 
L 59.43118 155.798663 
L 63.67382 155.798663 
L 63.67382 151.556022 
z
" clip-path="url(#p3889ce7862)" style="fill: #d62728; stroke: #ffffff; stroke-width: 0.48"/>
    <path d="M 125.843301 151.556022 
L 125.843301 155.798663 
L 130.085942 155.798663 
L 130.085942 151.556022 
z
" clip-path="url(#p3889ce7862)" style="fill: #9467bd; stroke: #ffffff; stroke-width: 0.48"/>
    <path d="M 61.5525 235.45683 
C 62.348109 235.45683 63.11124 235.140731 63.67382 234.57815 
C 64.236401 234.015569 64.5525 233.252439 64.5525 232.45683 
C 64.5525 231.661221 64.236401 230.89809 63.67382 230.335509 
C 63.11124 229.772929 62.348109 229.45683 61.5525 229.45683 
C 60.756891 229.45683 59.99376 229.772929 59.43118 230.335509 
C 58.868599 230.89809 58.5525 231.661221 58.5525 232.45683 
C 58.5525 233.252439 58.868599 234.015569 59.43118 234.57815 
C 59.99376 235.140731 60.756891 235.45683 61.5525 235.45683 
z
" clip-path="url(#p3889ce7862)" style="fill: #1f77b4; stroke: #ffffff; stroke-width: 0.48"/>
    <path d="M 61.5525 235.45683 
C 62.348109 235.45683 63.11124 235.140731 63.67382 234.57815 
C 64.236401 234.015569 64.5525 233.252439 64.5525 232.45683 
C 64.5525 231.661221 64.236401 230.89809 63.67382 230.335509 
C 63.11124 229.772929 62.348109 229.45683 61.5525 229.45683 
C 60.756891 229.45683 59.99376 229.772929 59.43118 230.335509 
C 58.868599 230.89809 58.5525 231.661221 58.5525 232.45683 
C 58.5525 233.252439 58.868599 234.015569 59.43118 234.57815 
C 59.99376 235.140731 60.756891 235.45683 61.5525 235.45683 
z
" clip-path="url(#p3889ce7862)" style="fill: #ff7f0e; stroke: #ffffff; stroke-width: 0.48"/>
    <path d="M 61.5525 235.45683 
C 62.348109 235.45683 63.11124 235.140731 63.67382 234.57815 
C 64.236401 234.015569 64.5525 233.252439 64.5525 232.45683 
C 64.5525 231.661221 64.236401 230.89809 63.67382 230.335509 
C 63.11124 229.772929 62.348109 229.45683 61.5525 229.45683 
C 60.756891 229.45683 59.99376 229.772929 59.43118 230.335509 
C 58.868599 230.89809 58.5525 231.661221 58.5525 232.45683 
C 58.5525 233.252439 58.868599 234.015569 59.43118 234.57815 
C 59.99376 235.140731 60.756891 235.45683 61.5525 235.45683 
z
" clip-path="url(#p3889ce7862)" style="fill: #2ca02c; stroke: #ffffff; stroke-width: 0.48"/>
    <path d="M 61.5525 235.45683 
C 62.348109 235.45683 63.11124 235.140731 63.67382 234.57815 
C 64.236401 234.015569 64.5525 233.252439 64.5525 232.45683 
C 64.5525 231.661221 64.236401 230.89809 63.67382 230.335509 
C 63.11124 229.772929 62.348109 229.45683 61.5525 229.45683 
C 60.756891 229.45683 59.99376 229.772929 59.43118 230.335509 
C 58.868599 230.89809 58.5525 231.661221 58.5525 232.45683 
C 58.5525 233.252439 58.868599 234.015569 59.43118 234.57815 
C 59.99376 235.140731 60.756891 235.45683 61.5525 235.45683 
z
" clip-path="url(#p3889ce7862)" style="fill: #d62728; stroke: #ffffff; stroke-width: 0.48"/>
    <path d="M 78.15553 235.45683 
C 78.95114 235.45683 79.71427 235.140731 80.276851 234.57815 
C 80.839431 234.015569 81.15553 233.252439 81.15553 232.45683 
C 81.15553 231.661221 80.839431 230.89809 80.276851 230.335509 
C 79.71427 229.772929 78.95114 229.45683 78.15553 229.45683 
C 77.359921 229.45683 76.596791 229.772929 76.03421 230.335509 
C 75.471629 230.89809 75.15553 231.661221 75.15553 232.45683 
C 75.15553 233.252439 75.471629 234.015569 76.03421 234.57815 
C 76.596791 235.140731 77.359921 235.45683 78.15553 235.45683 
z
" clip-path="url(#p3889ce7862)" style="fill: #9467bd; stroke: #ffffff; stroke-width: 0.48"/>
    <path d="M 60.0525 92.221399 
L 61.5525 90.721399 
L 63.0525 92.221399 
L 64.5525 90.721399 
L 63.0525 89.221399 
L 64.5525 87.721399 
L 63.0525 86.221399 
L 61.5525 87.721399 
L 60.0525 86.221399 
L 58.5525 87.721399 
L 60.0525 89.221399 
L 58.5525 90.721399 
z
" clip-path="url(#p3889ce7862)" style="fill: #1f77b4; stroke: #ffffff; stroke-width: 0.48"/>
    <path d="M 60.0525 92.221399 
L 61.5525 90.721399 
L 63.0525 92.221399 
L 64.5525 90.721399 
L 63.0525 89.221399 
L 64.5525 87.721399 
L 63.0525 86.221399 
L 61.5525 87.721399 
L 60.0525 86.221399 
L 58.5525 87.721399 
L 60.0525 89.221399 
L 58.5525 90.721399 
z
" clip-path="url(#p3889ce7862)" style="fill: #ff7f0e; stroke: #ffffff; stroke-width: 0.48"/>
    <path d="M 60.0525 92.221399 
L 61.5525 90.721399 
L 63.0525 92.221399 
L 64.5525 90.721399 
L 63.0525 89.221399 
L 64.5525 87.721399 
L 63.0525 86.221399 
L 61.5525 87.721399 
L 60.0525 86.221399 
L 58.5525 87.721399 
L 60.0525 89.221399 
L 58.5525 90.721399 
z
" clip-path="url(#p3889ce7862)" style="fill: #2ca02c; stroke: #ffffff; stroke-width: 0.48"/>
    <path d="M 60.0525 92.221399 
L 61.5525 90.721399 
L 63.0525 92.221399 
L 64.5525 90.721399 
L 63.0525 89.221399 
L 64.5525 87.721399 
L 63.0525 86.221399 
L 61.5525 87.721399 
L 60.0525 86.221399 
L 58.5525 87.721399 
L 60.0525 89.221399 
L 58.5525 90.721399 
z
" clip-path="url(#p3889ce7862)" style="fill: #d62728; stroke: #ffffff; stroke-width: 0.48"/>
    <path d="M 76.65553 92.221399 
L 78.15553 90.721399 
L 79.65553 92.221399 
L 81.15553 90.721399 
L 79.65553 89.221399 
L 81.15553 87.721399 
L 79.65553 86.221399 
L 78.15553 87.721399 
L 76.65553 86.221399 
L 75.15553 87.721399 
L 76.65553 89.221399 
L 75.15553 90.721399 
z
" clip-path="url(#p3889ce7862)" style="fill: #9467bd; stroke: #ffffff; stroke-width: 0.48"/>
    <path d="M 59.43118 58.452992 
L 59.43118 62.695633 
L 63.67382 62.695633 
L 63.67382 58.452992 
z
" clip-path="url(#p3889ce7862)" style="fill: #1f77b4; stroke: #ffffff; stroke-width: 0.48"/>
    <path d="M 59.43118 58.452992 
L 59.43118 62.695633 
L 63.67382 62.695633 
L 63.67382 58.452992 
z
" clip-path="url(#p3889ce7862)" style="fill: #ff7f0e; stroke: #ffffff; stroke-width: 0.48"/>
    <path d="M 59.43118 58.452992 
L 59.43118 62.695633 
L 63.67382 62.695633 
L 63.67382 58.452992 
z
" clip-path="url(#p3889ce7862)" style="fill: #2ca02c; stroke: #ffffff; stroke-width: 0.48"/>
    <path d="M 59.43118 58.452992 
L 59.43118 62.695633 
L 63.67382 62.695633 
L 63.67382 58.452992 
z
" clip-path="url(#p3889ce7862)" style="fill: #d62728; stroke: #ffffff; stroke-width: 0.48"/>
    <path d="M 76.03421 58.452992 
L 76.03421 62.695633 
L 80.276851 62.695633 
L 80.276851 58.452992 
z
" clip-path="url(#p3889ce7862)" style="fill: #9467bd; stroke: #ffffff; stroke-width: 0.48"/>
    <path d="M 65.52279 113.706713 
C 66.318399 113.706713 67.081529 113.390614 67.64411 112.828034 
C 68.206691 112.265453 68.52279 111.502323 68.52279 110.706713 
C 68.52279 109.911104 68.206691 109.147974 67.64411 108.585393 
C 67.081529 108.022812 66.318399 107.706713 65.52279 107.706713 
C 64.727181 107.706713 63.96405 108.022812 63.40147 108.585393 
C 62.838889 109.147974 62.52279 109.911104 62.52279 110.706713 
C 62.52279 111.502323 62.838889 112.265453 63.40147 112.828034 
C 63.96405 113.390614 64.727181 113.706713 65.52279 113.706713 
z
" clip-path="url(#p3889ce7862)" style="fill: #1f77b4; stroke: #ffffff; stroke-width: 0.48"/>
    <path d="M 61.5525 113.706713 
C 62.348109 113.706713 63.11124 113.390614 63.67382 112.828034 
C 64.236401 112.265453 64.5525 111.502323 64.5525 110.706713 
C 64.5525 109.911104 64.236401 109.147974 63.67382 108.585393 
C 63.11124 108.022812 62.348109 107.706713 61.5525 107.706713 
C 60.756891 107.706713 59.99376 108.022812 59.43118 108.585393 
C 58.868599 109.147974 58.5525 109.911104 58.5525 110.706713 
C 58.5525 111.502323 58.868599 112.265453 59.43118 112.828034 
C 59.99376 113.390614 60.756891 113.706713 61.5525 113.706713 
z
" clip-path="url(#p3889ce7862)" style="fill: #ff7f0e; stroke: #ffffff; stroke-width: 0.48"/>
    <path d="M 94.758561 113.706713 
C 95.55417 113.706713 96.3173 113.390614 96.879881 112.828034 
C 97.442462 112.265453 97.758561 111.502323 97.758561 110.706713 
C 97.758561 109.911104 97.442462 109.147974 96.879881 108.585393 
C 96.3173 108.022812 95.55417 107.706713 94.758561 107.706713 
C 93.962951 107.706713 93.199821 108.022812 92.63724 108.585393 
C 92.07466 109.147974 91.758561 109.911104 91.758561 110.706713 
C 91.758561 111.502323 92.07466 112.265453 92.63724 112.828034 
C 93.199821 113.390614 93.962951 113.706713 94.758561 113.706713 
z
" clip-path="url(#p3889ce7862)" style="fill: #2ca02c; stroke: #ffffff; stroke-width: 0.48"/>
    <path d="M 61.5525 113.706713 
C 62.348109 113.706713 63.11124 113.390614 63.67382 112.828034 
C 64.236401 112.265453 64.5525 111.502323 64.5525 110.706713 
C 64.5525 109.911104 64.236401 109.147974 63.67382 108.585393 
C 63.11124 108.022812 62.348109 107.706713 61.5525 107.706713 
C 60.756891 107.706713 59.99376 108.022812 59.43118 108.585393 
C 58.868599 109.147974 58.5525 109.911104 58.5525 110.706713 
C 58.5525 111.502323 58.868599 112.265453 59.43118 112.828034 
C 59.99376 113.390614 60.756891 113.706713 61.5525 113.706713 
z
" clip-path="url(#p3889ce7862)" style="fill: #d62728; stroke: #ffffff; stroke-width: 0.48"/>
    <path d="M 335.5025 113.706713 
C 336.298109 113.706713 337.06124 113.390614 337.62382 112.828034 
C 338.186401 112.265453 338.5025 111.502323 338.5025 110.706713 
C 338.5025 109.911104 338.186401 109.147974 337.62382 108.585393 
C 337.06124 108.022812 336.298109 107.706713 335.5025 107.706713 
C 334.706891 107.706713 333.94376 108.022812 333.38118 108.585393 
C 332.818599 109.147974 332.5025 109.911104 332.5025 110.706713 
C 332.5025 111.502323 332.818599 112.265453 333.38118 112.828034 
C 333.94376 113.390614 334.706891 113.706713 335.5025 113.706713 
z
" clip-path="url(#p3889ce7862)" style="fill: #9467bd; stroke: #ffffff; stroke-width: 0.48"/>
    <path d="M 64.02279 49.250769 
L 65.52279 47.750769 
L 67.02279 49.250769 
L 68.52279 47.750769 
L 67.02279 46.250769 
L 68.52279 44.750769 
L 67.02279 43.250769 
L 65.52279 44.750769 
L 64.02279 43.250769 
L 62.52279 44.750769 
L 64.02279 46.250769 
L 62.52279 47.750769 
z
" clip-path="url(#p3889ce7862)" style="fill: #1f77b4; stroke: #ffffff; stroke-width: 0.48"/>
    <path d="M 60.0525 49.250769 
L 61.5525 47.750769 
L 63.0525 49.250769 
L 64.5525 47.750769 
L 63.0525 46.250769 
L 64.5525 44.750769 
L 63.0525 43.250769 
L 61.5525 44.750769 
L 60.0525 43.250769 
L 58.5525 44.750769 
L 60.0525 46.250769 
L 58.5525 47.750769 
z
" clip-path="url(#p3889ce7862)" style="fill: #ff7f0e; stroke: #ffffff; stroke-width: 0.48"/>
    <path d="M 93.258561 49.250769 
L 94.758561 47.750769 
L 96.258561 49.250769 
L 97.758561 47.750769 
L 96.258561 46.250769 
L 97.758561 44.750769 
L 96.258561 43.250769 
L 94.758561 44.750769 
L 93.258561 43.250769 
L 91.758561 44.750769 
L 93.258561 46.250769 
L 91.758561 47.750769 
z
" clip-path="url(#p3889ce7862)" style="fill: #2ca02c; stroke: #ffffff; stroke-width: 0.48"/>
    <path d="M 60.0525 49.250769 
L 61.5525 47.750769 
L 63.0525 49.250769 
L 64.5525 47.750769 
L 63.0525 46.250769 
L 64.5525 44.750769 
L 63.0525 43.250769 
L 61.5525 44.750769 
L 60.0525 43.250769 
L 58.5525 44.750769 
L 60.0525 46.250769 
L 58.5525 47.750769 
z
" clip-path="url(#p3889ce7862)" style="fill: #d62728; stroke: #ffffff; stroke-width: 0.48"/>
    <path d="M 334.0025 49.250769 
L 335.5025 47.750769 
L 337.0025 49.250769 
L 338.5025 47.750769 
L 337.0025 46.250769 
L 338.5025 44.750769 
L 337.0025 43.250769 
L 335.5025 44.750769 
L 334.0025 43.250769 
L 332.5025 44.750769 
L 334.0025 46.250769 
L 332.5025 47.750769 
z
" clip-path="url(#p3889ce7862)" style="fill: #9467bd; stroke: #ffffff; stroke-width: 0.48"/>
    <path d="M 63.40147 194.526652 
L 63.40147 198.769292 
L 67.64411 198.769292 
L 67.64411 194.526652 
z
" clip-path="url(#p3889ce7862)" style="fill: #1f77b4; stroke: #ffffff; stroke-width: 0.48"/>
    <path d="M 59.43118 194.526652 
L 59.43118 198.769292 
L 63.67382 198.769292 
L 63.67382 194.526652 
z
" clip-path="url(#p3889ce7862)" style="fill: #ff7f0e; stroke: #ffffff; stroke-width: 0.48"/>
    <path d="M 92.63724 194.526652 
L 92.63724 198.769292 
L 96.879881 198.769292 
L 96.879881 194.526652 
z
" clip-path="url(#p3889ce7862)" style="fill: #2ca02c; stroke: #ffffff; stroke-width: 0.48"/>
    <path d="M 59.43118 194.526652 
L 59.43118 198.769292 
L 63.67382 198.769292 
L 63.67382 194.526652 
z
" clip-path="url(#p3889ce7862)" style="fill: #d62728; stroke: #ffffff; stroke-width: 0.48"/>
    <path d="M 333.38118 194.526652 
L 333.38118 198.769292 
L 337.62382 198.769292 
L 337.62382 194.526652 
z
" clip-path="url(#p3889ce7862)" style="fill: #9467bd; stroke: #ffffff; stroke-width: 0.48"/>
    <path d="M 61.5525 199.647972 
C 62.348109 199.647972 63.11124 199.331873 63.67382 198.769292 
C 64.236401 198.206712 64.5525 197.443581 64.5525 196.647972 
C 64.5525 195.852363 64.236401 195.089232 63.67382 194.526652 
C 63.11124 193.964071 62.348109 193.647972 61.5525 193.647972 
C 60.756891 193.647972 59.99376 193.964071 59.43118 194.526652 
C 58.868599 195.089232 58.5525 195.852363 58.5525 196.647972 
C 58.5525 197.443581 58.868599 198.206712 59.43118 198.769292 
C 59.99376 199.331873 60.756891 199.647972 61.5525 199.647972 
z
" clip-path="url(#p3889ce7862)" style="fill: #1f77b4; stroke: #ffffff; stroke-width: 0.48"/>
    <path d="M 61.5525 199.647972 
C 62.348109 199.647972 63.11124 199.331873 63.67382 198.769292 
C 64.236401 198.206712 64.5525 197.443581 64.5525 196.647972 
C 64.5525 195.852363 64.236401 195.089232 63.67382 194.526652 
C 63.11124 193.964071 62.348109 193.647972 61.5525 193.647972 
C 60.756891 193.647972 59.99376 193.964071 59.43118 194.526652 
C 58.868599 195.089232 58.5525 195.852363 58.5525 196.647972 
C 58.5525 197.443581 58.868599 198.206712 59.43118 198.769292 
C 59.99376 199.331873 60.756891 199.647972 61.5525 199.647972 
z
" clip-path="url(#p3889ce7862)" style="fill: #ff7f0e; stroke: #ffffff; stroke-width: 0.48"/>
    <path d="M 61.5525 199.647972 
C 62.348109 199.647972 63.11124 199.331873 63.67382 198.769292 
C 64.236401 198.206712 64.5525 197.443581 64.5525 196.647972 
C 64.5525 195.852363 64.236401 195.089232 63.67382 194.526652 
C 63.11124 193.964071 62.348109 193.647972 61.5525 193.647972 
C 60.756891 193.647972 59.99376 193.964071 59.43118 194.526652 
C 58.868599 195.089232 58.5525 195.852363 58.5525 196.647972 
C 58.5525 197.443581 58.868599 198.206712 59.43118 198.769292 
C 59.99376 199.331873 60.756891 199.647972 61.5525 199.647972 
z
" clip-path="url(#p3889ce7862)" style="fill: #2ca02c; stroke: #ffffff; stroke-width: 0.48"/>
    <path d="M 61.5525 199.647972 
C 62.348109 199.647972 63.11124 199.331873 63.67382 198.769292 
C 64.236401 198.206712 64.5525 197.443581 64.5525 196.647972 
C 64.5525 195.852363 64.236401 195.089232 63.67382 194.526652 
C 63.11124 193.964071 62.348109 193.647972 61.5525 193.647972 
C 60.756891 193.647972 59.99376 193.964071 59.43118 194.526652 
C 58.868599 195.089232 58.5525 195.852363 58.5525 196.647972 
C 58.5525 197.443581 58.868599 198.206712 59.43118 198.769292 
C 59.99376 199.331873 60.756891 199.647972 61.5525 199.647972 
z
" clip-path="url(#p3889ce7862)" style="fill: #d62728; stroke: #ffffff; stroke-width: 0.48"/>
    <path d="M 136.266136 199.647972 
C 137.061746 199.647972 137.824876 199.331873 138.387457 198.769292 
C 138.950037 198.206712 139.266136 197.443581 139.266136 196.647972 
C 139.266136 195.852363 138.950037 195.089232 138.387457 194.526652 
C 137.824876 193.964071 137.061746 193.647972 136.266136 193.647972 
C 135.470527 193.647972 134.707397 193.964071 134.144816 194.526652 
C 133.582235 195.089232 133.266136 195.852363 133.266136 196.647972 
C 133.266136 197.443581 133.582235 198.206712 134.144816 198.769292 
C 134.707397 199.331873 135.470527 199.647972 136.266136 199.647972 
z
" clip-path="url(#p3889ce7862)" style="fill: #9467bd; stroke: #ffffff; stroke-width: 0.48"/>
    <path d="M 60.0525 135.192028 
L 61.5525 133.692028 
L 63.0525 135.192028 
L 64.5525 133.692028 
L 63.0525 132.192028 
L 64.5525 130.692028 
L 63.0525 129.192028 
L 61.5525 130.692028 
L 60.0525 129.192028 
L 58.5525 130.692028 
L 60.0525 132.192028 
L 58.5525 133.692028 
z
" clip-path="url(#p3889ce7862)" style="fill: #1f77b4; stroke: #ffffff; stroke-width: 0.48"/>
    <path d="M 60.0525 135.192028 
L 61.5525 133.692028 
L 63.0525 135.192028 
L 64.5525 133.692028 
L 63.0525 132.192028 
L 64.5525 130.692028 
L 63.0525 129.192028 
L 61.5525 130.692028 
L 60.0525 129.192028 
L 58.5525 130.692028 
L 60.0525 132.192028 
L 58.5525 133.692028 
z
" clip-path="url(#p3889ce7862)" style="fill: #ff7f0e; stroke: #ffffff; stroke-width: 0.48"/>
    <path d="M 60.0525 135.192028 
L 61.5525 133.692028 
L 63.0525 135.192028 
L 64.5525 133.692028 
L 63.0525 132.192028 
L 64.5525 130.692028 
L 63.0525 129.192028 
L 61.5525 130.692028 
L 60.0525 129.192028 
L 58.5525 130.692028 
L 60.0525 132.192028 
L 58.5525 133.692028 
z
" clip-path="url(#p3889ce7862)" style="fill: #2ca02c; stroke: #ffffff; stroke-width: 0.48"/>
    <path d="M 60.0525 135.192028 
L 61.5525 133.692028 
L 63.0525 135.192028 
L 64.5525 133.692028 
L 63.0525 132.192028 
L 64.5525 130.692028 
L 63.0525 129.192028 
L 61.5525 130.692028 
L 60.0525 129.192028 
L 58.5525 130.692028 
L 60.0525 132.192028 
L 58.5525 133.692028 
z
" clip-path="url(#p3889ce7862)" style="fill: #d62728; stroke: #ffffff; stroke-width: 0.48"/>
    <path d="M 134.766136 135.192028 
L 136.266136 133.692028 
L 137.766136 135.192028 
L 139.266136 133.692028 
L 137.766136 132.192028 
L 139.266136 130.692028 
L 137.766136 129.192028 
L 136.266136 130.692028 
L 134.766136 129.192028 
L 133.266136 130.692028 
L 134.766136 132.192028 
L 133.266136 133.692028 
z
" clip-path="url(#p3889ce7862)" style="fill: #9467bd; stroke: #ffffff; stroke-width: 0.48"/>
    <path d="M 59.43118 87.100078 
L 59.43118 91.342719 
L 63.67382 91.342719 
L 63.67382 87.100078 
z
" clip-path="url(#p3889ce7862)" style="fill: #1f77b4; stroke: #ffffff; stroke-width: 0.48"/>
    <path d="M 59.43118 87.100078 
L 59.43118 91.342719 
L 63.67382 91.342719 
L 63.67382 87.100078 
z
" clip-path="url(#p3889ce7862)" style="fill: #ff7f0e; stroke: #ffffff; stroke-width: 0.48"/>
    <path d="M 59.43118 87.100078 
L 59.43118 91.342719 
L 63.67382 91.342719 
L 63.67382 87.100078 
z
" clip-path="url(#p3889ce7862)" style="fill: #2ca02c; stroke: #ffffff; stroke-width: 0.48"/>
    <path d="M 59.43118 87.100078 
L 59.43118 91.342719 
L 63.67382 91.342719 
L 63.67382 87.100078 
z
" clip-path="url(#p3889ce7862)" style="fill: #d62728; stroke: #ffffff; stroke-width: 0.48"/>
    <path d="M 134.144816 87.100078 
L 134.144816 91.342719 
L 138.387457 91.342719 
L 138.387457 87.100078 
z
" clip-path="url(#p3889ce7862)" style="fill: #9467bd; stroke: #ffffff; stroke-width: 0.48"/>
    <path d="M 61.5525 307.074545 
C 62.348109 307.074545 63.11124 306.758447 63.67382 306.195866 
C 64.236401 305.633285 64.5525 304.870155 64.5525 304.074545 
C 64.5525 303.278936 64.236401 302.515806 63.67382 301.953225 
C 63.11124 301.390644 62.348109 301.074545 61.5525 301.074545 
C 60.756891 301.074545 59.99376 301.390644 59.43118 301.953225 
C 58.868599 302.515806 58.5525 303.278936 58.5525 304.074545 
C 58.5525 304.870155 58.868599 305.633285 59.43118 306.195866 
C 59.99376 306.758447 60.756891 307.074545 61.5525 307.074545 
z
" clip-path="url(#p3889ce7862)" style="fill: #1f77b4; stroke: #ffffff; stroke-width: 0.48"/>
    <path d="M 61.5525 307.074545 
C 62.348109 307.074545 63.11124 306.758447 63.67382 306.195866 
C 64.236401 305.633285 64.5525 304.870155 64.5525 304.074545 
C 64.5525 303.278936 64.236401 302.515806 63.67382 301.953225 
C 63.11124 301.390644 62.348109 301.074545 61.5525 301.074545 
C 60.756891 301.074545 59.99376 301.390644 59.43118 301.953225 
C 58.868599 302.515806 58.5525 303.278936 58.5525 304.074545 
C 58.5525 304.870155 58.868599 305.633285 59.43118 306.195866 
C 59.99376 306.758447 60.756891 307.074545 61.5525 307.074545 
z
" clip-path="url(#p3889ce7862)" style="fill: #ff7f0e; stroke: #ffffff; stroke-width: 0.48"/>
    <path d="M 61.5525 307.074545 
C 62.348109 307.074545 63.11124 306.758447 63.67382 306.195866 
C 64.236401 305.633285 64.5525 304.870155 64.5525 304.074545 
C 64.5525 303.278936 64.236401 302.515806 63.67382 301.953225 
C 63.11124 301.390644 62.348109 301.074545 61.5525 301.074545 
C 60.756891 301.074545 59.99376 301.390644 59.43118 301.953225 
C 58.868599 302.515806 58.5525 303.278936 58.5525 304.074545 
C 58.5525 304.870155 58.868599 305.633285 59.43118 306.195866 
C 59.99376 306.758447 60.756891 307.074545 61.5525 307.074545 
z
" clip-path="url(#p3889ce7862)" style="fill: #2ca02c; stroke: #ffffff; stroke-width: 0.48"/>
    <path d="M 61.5525 307.074545 
C 62.348109 307.074545 63.11124 306.758447 63.67382 306.195866 
C 64.236401 305.633285 64.5525 304.870155 64.5525 304.074545 
C 64.5525 303.278936 64.236401 302.515806 63.67382 301.953225 
C 63.11124 301.390644 62.348109 301.074545 61.5525 301.074545 
C 60.756891 301.074545 59.99376 301.390644 59.43118 301.953225 
C 58.868599 302.515806 58.5525 303.278936 58.5525 304.074545 
C 58.5525 304.870155 58.868599 305.633285 59.43118 306.195866 
C 59.99376 306.758447 60.756891 307.074545 61.5525 307.074545 
z
" clip-path="url(#p3889ce7862)" style="fill: #d62728; stroke: #ffffff; stroke-width: 0.48"/>
    <path d="M 244.185833 307.074545 
C 244.981443 307.074545 245.744573 306.758447 246.307154 306.195866 
C 246.869734 305.633285 247.185833 304.870155 247.185833 304.074545 
C 247.185833 303.278936 246.869734 302.515806 246.307154 301.953225 
C 245.744573 301.390644 244.981443 301.074545 244.185833 301.074545 
C 243.390224 301.074545 242.627094 301.390644 242.064513 301.953225 
C 241.501932 302.515806 241.185833 303.278936 241.185833 304.074545 
C 241.185833 304.870155 241.501932 305.633285 242.064513 306.195866 
C 242.627094 306.758447 243.390224 307.074545 244.185833 307.074545 
z
" clip-path="url(#p3889ce7862)" style="fill: #9467bd; stroke: #ffffff; stroke-width: 0.48"/>
    <path d="M 60.0525 156.677343 
L 61.5525 155.177343 
L 63.0525 156.677343 
L 64.5525 155.177343 
L 63.0525 153.677343 
L 64.5525 152.177343 
L 63.0525 150.677343 
L 61.5525 152.177343 
L 60.0525 150.677343 
L 58.5525 152.177343 
L 60.0525 153.677343 
L 58.5525 155.177343 
z
" clip-path="url(#p3889ce7862)" style="fill: #1f77b4; stroke: #ffffff; stroke-width: 0.48"/>
    <path d="M 60.0525 156.677343 
L 61.5525 155.177343 
L 63.0525 156.677343 
L 64.5525 155.177343 
L 63.0525 153.677343 
L 64.5525 152.177343 
L 63.0525 150.677343 
L 61.5525 152.177343 
L 60.0525 150.677343 
L 58.5525 152.177343 
L 60.0525 153.677343 
L 58.5525 155.177343 
z
" clip-path="url(#p3889ce7862)" style="fill: #ff7f0e; stroke: #ffffff; stroke-width: 0.48"/>
    <path d="M 60.0525 156.677343 
L 61.5525 155.177343 
L 63.0525 156.677343 
L 64.5525 155.177343 
L 63.0525 153.677343 
L 64.5525 152.177343 
L 63.0525 150.677343 
L 61.5525 152.177343 
L 60.0525 150.677343 
L 58.5525 152.177343 
L 60.0525 153.677343 
L 58.5525 155.177343 
z
" clip-path="url(#p3889ce7862)" style="fill: #2ca02c; stroke: #ffffff; stroke-width: 0.48"/>
    <path d="M 60.0525 156.677343 
L 61.5525 155.177343 
L 63.0525 156.677343 
L 64.5525 155.177343 
L 63.0525 153.677343 
L 64.5525 152.177343 
L 63.0525 150.677343 
L 61.5525 152.177343 
L 60.0525 150.677343 
L 58.5525 152.177343 
L 60.0525 153.677343 
L 58.5525 155.177343 
z
" clip-path="url(#p3889ce7862)" style="fill: #d62728; stroke: #ffffff; stroke-width: 0.48"/>
    <path d="M 242.685833 156.677343 
L 244.185833 155.177343 
L 245.685833 156.677343 
L 247.185833 155.177343 
L 245.685833 153.677343 
L 247.185833 152.177343 
L 245.685833 150.677343 
L 244.185833 152.177343 
L 242.685833 150.677343 
L 241.185833 152.177343 
L 242.685833 153.677343 
L 241.185833 155.177343 
z
" clip-path="url(#p3889ce7862)" style="fill: #9467bd; stroke: #ffffff; stroke-width: 0.48"/>
    <path d="M 59.43118 301.953225 
L 59.43118 306.195866 
L 63.67382 306.195866 
L 63.67382 301.953225 
z
" clip-path="url(#p3889ce7862)" style="fill: #1f77b4; stroke: #ffffff; stroke-width: 0.48"/>
    <path d="M 59.43118 301.953225 
L 59.43118 306.195866 
L 63.67382 306.195866 
L 63.67382 301.953225 
z
" clip-path="url(#p3889ce7862)" style="fill: #ff7f0e; stroke: #ffffff; stroke-width: 0.48"/>
    <path d="M 59.43118 301.953225 
L 59.43118 306.195866 
L 63.67382 306.195866 
L 63.67382 301.953225 
z
" clip-path="url(#p3889ce7862)" style="fill: #2ca02c; stroke: #ffffff; stroke-width: 0.48"/>
    <path d="M 59.43118 301.953225 
L 59.43118 306.195866 
L 63.67382 306.195866 
L 63.67382 301.953225 
z
" clip-path="url(#p3889ce7862)" style="fill: #d62728; stroke: #ffffff; stroke-width: 0.48"/>
    <path d="M 242.064513 301.953225 
L 242.064513 306.195866 
L 246.307154 306.195866 
L 246.307154 301.953225 
z
" clip-path="url(#p3889ce7862)" style="fill: #9467bd; stroke: #ffffff; stroke-width: 0.48"/>
    <path d="M 61.5525 135.192028 
C 62.348109 135.192028 63.11124 134.875929 63.67382 134.313348 
C 64.236401 133.750768 64.5525 132.987637 64.5525 132.192028 
C 64.5525 131.396419 64.236401 130.633288 63.67382 130.070708 
C 63.11124 129.508127 62.348109 129.192028 61.5525 129.192028 
C 60.756891 129.192028 59.99376 129.508127 59.43118 130.070708 
C 58.868599 130.633288 58.5525 131.396419 58.5525 132.192028 
C 58.5525 132.987637 58.868599 133.750768 59.43118 134.313348 
C 59.99376 134.875929 60.756891 135.192028 61.5525 135.192028 
z
" clip-path="url(#p3889ce7862)" style="fill: #1f77b4; stroke: #ffffff; stroke-width: 0.48"/>
    <path d="M 61.5525 135.192028 
C 62.348109 135.192028 63.11124 134.875929 63.67382 134.313348 
C 64.236401 133.750768 64.5525 132.987637 64.5525 132.192028 
C 64.5525 131.396419 64.236401 130.633288 63.67382 130.070708 
C 63.11124 129.508127 62.348109 129.192028 61.5525 129.192028 
C 60.756891 129.192028 59.99376 129.508127 59.43118 130.070708 
C 58.868599 130.633288 58.5525 131.396419 58.5525 132.192028 
C 58.5525 132.987637 58.868599 133.750768 59.43118 134.313348 
C 59.99376 134.875929 60.756891 135.192028 61.5525 135.192028 
z
" clip-path="url(#p3889ce7862)" style="fill: #ff7f0e; stroke: #ffffff; stroke-width: 0.48"/>
    <path d="M 61.5525 135.192028 
C 62.348109 135.192028 63.11124 134.875929 63.67382 134.313348 
C 64.236401 133.750768 64.5525 132.987637 64.5525 132.192028 
C 64.5525 131.396419 64.236401 130.633288 63.67382 130.070708 
C 63.11124 129.508127 62.348109 129.192028 61.5525 129.192028 
C 60.756891 129.192028 59.99376 129.508127 59.43118 130.070708 
C 58.868599 130.633288 58.5525 131.396419 58.5525 132.192028 
C 58.5525 132.987637 58.868599 133.750768 59.43118 134.313348 
C 59.99376 134.875929 60.756891 135.192028 61.5525 135.192028 
z
" clip-path="url(#p3889ce7862)" style="fill: #2ca02c; stroke: #ffffff; stroke-width: 0.48"/>
    <path d="M 61.5525 135.192028 
C 62.348109 135.192028 63.11124 134.875929 63.67382 134.313348 
C 64.236401 133.750768 64.5525 132.987637 64.5525 132.192028 
C 64.5525 131.396419 64.236401 130.633288 63.67382 130.070708 
C 63.11124 129.508127 62.348109 129.192028 61.5525 129.192028 
C 60.756891 129.192028 59.99376 129.508127 59.43118 130.070708 
C 58.868599 130.633288 58.5525 131.396419 58.5525 132.192028 
C 58.5525 132.987637 58.868599 133.750768 59.43118 134.313348 
C 59.99376 134.875929 60.756891 135.192028 61.5525 135.192028 
z
" clip-path="url(#p3889ce7862)" style="fill: #d62728; stroke: #ffffff; stroke-width: 0.48"/>
    <path d="M 127.964621 135.192028 
C 128.760231 135.192028 129.523361 134.875929 130.085942 134.313348 
C 130.648522 133.750768 130.964621 132.987637 130.964621 132.192028 
C 130.964621 131.396419 130.648522 130.633288 130.085942 130.070708 
C 129.523361 129.508127 128.760231 129.192028 127.964621 129.192028 
C 127.169012 129.192028 126.405882 129.508127 125.843301 130.070708 
C 125.28072 130.633288 124.964621 131.396419 124.964621 132.192028 
C 124.964621 132.987637 125.28072 133.750768 125.843301 134.313348 
C 126.405882 134.875929 127.169012 135.192028 127.964621 135.192028 
z
" clip-path="url(#p3889ce7862)" style="fill: #9467bd; stroke: #ffffff; stroke-width: 0.48"/>
    <path d="M 60.0525 221.133287 
L 61.5525 219.633287 
L 63.0525 221.133287 
L 64.5525 219.633287 
L 63.0525 218.133287 
L 64.5525 216.633287 
L 63.0525 215.133287 
L 61.5525 216.633287 
L 60.0525 215.133287 
L 58.5525 216.633287 
L 60.0525 218.133287 
L 58.5525 219.633287 
z
" clip-path="url(#p3889ce7862)" style="fill: #1f77b4; stroke: #ffffff; stroke-width: 0.48"/>
    <path d="M 60.0525 221.133287 
L 61.5525 219.633287 
L 63.0525 221.133287 
L 64.5525 219.633287 
L 63.0525 218.133287 
L 64.5525 216.633287 
L 63.0525 215.133287 
L 61.5525 216.633287 
L 60.0525 215.133287 
L 58.5525 216.633287 
L 60.0525 218.133287 
L 58.5525 219.633287 
z
" clip-path="url(#p3889ce7862)" style="fill: #ff7f0e; stroke: #ffffff; stroke-width: 0.48"/>
    <path d="M 60.0525 221.133287 
L 61.5525 219.633287 
L 63.0525 221.133287 
L 64.5525 219.633287 
L 63.0525 218.133287 
L 64.5525 216.633287 
L 63.0525 215.133287 
L 61.5525 216.633287 
L 60.0525 215.133287 
L 58.5525 216.633287 
L 60.0525 218.133287 
L 58.5525 219.633287 
z
" clip-path="url(#p3889ce7862)" style="fill: #2ca02c; stroke: #ffffff; stroke-width: 0.48"/>
    <path d="M 60.0525 221.133287 
L 61.5525 219.633287 
L 63.0525 221.133287 
L 64.5525 219.633287 
L 63.0525 218.133287 
L 64.5525 216.633287 
L 63.0525 215.133287 
L 61.5525 216.633287 
L 60.0525 215.133287 
L 58.5525 216.633287 
L 60.0525 218.133287 
L 58.5525 219.633287 
z
" clip-path="url(#p3889ce7862)" style="fill: #d62728; stroke: #ffffff; stroke-width: 0.48"/>
    <path d="M 126.464621 221.133287 
L 127.964621 219.633287 
L 129.464621 221.133287 
L 130.964621 219.633287 
L 129.464621 218.133287 
L 130.964621 216.633287 
L 129.464621 215.133287 
L 127.964621 216.633287 
L 126.464621 215.133287 
L 124.964621 216.633287 
L 126.464621 218.133287 
L 124.964621 219.633287 
z
" clip-path="url(#p3889ce7862)" style="fill: #9467bd; stroke: #ffffff; stroke-width: 0.48"/>
    <path d="M 59.43118 22.644134 
L 59.43118 26.886775 
L 63.67382 26.886775 
L 63.67382 22.644134 
z
" clip-path="url(#p3889ce7862)" style="fill: #1f77b4; stroke: #ffffff; stroke-width: 0.48"/>
    <path d="M 59.43118 22.644134 
L 59.43118 26.886775 
L 63.67382 26.886775 
L 63.67382 22.644134 
z
" clip-path="url(#p3889ce7862)" style="fill: #ff7f0e; stroke: #ffffff; stroke-width: 0.48"/>
    <path d="M 59.43118 22.644134 
L 59.43118 26.886775 
L 63.67382 26.886775 
L 63.67382 22.644134 
z
" clip-path="url(#p3889ce7862)" style="fill: #2ca02c; stroke: #ffffff; stroke-width: 0.48"/>
    <path d="M 59.43118 22.644134 
L 59.43118 26.886775 
L 63.67382 26.886775 
L 63.67382 22.644134 
z
" clip-path="url(#p3889ce7862)" style="fill: #d62728; stroke: #ffffff; stroke-width: 0.48"/>
    <path d="M 125.843301 22.644134 
L 125.843301 26.886775 
L 130.085942 26.886775 
L 130.085942 22.644134 
z
" clip-path="url(#p3889ce7862)" style="fill: #9467bd; stroke: #ffffff; stroke-width: 0.48"/>
   </g>
   <g id="PathCollection_2"/>
   <g id="PathCollection_3"/>
   <g id="PathCollection_4"/>
   <g id="PathCollection_5"/>
   <g id="PathCollection_6"/>
   <g id="PathCollection_7"/>
   <g id="PathCollection_8"/>
   <g id="PathCollection_9"/>
   <g id="matplotlib.axis_1">
    <g id="xtick_1">
     <g id="line2d_1">
      <defs>
       <path id="m883ac3495a" d="M 0 0 
L 0 3.5 
" style="stroke: #000000; stroke-width: 0.8"/>
      </defs>
      <g>
       <use xlink:href="#m883ac3495a" x="53.250985" y="318.04" style="stroke: #000000; stroke-width: 0.8"/>
      </g>
     </g>
     <g id="text_1">
      <!-- 0 -->
      <g transform="translate(50.069735 332.638438) scale(0.1 -0.1)">
       <defs>
        <path id="DejaVuSans-30" d="M 2034 4250 
Q 1547 4250 1301 3770 
Q 1056 3291 1056 2328 
Q 1056 1369 1301 889 
Q 1547 409 2034 409 
Q 2525 409 2770 889 
Q 3016 1369 3016 2328 
Q 3016 3291 2770 3770 
Q 2525 4250 2034 4250 
z
M 2034 4750 
Q 2819 4750 3233 4129 
Q 3647 3509 3647 2328 
Q 3647 1150 3233 529 
Q 2819 -91 2034 -91 
Q 1250 -91 836 529 
Q 422 1150 422 2328 
Q 422 3509 836 4129 
Q 1250 4750 2034 4750 
z
" transform="scale(0.015625)"/>
       </defs>
       <use xlink:href="#DejaVuSans-30"/>
      </g>
     </g>
    </g>
    <g id="xtick_2">
     <g id="line2d_2">
      <g>
       <use xlink:href="#m883ac3495a" x="94.758561" y="318.04" style="stroke: #000000; stroke-width: 0.8"/>
      </g>
     </g>
     <g id="text_2">
      <!-- 5 -->
      <g transform="translate(91.577311 332.638438) scale(0.1 -0.1)">
       <defs>
        <path id="DejaVuSans-35" d="M 691 4666 
L 3169 4666 
L 3169 4134 
L 1269 4134 
L 1269 2991 
Q 1406 3038 1543 3061 
Q 1681 3084 1819 3084 
Q 2600 3084 3056 2656 
Q 3513 2228 3513 1497 
Q 3513 744 3044 326 
Q 2575 -91 1722 -91 
Q 1428 -91 1123 -41 
Q 819 9 494 109 
L 494 744 
Q 775 591 1075 516 
Q 1375 441 1709 441 
Q 2250 441 2565 725 
Q 2881 1009 2881 1497 
Q 2881 1984 2565 2268 
Q 2250 2553 1709 2553 
Q 1456 2553 1204 2497 
Q 953 2441 691 2322 
L 691 4666 
z
" transform="scale(0.015625)"/>
       </defs>
       <use xlink:href="#DejaVuSans-35"/>
      </g>
     </g>
    </g>
    <g id="xtick_3">
     <g id="line2d_3">
      <g>
       <use xlink:href="#m883ac3495a" x="136.266136" y="318.04" style="stroke: #000000; stroke-width: 0.8"/>
      </g>
     </g>
     <g id="text_3">
      <!-- 10 -->
      <g transform="translate(129.903636 332.638438) scale(0.1 -0.1)">
       <defs>
        <path id="DejaVuSans-31" d="M 794 531 
L 1825 531 
L 1825 4091 
L 703 3866 
L 703 4441 
L 1819 4666 
L 2450 4666 
L 2450 531 
L 3481 531 
L 3481 0 
L 794 0 
L 794 531 
z
" transform="scale(0.015625)"/>
       </defs>
       <use xlink:href="#DejaVuSans-31"/>
       <use xlink:href="#DejaVuSans-30" x="63.623047"/>
      </g>
     </g>
    </g>
    <g id="xtick_4">
     <g id="line2d_4">
      <g>
       <use xlink:href="#m883ac3495a" x="177.773712" y="318.04" style="stroke: #000000; stroke-width: 0.8"/>
      </g>
     </g>
     <g id="text_4">
      <!-- 15 -->
      <g transform="translate(171.411212 332.638438) scale(0.1 -0.1)">
       <use xlink:href="#DejaVuSans-31"/>
       <use xlink:href="#DejaVuSans-35" x="63.623047"/>
      </g>
     </g>
    </g>
    <g id="xtick_5">
     <g id="line2d_5">
      <g>
       <use xlink:href="#m883ac3495a" x="219.281288" y="318.04" style="stroke: #000000; stroke-width: 0.8"/>
      </g>
     </g>
     <g id="text_5">
      <!-- 20 -->
      <g transform="translate(212.918788 332.638438) scale(0.1 -0.1)">
       <defs>
        <path id="DejaVuSans-32" d="M 1228 531 
L 3431 531 
L 3431 0 
L 469 0 
L 469 531 
Q 828 903 1448 1529 
Q 2069 2156 2228 2338 
Q 2531 2678 2651 2914 
Q 2772 3150 2772 3378 
Q 2772 3750 2511 3984 
Q 2250 4219 1831 4219 
Q 1534 4219 1204 4116 
Q 875 4013 500 3803 
L 500 4441 
Q 881 4594 1212 4672 
Q 1544 4750 1819 4750 
Q 2544 4750 2975 4387 
Q 3406 4025 3406 3419 
Q 3406 3131 3298 2873 
Q 3191 2616 2906 2266 
Q 2828 2175 2409 1742 
Q 1991 1309 1228 531 
z
" transform="scale(0.015625)"/>
       </defs>
       <use xlink:href="#DejaVuSans-32"/>
       <use xlink:href="#DejaVuSans-30" x="63.623047"/>
      </g>
     </g>
    </g>
    <g id="xtick_6">
     <g id="line2d_6">
      <g>
       <use xlink:href="#m883ac3495a" x="260.788864" y="318.04" style="stroke: #000000; stroke-width: 0.8"/>
      </g>
     </g>
     <g id="text_6">
      <!-- 25 -->
      <g transform="translate(254.426364 332.638438) scale(0.1 -0.1)">
       <use xlink:href="#DejaVuSans-32"/>
       <use xlink:href="#DejaVuSans-35" x="63.623047"/>
      </g>
     </g>
    </g>
    <g id="xtick_7">
     <g id="line2d_7">
      <g>
       <use xlink:href="#m883ac3495a" x="302.296439" y="318.04" style="stroke: #000000; stroke-width: 0.8"/>
      </g>
     </g>
     <g id="text_7">
      <!-- 30 -->
      <g transform="translate(295.933939 332.638438) scale(0.1 -0.1)">
       <defs>
        <path id="DejaVuSans-33" d="M 2597 2516 
Q 3050 2419 3304 2112 
Q 3559 1806 3559 1356 
Q 3559 666 3084 287 
Q 2609 -91 1734 -91 
Q 1441 -91 1130 -33 
Q 819 25 488 141 
L 488 750 
Q 750 597 1062 519 
Q 1375 441 1716 441 
Q 2309 441 2620 675 
Q 2931 909 2931 1356 
Q 2931 1769 2642 2001 
Q 2353 2234 1838 2234 
L 1294 2234 
L 1294 2753 
L 1863 2753 
Q 2328 2753 2575 2939 
Q 2822 3125 2822 3475 
Q 2822 3834 2567 4026 
Q 2313 4219 1838 4219 
Q 1578 4219 1281 4162 
Q 984 4106 628 3988 
L 628 4550 
Q 988 4650 1302 4700 
Q 1616 4750 1894 4750 
Q 2613 4750 3031 4423 
Q 3450 4097 3450 3541 
Q 3450 3153 3228 2886 
Q 3006 2619 2597 2516 
z
" transform="scale(0.015625)"/>
       </defs>
       <use xlink:href="#DejaVuSans-33"/>
       <use xlink:href="#DejaVuSans-30" x="63.623047"/>
      </g>
     </g>
    </g>
    <g id="xtick_8">
     <g id="line2d_8">
      <g>
       <use xlink:href="#m883ac3495a" x="343.804015" y="318.04" style="stroke: #000000; stroke-width: 0.8"/>
      </g>
     </g>
     <g id="text_8">
      <!-- 35 -->
      <g transform="translate(337.441515 332.638438) scale(0.1 -0.1)">
       <use xlink:href="#DejaVuSans-33"/>
       <use xlink:href="#DejaVuSans-35" x="63.623047"/>
      </g>
     </g>
    </g>
    <g id="text_9">
     <!-- Count -->
     <g transform="translate(183.679062 346.316563) scale(0.1 -0.1)">
      <defs>
       <path id="DejaVuSans-43" d="M 4122 4306 
L 4122 3641 
Q 3803 3938 3442 4084 
Q 3081 4231 2675 4231 
Q 1875 4231 1450 3742 
Q 1025 3253 1025 2328 
Q 1025 1406 1450 917 
Q 1875 428 2675 428 
Q 3081 428 3442 575 
Q 3803 722 4122 1019 
L 4122 359 
Q 3791 134 3420 21 
Q 3050 -91 2638 -91 
Q 1578 -91 968 557 
Q 359 1206 359 2328 
Q 359 3453 968 4101 
Q 1578 4750 2638 4750 
Q 3056 4750 3426 4639 
Q 3797 4528 4122 4306 
z
" transform="scale(0.015625)"/>
       <path id="DejaVuSans-6f" d="M 1959 3097 
Q 1497 3097 1228 2736 
Q 959 2375 959 1747 
Q 959 1119 1226 758 
Q 1494 397 1959 397 
Q 2419 397 2687 759 
Q 2956 1122 2956 1747 
Q 2956 2369 2687 2733 
Q 2419 3097 1959 3097 
z
M 1959 3584 
Q 2709 3584 3137 3096 
Q 3566 2609 3566 1747 
Q 3566 888 3137 398 
Q 2709 -91 1959 -91 
Q 1206 -91 779 398 
Q 353 888 353 1747 
Q 353 2609 779 3096 
Q 1206 3584 1959 3584 
z
" transform="scale(0.015625)"/>
       <path id="DejaVuSans-75" d="M 544 1381 
L 544 3500 
L 1119 3500 
L 1119 1403 
Q 1119 906 1312 657 
Q 1506 409 1894 409 
Q 2359 409 2629 706 
Q 2900 1003 2900 1516 
L 2900 3500 
L 3475 3500 
L 3475 0 
L 2900 0 
L 2900 538 
Q 2691 219 2414 64 
Q 2138 -91 1772 -91 
Q 1169 -91 856 284 
Q 544 659 544 1381 
z
M 1991 3584 
L 1991 3584 
z
" transform="scale(0.015625)"/>
       <path id="DejaVuSans-6e" d="M 3513 2113 
L 3513 0 
L 2938 0 
L 2938 2094 
Q 2938 2591 2744 2837 
Q 2550 3084 2163 3084 
Q 1697 3084 1428 2787 
Q 1159 2491 1159 1978 
L 1159 0 
L 581 0 
L 581 3500 
L 1159 3500 
L 1159 2956 
Q 1366 3272 1645 3428 
Q 1925 3584 2291 3584 
Q 2894 3584 3203 3211 
Q 3513 2838 3513 2113 
z
" transform="scale(0.015625)"/>
       <path id="DejaVuSans-74" d="M 1172 4494 
L 1172 3500 
L 2356 3500 
L 2356 3053 
L 1172 3053 
L 1172 1153 
Q 1172 725 1289 603 
Q 1406 481 1766 481 
L 2356 481 
L 2356 0 
L 1766 0 
Q 1100 0 847 248 
Q 594 497 594 1153 
L 594 3053 
L 172 3053 
L 172 3500 
L 594 3500 
L 594 4494 
L 1172 4494 
z
" transform="scale(0.015625)"/>
      </defs>
      <use xlink:href="#DejaVuSans-43"/>
      <use xlink:href="#DejaVuSans-6f" x="69.824219"/>
      <use xlink:href="#DejaVuSans-75" x="131.005859"/>
      <use xlink:href="#DejaVuSans-6e" x="194.384766"/>
      <use xlink:href="#DejaVuSans-74" x="257.763672"/>
     </g>
    </g>
   </g>
   <g id="matplotlib.axis_2">
    <g id="ytick_1">
     <g id="line2d_9">
      <defs>
       <path id="m850311cbc5" d="M 0 0 
L -3.5 0 
" style="stroke: #000000; stroke-width: 0.8"/>
      </defs>
      <g>
       <use xlink:href="#m850311cbc5" x="47.855" y="304.074545" style="stroke: #000000; stroke-width: 0.8"/>
      </g>
     </g>
     <g id="text_10">
      <!-- 1.5 -->
      <g transform="translate(24.951875 307.873764) scale(0.1 -0.1)">
       <defs>
        <path id="DejaVuSans-2e" d="M 684 794 
L 1344 794 
L 1344 0 
L 684 0 
L 684 794 
z
" transform="scale(0.015625)"/>
       </defs>
       <use xlink:href="#DejaVuSans-31"/>
       <use xlink:href="#DejaVuSans-2e" x="63.623047"/>
       <use xlink:href="#DejaVuSans-35" x="95.410156"/>
      </g>
     </g>
    </g>
    <g id="ytick_2">
     <g id="line2d_10">
      <g>
       <use xlink:href="#m850311cbc5" x="47.855" y="261.103916" style="stroke: #000000; stroke-width: 0.8"/>
      </g>
     </g>
     <g id="text_11">
      <!-- 2.0 -->
      <g transform="translate(24.951875 264.903135) scale(0.1 -0.1)">
       <use xlink:href="#DejaVuSans-32"/>
       <use xlink:href="#DejaVuSans-2e" x="63.623047"/>
       <use xlink:href="#DejaVuSans-30" x="95.410156"/>
      </g>
     </g>
    </g>
    <g id="ytick_3">
     <g id="line2d_11">
      <g>
       <use xlink:href="#m850311cbc5" x="47.855" y="218.133287" style="stroke: #000000; stroke-width: 0.8"/>
      </g>
     </g>
     <g id="text_12">
      <!-- 2.5 -->
      <g transform="translate(24.951875 221.932505) scale(0.1 -0.1)">
       <use xlink:href="#DejaVuSans-32"/>
       <use xlink:href="#DejaVuSans-2e" x="63.623047"/>
       <use xlink:href="#DejaVuSans-35" x="95.410156"/>
      </g>
     </g>
    </g>
    <g id="ytick_4">
     <g id="line2d_12">
      <g>
       <use xlink:href="#m850311cbc5" x="47.855" y="175.162657" style="stroke: #000000; stroke-width: 0.8"/>
      </g>
     </g>
     <g id="text_13">
      <!-- 3.0 -->
      <g transform="translate(24.951875 178.961876) scale(0.1 -0.1)">
       <use xlink:href="#DejaVuSans-33"/>
       <use xlink:href="#DejaVuSans-2e" x="63.623047"/>
       <use xlink:href="#DejaVuSans-30" x="95.410156"/>
      </g>
     </g>
    </g>
    <g id="ytick_5">
     <g id="line2d_13">
      <g>
       <use xlink:href="#m850311cbc5" x="47.855" y="132.192028" style="stroke: #000000; stroke-width: 0.8"/>
      </g>
     </g>
     <g id="text_14">
      <!-- 3.5 -->
      <g transform="translate(24.951875 135.991247) scale(0.1 -0.1)">
       <use xlink:href="#DejaVuSans-33"/>
       <use xlink:href="#DejaVuSans-2e" x="63.623047"/>
       <use xlink:href="#DejaVuSans-35" x="95.410156"/>
      </g>
     </g>
    </g>
    <g id="ytick_6">
     <g id="line2d_14">
      <g>
       <use xlink:href="#m850311cbc5" x="47.855" y="89.221399" style="stroke: #000000; stroke-width: 0.8"/>
      </g>
     </g>
     <g id="text_15">
      <!-- 4.0 -->
      <g transform="translate(24.951875 93.020617) scale(0.1 -0.1)">
       <defs>
        <path id="DejaVuSans-34" d="M 2419 4116 
L 825 1625 
L 2419 1625 
L 2419 4116 
z
M 2253 4666 
L 3047 4666 
L 3047 1625 
L 3713 1625 
L 3713 1100 
L 3047 1100 
L 3047 0 
L 2419 0 
L 2419 1100 
L 313 1100 
L 313 1709 
L 2253 4666 
z
" transform="scale(0.015625)"/>
       </defs>
       <use xlink:href="#DejaVuSans-34"/>
       <use xlink:href="#DejaVuSans-2e" x="63.623047"/>
       <use xlink:href="#DejaVuSans-30" x="95.410156"/>
      </g>
     </g>
    </g>
    <g id="ytick_7">
     <g id="line2d_15">
      <g>
       <use xlink:href="#m850311cbc5" x="47.855" y="46.250769" style="stroke: #000000; stroke-width: 0.8"/>
      </g>
     </g>
     <g id="text_16">
      <!-- 4.5 -->
      <g transform="translate(24.951875 50.049988) scale(0.1 -0.1)">
       <use xlink:href="#DejaVuSans-34"/>
       <use xlink:href="#DejaVuSans-2e" x="63.623047"/>
       <use xlink:href="#DejaVuSans-35" x="95.410156"/>
      </g>
     </g>
    </g>
    <g id="text_17">
     <!-- Rating -->
     <g transform="translate(18.872187 180.537969) rotate(-90) scale(0.1 -0.1)">
      <defs>
       <path id="DejaVuSans-52" d="M 2841 2188 
Q 3044 2119 3236 1894 
Q 3428 1669 3622 1275 
L 4263 0 
L 3584 0 
L 2988 1197 
Q 2756 1666 2539 1819 
Q 2322 1972 1947 1972 
L 1259 1972 
L 1259 0 
L 628 0 
L 628 4666 
L 2053 4666 
Q 2853 4666 3247 4331 
Q 3641 3997 3641 3322 
Q 3641 2881 3436 2590 
Q 3231 2300 2841 2188 
z
M 1259 4147 
L 1259 2491 
L 2053 2491 
Q 2509 2491 2742 2702 
Q 2975 2913 2975 3322 
Q 2975 3731 2742 3939 
Q 2509 4147 2053 4147 
L 1259 4147 
z
" transform="scale(0.015625)"/>
       <path id="DejaVuSans-61" d="M 2194 1759 
Q 1497 1759 1228 1600 
Q 959 1441 959 1056 
Q 959 750 1161 570 
Q 1363 391 1709 391 
Q 2188 391 2477 730 
Q 2766 1069 2766 1631 
L 2766 1759 
L 2194 1759 
z
M 3341 1997 
L 3341 0 
L 2766 0 
L 2766 531 
Q 2569 213 2275 61 
Q 1981 -91 1556 -91 
Q 1019 -91 701 211 
Q 384 513 384 1019 
Q 384 1609 779 1909 
Q 1175 2209 1959 2209 
L 2766 2209 
L 2766 2266 
Q 2766 2663 2505 2880 
Q 2244 3097 1772 3097 
Q 1472 3097 1187 3025 
Q 903 2953 641 2809 
L 641 3341 
Q 956 3463 1253 3523 
Q 1550 3584 1831 3584 
Q 2591 3584 2966 3190 
Q 3341 2797 3341 1997 
z
" transform="scale(0.015625)"/>
       <path id="DejaVuSans-69" d="M 603 3500 
L 1178 3500 
L 1178 0 
L 603 0 
L 603 3500 
z
M 603 4863 
L 1178 4863 
L 1178 4134 
L 603 4134 
L 603 4863 
z
" transform="scale(0.015625)"/>
       <path id="DejaVuSans-67" d="M 2906 1791 
Q 2906 2416 2648 2759 
Q 2391 3103 1925 3103 
Q 1463 3103 1205 2759 
Q 947 2416 947 1791 
Q 947 1169 1205 825 
Q 1463 481 1925 481 
Q 2391 481 2648 825 
Q 2906 1169 2906 1791 
z
M 3481 434 
Q 3481 -459 3084 -895 
Q 2688 -1331 1869 -1331 
Q 1566 -1331 1297 -1286 
Q 1028 -1241 775 -1147 
L 775 -588 
Q 1028 -725 1275 -790 
Q 1522 -856 1778 -856 
Q 2344 -856 2625 -561 
Q 2906 -266 2906 331 
L 2906 616 
Q 2728 306 2450 153 
Q 2172 0 1784 0 
Q 1141 0 747 490 
Q 353 981 353 1791 
Q 353 2603 747 3093 
Q 1141 3584 1784 3584 
Q 2172 3584 2450 3431 
Q 2728 3278 2906 2969 
L 2906 3500 
L 3481 3500 
L 3481 434 
z
" transform="scale(0.015625)"/>
      </defs>
      <use xlink:href="#DejaVuSans-52"/>
      <use xlink:href="#DejaVuSans-61" x="67.232422"/>
      <use xlink:href="#DejaVuSans-74" x="128.511719"/>
      <use xlink:href="#DejaVuSans-69" x="167.720703"/>
      <use xlink:href="#DejaVuSans-6e" x="195.503906"/>
      <use xlink:href="#DejaVuSans-67" x="258.882812"/>
     </g>
    </g>
   </g>
   <g id="patch_3">
    <path d="M 47.855 318.04 
L 47.855 10.8 
" style="fill: none; stroke: #000000; stroke-width: 0.8; stroke-linejoin: miter; stroke-linecap: square"/>
   </g>
   <g id="patch_4">
    <path d="M 349.2 318.04 
L 349.2 10.8 
" style="fill: none; stroke: #000000; stroke-width: 0.8; stroke-linejoin: miter; stroke-linecap: square"/>
   </g>
   <g id="patch_5">
    <path d="M 47.855 318.04 
L 349.2 318.04 
" style="fill: none; stroke: #000000; stroke-width: 0.8; stroke-linejoin: miter; stroke-linecap: square"/>
   </g>
   <g id="patch_6">
    <path d="M 47.855 10.8 
L 349.2 10.8 
" style="fill: none; stroke: #000000; stroke-width: 0.8; stroke-linejoin: miter; stroke-linecap: square"/>
   </g>
   <g id="legend_1">
    <g id="patch_7">
     <path d="M 163.784531 313.04 
L 233.270469 313.04 
Q 235.270469 313.04 235.270469 311.04 
L 235.270469 165.25875 
Q 235.270469 163.25875 233.270469 163.25875 
L 163.784531 163.25875 
Q 161.784531 163.25875 161.784531 165.25875 
L 161.784531 311.04 
Q 161.784531 313.04 163.784531 313.04 
z
" style="fill: #ffffff; opacity: 0.8; stroke: #cccccc; stroke-linejoin: miter"/>
    </g>
    <g id="text_18">
     <!-- Agg -->
     <g transform="translate(173.784531 174.857188) scale(0.1 -0.1)">
      <defs>
       <path id="DejaVuSans-41" d="M 2188 4044 
L 1331 1722 
L 3047 1722 
L 2188 4044 
z
M 1831 4666 
L 2547 4666 
L 4325 0 
L 3669 0 
L 3244 1197 
L 1141 1197 
L 716 0 
L 50 0 
L 1831 4666 
z
" transform="scale(0.015625)"/>
      </defs>
      <use xlink:href="#DejaVuSans-41"/>
      <use xlink:href="#DejaVuSans-67" x="68.408203"/>
      <use xlink:href="#DejaVuSans-67" x="131.884766"/>
     </g>
    </g>
    <g id="PathCollection_10">
     <defs>
      <path id="m8374b90656" d="M 0 3 
C 0.795609 3 1.55874 2.683901 2.12132 2.12132 
C 2.683901 1.55874 3 0.795609 3 0 
C 3 -0.795609 2.683901 -1.55874 2.12132 -2.12132 
C 1.55874 -2.683901 0.795609 -3 0 -3 
C -0.795609 -3 -1.55874 -2.683901 -2.12132 -2.12132 
C -2.683901 -1.55874 -3 -0.795609 -3 0 
C -3 0.795609 -2.683901 1.55874 -2.12132 2.12132 
C -1.55874 2.683901 -0.795609 3 0 3 
z
" style="stroke: #1f77b4"/>
     </defs>
     <g>
      <use xlink:href="#m8374b90656" x="175.784531" y="186.910313" style="fill: #1f77b4; stroke: #1f77b4"/>
     </g>
    </g>
    <g id="text_19">
     <!-- mean -->
     <g transform="translate(193.784531 189.535313) scale(0.1 -0.1)">
      <defs>
       <path id="DejaVuSans-6d" d="M 3328 2828 
Q 3544 3216 3844 3400 
Q 4144 3584 4550 3584 
Q 5097 3584 5394 3201 
Q 5691 2819 5691 2113 
L 5691 0 
L 5113 0 
L 5113 2094 
Q 5113 2597 4934 2840 
Q 4756 3084 4391 3084 
Q 3944 3084 3684 2787 
Q 3425 2491 3425 1978 
L 3425 0 
L 2847 0 
L 2847 2094 
Q 2847 2600 2669 2842 
Q 2491 3084 2119 3084 
Q 1678 3084 1418 2786 
Q 1159 2488 1159 1978 
L 1159 0 
L 581 0 
L 581 3500 
L 1159 3500 
L 1159 2956 
Q 1356 3278 1631 3431 
Q 1906 3584 2284 3584 
Q 2666 3584 2933 3390 
Q 3200 3197 3328 2828 
z
" transform="scale(0.015625)"/>
       <path id="DejaVuSans-65" d="M 3597 1894 
L 3597 1613 
L 953 1613 
Q 991 1019 1311 708 
Q 1631 397 2203 397 
Q 2534 397 2845 478 
Q 3156 559 3463 722 
L 3463 178 
Q 3153 47 2828 -22 
Q 2503 -91 2169 -91 
Q 1331 -91 842 396 
Q 353 884 353 1716 
Q 353 2575 817 3079 
Q 1281 3584 2069 3584 
Q 2775 3584 3186 3129 
Q 3597 2675 3597 1894 
z
M 3022 2063 
Q 3016 2534 2758 2815 
Q 2500 3097 2075 3097 
Q 1594 3097 1305 2825 
Q 1016 2553 972 2059 
L 3022 2063 
z
" transform="scale(0.015625)"/>
      </defs>
      <use xlink:href="#DejaVuSans-6d"/>
      <use xlink:href="#DejaVuSans-65" x="97.412109"/>
      <use xlink:href="#DejaVuSans-61" x="158.935547"/>
      <use xlink:href="#DejaVuSans-6e" x="220.214844"/>
     </g>
    </g>
    <g id="PathCollection_11">
     <defs>
      <path id="mfc23ceb083" d="M 0 3 
C 0.795609 3 1.55874 2.683901 2.12132 2.12132 
C 2.683901 1.55874 3 0.795609 3 0 
C 3 -0.795609 2.683901 -1.55874 2.12132 -2.12132 
C 1.55874 -2.683901 0.795609 -3 0 -3 
C -0.795609 -3 -1.55874 -2.683901 -2.12132 -2.12132 
C -2.683901 -1.55874 -3 -0.795609 -3 0 
C -3 0.795609 -2.683901 1.55874 -2.12132 2.12132 
C -1.55874 2.683901 -0.795609 3 0 3 
z
" style="stroke: #ff7f0e"/>
     </defs>
     <g>
      <use xlink:href="#mfc23ceb083" x="175.784531" y="201.588438" style="fill: #ff7f0e; stroke: #ff7f0e"/>
     </g>
    </g>
    <g id="text_20">
     <!-- median -->
     <g transform="translate(193.784531 204.213438) scale(0.1 -0.1)">
      <defs>
       <path id="DejaVuSans-64" d="M 2906 2969 
L 2906 4863 
L 3481 4863 
L 3481 0 
L 2906 0 
L 2906 525 
Q 2725 213 2448 61 
Q 2172 -91 1784 -91 
Q 1150 -91 751 415 
Q 353 922 353 1747 
Q 353 2572 751 3078 
Q 1150 3584 1784 3584 
Q 2172 3584 2448 3432 
Q 2725 3281 2906 2969 
z
M 947 1747 
Q 947 1113 1208 752 
Q 1469 391 1925 391 
Q 2381 391 2643 752 
Q 2906 1113 2906 1747 
Q 2906 2381 2643 2742 
Q 2381 3103 1925 3103 
Q 1469 3103 1208 2742 
Q 947 2381 947 1747 
z
" transform="scale(0.015625)"/>
      </defs>
      <use xlink:href="#DejaVuSans-6d"/>
      <use xlink:href="#DejaVuSans-65" x="97.412109"/>
      <use xlink:href="#DejaVuSans-64" x="158.935547"/>
      <use xlink:href="#DejaVuSans-69" x="222.412109"/>
      <use xlink:href="#DejaVuSans-61" x="250.195312"/>
      <use xlink:href="#DejaVuSans-6e" x="311.474609"/>
     </g>
    </g>
    <g id="PathCollection_12">
     <defs>
      <path id="m44e3fca0b9" d="M 0 3 
C 0.795609 3 1.55874 2.683901 2.12132 2.12132 
C 2.683901 1.55874 3 0.795609 3 0 
C 3 -0.795609 2.683901 -1.55874 2.12132 -2.12132 
C 1.55874 -2.683901 0.795609 -3 0 -3 
C -0.795609 -3 -1.55874 -2.683901 -2.12132 -2.12132 
C -2.683901 -1.55874 -3 -0.795609 -3 0 
C -3 0.795609 -2.683901 1.55874 -2.12132 2.12132 
C -1.55874 2.683901 -0.795609 3 0 3 
z
" style="stroke: #2ca02c"/>
     </defs>
     <g>
      <use xlink:href="#m44e3fca0b9" x="175.784531" y="216.266563" style="fill: #2ca02c; stroke: #2ca02c"/>
     </g>
    </g>
    <g id="text_21">
     <!-- max -->
     <g transform="translate(193.784531 218.891563) scale(0.1 -0.1)">
      <defs>
       <path id="DejaVuSans-78" d="M 3513 3500 
L 2247 1797 
L 3578 0 
L 2900 0 
L 1881 1375 
L 863 0 
L 184 0 
L 1544 1831 
L 300 3500 
L 978 3500 
L 1906 2253 
L 2834 3500 
L 3513 3500 
z
" transform="scale(0.015625)"/>
      </defs>
      <use xlink:href="#DejaVuSans-6d"/>
      <use xlink:href="#DejaVuSans-61" x="97.412109"/>
      <use xlink:href="#DejaVuSans-78" x="158.691406"/>
     </g>
    </g>
    <g id="PathCollection_13">
     <defs>
      <path id="m76663ab41d" d="M 0 3 
C 0.795609 3 1.55874 2.683901 2.12132 2.12132 
C 2.683901 1.55874 3 0.795609 3 0 
C 3 -0.795609 2.683901 -1.55874 2.12132 -2.12132 
C 1.55874 -2.683901 0.795609 -3 0 -3 
C -0.795609 -3 -1.55874 -2.683901 -2.12132 -2.12132 
C -2.683901 -1.55874 -3 -0.795609 -3 0 
C -3 0.795609 -2.683901 1.55874 -2.12132 2.12132 
C -1.55874 2.683901 -0.795609 3 0 3 
z
" style="stroke: #d62728"/>
     </defs>
     <g>
      <use xlink:href="#m76663ab41d" x="175.784531" y="230.944688" style="fill: #d62728; stroke: #d62728"/>
     </g>
    </g>
    <g id="text_22">
     <!-- min -->
     <g transform="translate(193.784531 233.569688) scale(0.1 -0.1)">
      <use xlink:href="#DejaVuSans-6d"/>
      <use xlink:href="#DejaVuSans-69" x="97.412109"/>
      <use xlink:href="#DejaVuSans-6e" x="125.195312"/>
     </g>
    </g>
    <g id="PathCollection_14">
     <defs>
      <path id="mdb5f4ea822" d="M 0 3 
C 0.795609 3 1.55874 2.683901 2.12132 2.12132 
C 2.683901 1.55874 3 0.795609 3 0 
C 3 -0.795609 2.683901 -1.55874 2.12132 -2.12132 
C 1.55874 -2.683901 0.795609 -3 0 -3 
C -0.795609 -3 -1.55874 -2.683901 -2.12132 -2.12132 
C -2.683901 -1.55874 -3 -0.795609 -3 0 
C -3 0.795609 -2.683901 1.55874 -2.12132 2.12132 
C -1.55874 2.683901 -0.795609 3 0 3 
z
" style="stroke: #9467bd"/>
     </defs>
     <g>
      <use xlink:href="#mdb5f4ea822" x="175.784531" y="245.622813" style="fill: #9467bd; stroke: #9467bd"/>
     </g>
    </g>
    <g id="text_23">
     <!-- total -->
     <g transform="translate(193.784531 248.247813) scale(0.1 -0.1)">
      <defs>
       <path id="DejaVuSans-6c" d="M 603 4863 
L 1178 4863 
L 1178 0 
L 603 0 
L 603 4863 
z
" transform="scale(0.015625)"/>
      </defs>
      <use xlink:href="#DejaVuSans-74"/>
      <use xlink:href="#DejaVuSans-6f" x="39.208984"/>
      <use xlink:href="#DejaVuSans-74" x="100.390625"/>
      <use xlink:href="#DejaVuSans-61" x="139.599609"/>
      <use xlink:href="#DejaVuSans-6c" x="200.878906"/>
     </g>
    </g>
    <g id="text_24">
     <!-- Technique -->
     <g transform="translate(173.784531 262.925938) scale(0.1 -0.1)">
      <defs>
       <path id="DejaVuSans-54" d="M -19 4666 
L 3928 4666 
L 3928 4134 
L 2272 4134 
L 2272 0 
L 1638 0 
L 1638 4134 
L -19 4134 
L -19 4666 
z
" transform="scale(0.015625)"/>
       <path id="DejaVuSans-63" d="M 3122 3366 
L 3122 2828 
Q 2878 2963 2633 3030 
Q 2388 3097 2138 3097 
Q 1578 3097 1268 2742 
Q 959 2388 959 1747 
Q 959 1106 1268 751 
Q 1578 397 2138 397 
Q 2388 397 2633 464 
Q 2878 531 3122 666 
L 3122 134 
Q 2881 22 2623 -34 
Q 2366 -91 2075 -91 
Q 1284 -91 818 406 
Q 353 903 353 1747 
Q 353 2603 823 3093 
Q 1294 3584 2113 3584 
Q 2378 3584 2631 3529 
Q 2884 3475 3122 3366 
z
" transform="scale(0.015625)"/>
       <path id="DejaVuSans-68" d="M 3513 2113 
L 3513 0 
L 2938 0 
L 2938 2094 
Q 2938 2591 2744 2837 
Q 2550 3084 2163 3084 
Q 1697 3084 1428 2787 
Q 1159 2491 1159 1978 
L 1159 0 
L 581 0 
L 581 4863 
L 1159 4863 
L 1159 2956 
Q 1366 3272 1645 3428 
Q 1925 3584 2291 3584 
Q 2894 3584 3203 3211 
Q 3513 2838 3513 2113 
z
" transform="scale(0.015625)"/>
       <path id="DejaVuSans-71" d="M 947 1747 
Q 947 1113 1208 752 
Q 1469 391 1925 391 
Q 2381 391 2643 752 
Q 2906 1113 2906 1747 
Q 2906 2381 2643 2742 
Q 2381 3103 1925 3103 
Q 1469 3103 1208 2742 
Q 947 2381 947 1747 
z
M 2906 525 
Q 2725 213 2448 61 
Q 2172 -91 1784 -91 
Q 1150 -91 751 415 
Q 353 922 353 1747 
Q 353 2572 751 3078 
Q 1150 3584 1784 3584 
Q 2172 3584 2448 3432 
Q 2725 3281 2906 2969 
L 2906 3500 
L 3481 3500 
L 3481 -1331 
L 2906 -1331 
L 2906 525 
z
" transform="scale(0.015625)"/>
      </defs>
      <use xlink:href="#DejaVuSans-54"/>
      <use xlink:href="#DejaVuSans-65" x="44.083984"/>
      <use xlink:href="#DejaVuSans-63" x="105.607422"/>
      <use xlink:href="#DejaVuSans-68" x="160.587891"/>
      <use xlink:href="#DejaVuSans-6e" x="223.966797"/>
      <use xlink:href="#DejaVuSans-69" x="287.345703"/>
      <use xlink:href="#DejaVuSans-71" x="315.128906"/>
      <use xlink:href="#DejaVuSans-75" x="378.605469"/>
      <use xlink:href="#DejaVuSans-65" x="441.984375"/>
     </g>
    </g>
    <g id="PathCollection_15">
     <defs>
      <path id="m4ac063e875" d="M 0 3 
C 0.795609 3 1.55874 2.683901 2.12132 2.12132 
C 2.683901 1.55874 3 0.795609 3 0 
C 3 -0.795609 2.683901 -1.55874 2.12132 -2.12132 
C 1.55874 -2.683901 0.795609 -3 0 -3 
C -0.795609 -3 -1.55874 -2.683901 -2.12132 -2.12132 
C -2.683901 -1.55874 -3 -0.795609 -3 0 
C -3 0.795609 -2.683901 1.55874 -2.12132 2.12132 
C -1.55874 2.683901 -0.795609 3 0 3 
z
" style="stroke: #333333"/>
     </defs>
     <g>
      <use xlink:href="#m4ac063e875" x="175.784531" y="274.979063" style="fill: #333333; stroke: #333333"/>
     </g>
    </g>
    <g id="text_25">
     <!-- OntMet -->
     <g transform="translate(193.784531 277.604063) scale(0.1 -0.1)">
      <defs>
       <path id="DejaVuSans-4f" d="M 2522 4238 
Q 1834 4238 1429 3725 
Q 1025 3213 1025 2328 
Q 1025 1447 1429 934 
Q 1834 422 2522 422 
Q 3209 422 3611 934 
Q 4013 1447 4013 2328 
Q 4013 3213 3611 3725 
Q 3209 4238 2522 4238 
z
M 2522 4750 
Q 3503 4750 4090 4092 
Q 4678 3434 4678 2328 
Q 4678 1225 4090 567 
Q 3503 -91 2522 -91 
Q 1538 -91 948 565 
Q 359 1222 359 2328 
Q 359 3434 948 4092 
Q 1538 4750 2522 4750 
z
" transform="scale(0.015625)"/>
       <path id="DejaVuSans-4d" d="M 628 4666 
L 1569 4666 
L 2759 1491 
L 3956 4666 
L 4897 4666 
L 4897 0 
L 4281 0 
L 4281 4097 
L 3078 897 
L 2444 897 
L 1241 4097 
L 1241 0 
L 628 0 
L 628 4666 
z
" transform="scale(0.015625)"/>
      </defs>
      <use xlink:href="#DejaVuSans-4f"/>
      <use xlink:href="#DejaVuSans-6e" x="78.710938"/>
      <use xlink:href="#DejaVuSans-74" x="142.089844"/>
      <use xlink:href="#DejaVuSans-4d" x="181.298828"/>
      <use xlink:href="#DejaVuSans-65" x="267.578125"/>
      <use xlink:href="#DejaVuSans-74" x="329.101562"/>
     </g>
    </g>
    <g id="PathCollection_16">
     <defs>
      <path id="m93542d83d2" d="M -1.5 3 
L 0 1.5 
L 1.5 3 
L 3 1.5 
L 1.5 0 
L 3 -1.5 
L 1.5 -3 
L 0 -1.5 
L -1.5 -3 
L -3 -1.5 
L -1.5 0 
L -3 1.5 
z
" style="stroke: #333333"/>
     </defs>
     <g>
      <use xlink:href="#m93542d83d2" x="175.784531" y="289.657188" style="fill: #333333; stroke: #333333"/>
     </g>
    </g>
    <g id="text_26">
     <!-- ClaFreq -->
     <g transform="translate(193.784531 292.282188) scale(0.1 -0.1)">
      <defs>
       <path id="DejaVuSans-46" d="M 628 4666 
L 3309 4666 
L 3309 4134 
L 1259 4134 
L 1259 2759 
L 3109 2759 
L 3109 2228 
L 1259 2228 
L 1259 0 
L 628 0 
L 628 4666 
z
" transform="scale(0.015625)"/>
       <path id="DejaVuSans-72" d="M 2631 2963 
Q 2534 3019 2420 3045 
Q 2306 3072 2169 3072 
Q 1681 3072 1420 2755 
Q 1159 2438 1159 1844 
L 1159 0 
L 581 0 
L 581 3500 
L 1159 3500 
L 1159 2956 
Q 1341 3275 1631 3429 
Q 1922 3584 2338 3584 
Q 2397 3584 2469 3576 
Q 2541 3569 2628 3553 
L 2631 2963 
z
" transform="scale(0.015625)"/>
      </defs>
      <use xlink:href="#DejaVuSans-43"/>
      <use xlink:href="#DejaVuSans-6c" x="69.824219"/>
      <use xlink:href="#DejaVuSans-61" x="97.607422"/>
      <use xlink:href="#DejaVuSans-46" x="158.886719"/>
      <use xlink:href="#DejaVuSans-72" x="209.15625"/>
      <use xlink:href="#DejaVuSans-65" x="248.019531"/>
      <use xlink:href="#DejaVuSans-71" x="309.542969"/>
     </g>
    </g>
    <g id="PathCollection_17">
     <defs>
      <path id="m7376b8527a" d="M -2.12132 -2.12132 
L -2.12132 2.12132 
L 2.12132 2.12132 
L 2.12132 -2.12132 
z
" style="stroke: #333333"/>
     </defs>
     <g>
      <use xlink:href="#m7376b8527a" x="175.784531" y="304.335312" style="fill: #333333; stroke: #333333"/>
     </g>
    </g>
    <g id="text_27">
     <!-- LabLen -->
     <g transform="translate(193.784531 306.960312) scale(0.1 -0.1)">
      <defs>
       <path id="DejaVuSans-4c" d="M 628 4666 
L 1259 4666 
L 1259 531 
L 3531 531 
L 3531 0 
L 628 0 
L 628 4666 
z
" transform="scale(0.015625)"/>
       <path id="DejaVuSans-62" d="M 3116 1747 
Q 3116 2381 2855 2742 
Q 2594 3103 2138 3103 
Q 1681 3103 1420 2742 
Q 1159 2381 1159 1747 
Q 1159 1113 1420 752 
Q 1681 391 2138 391 
Q 2594 391 2855 752 
Q 3116 1113 3116 1747 
z
M 1159 2969 
Q 1341 3281 1617 3432 
Q 1894 3584 2278 3584 
Q 2916 3584 3314 3078 
Q 3713 2572 3713 1747 
Q 3713 922 3314 415 
Q 2916 -91 2278 -91 
Q 1894 -91 1617 61 
Q 1341 213 1159 525 
L 1159 0 
L 581 0 
L 581 4863 
L 1159 4863 
L 1159 2969 
z
" transform="scale(0.015625)"/>
      </defs>
      <use xlink:href="#DejaVuSans-4c"/>
      <use xlink:href="#DejaVuSans-61" x="55.712891"/>
      <use xlink:href="#DejaVuSans-62" x="116.992188"/>
      <use xlink:href="#DejaVuSans-4c" x="180.46875"/>
      <use xlink:href="#DejaVuSans-65" x="234.431641"/>
      <use xlink:href="#DejaVuSans-6e" x="295.955078"/>
     </g>
    </g>
   </g>
  </g>
 </g>
 <defs>
  <clipPath id="p3889ce7862">
   <rect x="47.855" y="10.8" width="301.345" height="307.24"/>
  </clipPath>
 </defs>
</svg>
