<?xml version="1.0" encoding="utf-8" standalone="no"?>
<!DOCTYPE svg PUBLIC "-//W3C//DTD SVG 1.1//EN"
  "http://www.w3.org/Graphics/SVG/1.1/DTD/svg11.dtd">
<svg xmlns:xlink="http://www.w3.org/1999/xlink" width="460.8pt" height="345.6pt" viewBox="0 0 460.8 345.6" xmlns="http://www.w3.org/2000/svg" version="1.1">
 <metadata>
  <rdf:RDF xmlns:dc="http://purl.org/dc/elements/1.1/" xmlns:cc="http://creativecommons.org/ns#" xmlns:rdf="http://www.w3.org/1999/02/22-rdf-syntax-ns#">
   <cc:Work>
    <dc:type rdf:resource="http://purl.org/dc/dcmitype/StillImage"/>
    <dc:date>2023-02-02T18:30:01.733465</dc:date>
    <dc:format>image/svg+xml</dc:format>
    <dc:creator>
     <cc:Agent>
      <dc:title>Matplotlib v3.6.2, https://matplotlib.org/</dc:title>
     </cc:Agent>
    </dc:creator>
   </cc:Work>
  </rdf:RDF>
 </metadata>
 <defs>
  <style type="text/css">*{stroke-linejoin: round; stroke-linecap: butt}</style>
 </defs>
 <g id="figure_1">
  <g id="patch_1">
   <path d="M 0 345.6 
L 460.8 345.6 
L 460.8 0 
L 0 0 
z
" style="fill: #ffffff"/>
  </g>
  <g id="axes_1">
   <g id="patch_2">
    <path d="M 57.6 307.584 
L 414.72 307.584 
L 414.72 41.472 
L 57.6 41.472 
z
" style="fill: #ffffff"/>
   </g>
   <g id="PathCollection_1">
    <path d="M 73.832727 236.457231 
C 74.628337 236.457231 75.391467 236.141132 75.954048 235.578551 
C 76.516628 235.01597 76.832727 234.25284 76.832727 233.457231 
C 76.832727 232.661621 76.516628 231.898491 75.954048 231.33591 
C 75.391467 230.77333 74.628337 230.457231 73.832727 230.457231 
C 73.037118 230.457231 72.273988 230.77333 71.711407 231.33591 
C 71.148826 231.898491 70.832727 232.661621 70.832727 233.457231 
C 70.832727 234.25284 71.148826 235.01597 71.711407 235.578551 
C 72.273988 236.141132 73.037118 236.457231 73.832727 236.457231 
z
" clip-path="url(#p343a279cb2)" style="fill: #1f77b4; stroke: #ffffff; stroke-width: 0.48"/>
    <path d="M 73.832727 236.457231 
C 74.628337 236.457231 75.391467 236.141132 75.954048 235.578551 
C 76.516628 235.01597 76.832727 234.25284 76.832727 233.457231 
C 76.832727 232.661621 76.516628 231.898491 75.954048 231.33591 
C 75.391467 230.77333 74.628337 230.457231 73.832727 230.457231 
C 73.037118 230.457231 72.273988 230.77333 71.711407 231.33591 
C 71.148826 231.898491 70.832727 232.661621 70.832727 233.457231 
C 70.832727 234.25284 71.148826 235.01597 71.711407 235.578551 
C 72.273988 236.141132 73.037118 236.457231 73.832727 236.457231 
z
" clip-path="url(#p343a279cb2)" style="fill: #ff7f0e; stroke: #ffffff; stroke-width: 0.48"/>
    <path d="M 73.832727 236.457231 
C 74.628337 236.457231 75.391467 236.141132 75.954048 235.578551 
C 76.516628 235.01597 76.832727 234.25284 76.832727 233.457231 
C 76.832727 232.661621 76.516628 231.898491 75.954048 231.33591 
C 75.391467 230.77333 74.628337 230.457231 73.832727 230.457231 
C 73.037118 230.457231 72.273988 230.77333 71.711407 231.33591 
C 71.148826 231.898491 70.832727 232.661621 70.832727 233.457231 
C 70.832727 234.25284 71.148826 235.01597 71.711407 235.578551 
C 72.273988 236.141132 73.037118 236.457231 73.832727 236.457231 
z
" clip-path="url(#p343a279cb2)" style="fill: #2ca02c; stroke: #ffffff; stroke-width: 0.48"/>
    <path d="M 73.832727 236.457231 
C 74.628337 236.457231 75.391467 236.141132 75.954048 235.578551 
C 76.516628 235.01597 76.832727 234.25284 76.832727 233.457231 
C 76.832727 232.661621 76.516628 231.898491 75.954048 231.33591 
C 75.391467 230.77333 74.628337 230.457231 73.832727 230.457231 
C 73.037118 230.457231 72.273988 230.77333 71.711407 231.33591 
C 71.148826 231.898491 70.832727 232.661621 70.832727 233.457231 
C 70.832727 234.25284 71.148826 235.01597 71.711407 235.578551 
C 72.273988 236.141132 73.037118 236.457231 73.832727 236.457231 
z
" clip-path="url(#p343a279cb2)" style="fill: #d62728; stroke: #ffffff; stroke-width: 0.48"/>
    <path d="M 93.50876 236.457231 
C 94.30437 236.457231 95.0675 236.141132 95.630081 235.578551 
C 96.192661 235.01597 96.50876 234.25284 96.50876 233.457231 
C 96.50876 232.661621 96.192661 231.898491 95.630081 231.33591 
C 95.0675 230.77333 94.30437 230.457231 93.50876 230.457231 
C 92.713151 230.457231 91.950021 230.77333 91.38744 231.33591 
C 90.824859 231.898491 90.50876 232.661621 90.50876 233.457231 
C 90.50876 234.25284 90.824859 235.01597 91.38744 235.578551 
C 91.950021 236.141132 92.713151 236.457231 93.50876 236.457231 
z
" clip-path="url(#p343a279cb2)" style="fill: #9467bd; stroke: #ffffff; stroke-width: 0.48"/>
    <path d="M 72.332727 112.395692 
L 73.832727 110.895692 
L 75.332727 112.395692 
L 76.832727 110.895692 
L 75.332727 109.395692 
L 76.832727 107.895692 
L 75.332727 106.395692 
L 73.832727 107.895692 
L 72.332727 106.395692 
L 70.832727 107.895692 
L 72.332727 109.395692 
L 70.832727 110.895692 
z
" clip-path="url(#p343a279cb2)" style="fill: #1f77b4; stroke: #ffffff; stroke-width: 0.48"/>
    <path d="M 72.332727 112.395692 
L 73.832727 110.895692 
L 75.332727 112.395692 
L 76.832727 110.895692 
L 75.332727 109.395692 
L 76.832727 107.895692 
L 75.332727 106.395692 
L 73.832727 107.895692 
L 72.332727 106.395692 
L 70.832727 107.895692 
L 72.332727 109.395692 
L 70.832727 110.895692 
z
" clip-path="url(#p343a279cb2)" style="fill: #ff7f0e; stroke: #ffffff; stroke-width: 0.48"/>
    <path d="M 72.332727 112.395692 
L 73.832727 110.895692 
L 75.332727 112.395692 
L 76.832727 110.895692 
L 75.332727 109.395692 
L 76.832727 107.895692 
L 75.332727 106.395692 
L 73.832727 107.895692 
L 72.332727 106.395692 
L 70.832727 107.895692 
L 72.332727 109.395692 
L 70.832727 110.895692 
z
" clip-path="url(#p343a279cb2)" style="fill: #2ca02c; stroke: #ffffff; stroke-width: 0.48"/>
    <path d="M 72.332727 112.395692 
L 73.832727 110.895692 
L 75.332727 112.395692 
L 76.832727 110.895692 
L 75.332727 109.395692 
L 76.832727 107.895692 
L 75.332727 106.395692 
L 73.832727 107.895692 
L 72.332727 106.395692 
L 70.832727 107.895692 
L 72.332727 109.395692 
L 70.832727 110.895692 
z
" clip-path="url(#p343a279cb2)" style="fill: #d62728; stroke: #ffffff; stroke-width: 0.48"/>
    <path d="M 92.00876 112.395692 
L 93.50876 110.895692 
L 95.00876 112.395692 
L 96.50876 110.895692 
L 95.00876 109.395692 
L 96.50876 107.895692 
L 95.00876 106.395692 
L 93.50876 107.895692 
L 92.00876 106.395692 
L 90.50876 107.895692 
L 92.00876 109.395692 
L 90.50876 110.895692 
z
" clip-path="url(#p343a279cb2)" style="fill: #9467bd; stroke: #ffffff; stroke-width: 0.48"/>
    <path d="M 71.711407 82.462064 
L 71.711407 86.704705 
L 75.954048 86.704705 
L 75.954048 82.462064 
z
" clip-path="url(#p343a279cb2)" style="fill: #1f77b4; stroke: #ffffff; stroke-width: 0.48"/>
    <path d="M 71.711407 82.462064 
L 71.711407 86.704705 
L 75.954048 86.704705 
L 75.954048 82.462064 
z
" clip-path="url(#p343a279cb2)" style="fill: #ff7f0e; stroke: #ffffff; stroke-width: 0.48"/>
    <path d="M 71.711407 82.462064 
L 71.711407 86.704705 
L 75.954048 86.704705 
L 75.954048 82.462064 
z
" clip-path="url(#p343a279cb2)" style="fill: #2ca02c; stroke: #ffffff; stroke-width: 0.48"/>
    <path d="M 71.711407 82.462064 
L 71.711407 86.704705 
L 75.954048 86.704705 
L 75.954048 82.462064 
z
" clip-path="url(#p343a279cb2)" style="fill: #d62728; stroke: #ffffff; stroke-width: 0.48"/>
    <path d="M 91.38744 82.462064 
L 91.38744 86.704705 
L 95.630081 86.704705 
L 95.630081 82.462064 
z
" clip-path="url(#p343a279cb2)" style="fill: #9467bd; stroke: #ffffff; stroke-width: 0.48"/>
    <path d="M 73.832727 149.614154 
C 74.628337 149.614154 75.391467 149.298055 75.954048 148.735474 
C 76.516628 148.172893 76.832727 147.409763 76.832727 146.614154 
C 76.832727 145.818545 76.516628 145.055414 75.954048 144.492834 
C 75.391467 143.930253 74.628337 143.614154 73.832727 143.614154 
C 73.037118 143.614154 72.273988 143.930253 71.711407 144.492834 
C 71.148826 145.055414 70.832727 145.818545 70.832727 146.614154 
C 70.832727 147.409763 71.148826 148.172893 71.711407 148.735474 
C 72.273988 149.298055 73.037118 149.614154 73.832727 149.614154 
z
" clip-path="url(#p343a279cb2)" style="fill: #1f77b4; stroke: #ffffff; stroke-width: 0.48"/>
    <path d="M 73.832727 149.614154 
C 74.628337 149.614154 75.391467 149.298055 75.954048 148.735474 
C 76.516628 148.172893 76.832727 147.409763 76.832727 146.614154 
C 76.832727 145.818545 76.516628 145.055414 75.954048 144.492834 
C 75.391467 143.930253 74.628337 143.614154 73.832727 143.614154 
C 73.037118 143.614154 72.273988 143.930253 71.711407 144.492834 
C 71.148826 145.055414 70.832727 145.818545 70.832727 146.614154 
C 70.832727 147.409763 71.148826 148.172893 71.711407 148.735474 
C 72.273988 149.298055 73.037118 149.614154 73.832727 149.614154 
z
" clip-path="url(#p343a279cb2)" style="fill: #ff7f0e; stroke: #ffffff; stroke-width: 0.48"/>
    <path d="M 73.832727 149.614154 
C 74.628337 149.614154 75.391467 149.298055 75.954048 148.735474 
C 76.516628 148.172893 76.832727 147.409763 76.832727 146.614154 
C 76.832727 145.818545 76.516628 145.055414 75.954048 144.492834 
C 75.391467 143.930253 74.628337 143.614154 73.832727 143.614154 
C 73.037118 143.614154 72.273988 143.930253 71.711407 144.492834 
C 71.148826 145.055414 70.832727 145.818545 70.832727 146.614154 
C 70.832727 147.409763 71.148826 148.172893 71.711407 148.735474 
C 72.273988 149.298055 73.037118 149.614154 73.832727 149.614154 
z
" clip-path="url(#p343a279cb2)" style="fill: #2ca02c; stroke: #ffffff; stroke-width: 0.48"/>
    <path d="M 73.832727 149.614154 
C 74.628337 149.614154 75.391467 149.298055 75.954048 148.735474 
C 76.516628 148.172893 76.832727 147.409763 76.832727 146.614154 
C 76.832727 145.818545 76.516628 145.055414 75.954048 144.492834 
C 75.391467 143.930253 74.628337 143.614154 73.832727 143.614154 
C 73.037118 143.614154 72.273988 143.930253 71.711407 144.492834 
C 71.148826 145.055414 70.832727 145.818545 70.832727 146.614154 
C 70.832727 147.409763 71.148826 148.172893 71.711407 148.735474 
C 72.273988 149.298055 73.037118 149.614154 73.832727 149.614154 
z
" clip-path="url(#p343a279cb2)" style="fill: #d62728; stroke: #ffffff; stroke-width: 0.48"/>
    <path d="M 152.53686 149.614154 
C 153.332469 149.614154 154.095599 149.298055 154.65818 148.735474 
C 155.220761 148.172893 155.53686 147.409763 155.53686 146.614154 
C 155.53686 145.818545 155.220761 145.055414 154.65818 144.492834 
C 154.095599 143.930253 153.332469 143.614154 152.53686 143.614154 
C 151.74125 143.614154 150.97812 143.930253 150.415539 144.492834 
C 149.852958 145.055414 149.53686 145.818545 149.53686 146.614154 
C 149.53686 147.409763 149.852958 148.172893 150.415539 148.735474 
C 150.97812 149.298055 151.74125 149.614154 152.53686 149.614154 
z
" clip-path="url(#p343a279cb2)" style="fill: #9467bd; stroke: #ffffff; stroke-width: 0.48"/>
    <path d="M 72.332727 224.051077 
L 73.832727 222.551077 
L 75.332727 224.051077 
L 76.832727 222.551077 
L 75.332727 221.051077 
L 76.832727 219.551077 
L 75.332727 218.051077 
L 73.832727 219.551077 
L 72.332727 218.051077 
L 70.832727 219.551077 
L 72.332727 221.051077 
L 70.832727 222.551077 
z
" clip-path="url(#p343a279cb2)" style="fill: #1f77b4; stroke: #ffffff; stroke-width: 0.48"/>
    <path d="M 72.332727 224.051077 
L 73.832727 222.551077 
L 75.332727 224.051077 
L 76.832727 222.551077 
L 75.332727 221.051077 
L 76.832727 219.551077 
L 75.332727 218.051077 
L 73.832727 219.551077 
L 72.332727 218.051077 
L 70.832727 219.551077 
L 72.332727 221.051077 
L 70.832727 222.551077 
z
" clip-path="url(#p343a279cb2)" style="fill: #ff7f0e; stroke: #ffffff; stroke-width: 0.48"/>
    <path d="M 72.332727 224.051077 
L 73.832727 222.551077 
L 75.332727 224.051077 
L 76.832727 222.551077 
L 75.332727 221.051077 
L 76.832727 219.551077 
L 75.332727 218.051077 
L 73.832727 219.551077 
L 72.332727 218.051077 
L 70.832727 219.551077 
L 72.332727 221.051077 
L 70.832727 222.551077 
z
" clip-path="url(#p343a279cb2)" style="fill: #2ca02c; stroke: #ffffff; stroke-width: 0.48"/>
    <path d="M 72.332727 224.051077 
L 73.832727 222.551077 
L 75.332727 224.051077 
L 76.832727 222.551077 
L 75.332727 221.051077 
L 76.832727 219.551077 
L 75.332727 218.051077 
L 73.832727 219.551077 
L 72.332727 218.051077 
L 70.832727 219.551077 
L 72.332727 221.051077 
L 70.832727 222.551077 
z
" clip-path="url(#p343a279cb2)" style="fill: #d62728; stroke: #ffffff; stroke-width: 0.48"/>
    <path d="M 151.03686 224.051077 
L 152.53686 222.551077 
L 154.03686 224.051077 
L 155.53686 222.551077 
L 154.03686 221.051077 
L 155.53686 219.551077 
L 154.03686 218.051077 
L 152.53686 219.551077 
L 151.03686 218.051077 
L 149.53686 219.551077 
L 151.03686 221.051077 
L 149.53686 222.551077 
z
" clip-path="url(#p343a279cb2)" style="fill: #9467bd; stroke: #ffffff; stroke-width: 0.48"/>
    <path d="M 71.711407 51.44668 
L 71.711407 55.68932 
L 75.954048 55.68932 
L 75.954048 51.44668 
z
" clip-path="url(#p343a279cb2)" style="fill: #1f77b4; stroke: #ffffff; stroke-width: 0.48"/>
    <path d="M 71.711407 51.44668 
L 71.711407 55.68932 
L 75.954048 55.68932 
L 75.954048 51.44668 
z
" clip-path="url(#p343a279cb2)" style="fill: #ff7f0e; stroke: #ffffff; stroke-width: 0.48"/>
    <path d="M 71.711407 51.44668 
L 71.711407 55.68932 
L 75.954048 55.68932 
L 75.954048 51.44668 
z
" clip-path="url(#p343a279cb2)" style="fill: #2ca02c; stroke: #ffffff; stroke-width: 0.48"/>
    <path d="M 71.711407 51.44668 
L 71.711407 55.68932 
L 75.954048 55.68932 
L 75.954048 51.44668 
z
" clip-path="url(#p343a279cb2)" style="fill: #d62728; stroke: #ffffff; stroke-width: 0.48"/>
    <path d="M 150.415539 51.44668 
L 150.415539 55.68932 
L 154.65818 55.68932 
L 154.65818 51.44668 
z
" clip-path="url(#p343a279cb2)" style="fill: #9467bd; stroke: #ffffff; stroke-width: 0.48"/>
    <path d="M 73.832727 298.488 
C 74.628337 298.488 75.391467 298.171901 75.954048 297.60932 
C 76.516628 297.04674 76.832727 296.283609 76.832727 295.488 
C 76.832727 294.692391 76.516628 293.92926 75.954048 293.36668 
C 75.391467 292.804099 74.628337 292.488 73.832727 292.488 
C 73.037118 292.488 72.273988 292.804099 71.711407 293.36668 
C 71.148826 293.92926 70.832727 294.692391 70.832727 295.488 
C 70.832727 296.283609 71.148826 297.04674 71.711407 297.60932 
C 72.273988 298.171901 73.037118 298.488 73.832727 298.488 
z
" clip-path="url(#p343a279cb2)" style="fill: #1f77b4; stroke: #ffffff; stroke-width: 0.48"/>
    <path d="M 73.832727 298.488 
C 74.628337 298.488 75.391467 298.171901 75.954048 297.60932 
C 76.516628 297.04674 76.832727 296.283609 76.832727 295.488 
C 76.832727 294.692391 76.516628 293.92926 75.954048 293.36668 
C 75.391467 292.804099 74.628337 292.488 73.832727 292.488 
C 73.037118 292.488 72.273988 292.804099 71.711407 293.36668 
C 71.148826 293.92926 70.832727 294.692391 70.832727 295.488 
C 70.832727 296.283609 71.148826 297.04674 71.711407 297.60932 
C 72.273988 298.171901 73.037118 298.488 73.832727 298.488 
z
" clip-path="url(#p343a279cb2)" style="fill: #ff7f0e; stroke: #ffffff; stroke-width: 0.48"/>
    <path d="M 73.832727 298.488 
C 74.628337 298.488 75.391467 298.171901 75.954048 297.60932 
C 76.516628 297.04674 76.832727 296.283609 76.832727 295.488 
C 76.832727 294.692391 76.516628 293.92926 75.954048 293.36668 
C 75.391467 292.804099 74.628337 292.488 73.832727 292.488 
C 73.037118 292.488 72.273988 292.804099 71.711407 293.36668 
C 71.148826 293.92926 70.832727 294.692391 70.832727 295.488 
C 70.832727 296.283609 71.148826 297.04674 71.711407 297.60932 
C 72.273988 298.171901 73.037118 298.488 73.832727 298.488 
z
" clip-path="url(#p343a279cb2)" style="fill: #2ca02c; stroke: #ffffff; stroke-width: 0.48"/>
    <path d="M 73.832727 298.488 
C 74.628337 298.488 75.391467 298.171901 75.954048 297.60932 
C 76.516628 297.04674 76.832727 296.283609 76.832727 295.488 
C 76.832727 294.692391 76.516628 293.92926 75.954048 293.36668 
C 75.391467 292.804099 74.628337 292.488 73.832727 292.488 
C 73.037118 292.488 72.273988 292.804099 71.711407 293.36668 
C 71.148826 293.92926 70.832727 294.692391 70.832727 295.488 
C 70.832727 296.283609 71.148826 297.04674 71.711407 297.60932 
C 72.273988 298.171901 73.037118 298.488 73.832727 298.488 
z
" clip-path="url(#p343a279cb2)" style="fill: #d62728; stroke: #ffffff; stroke-width: 0.48"/>
    <path d="M 290.269091 298.488 
C 291.0647 298.488 291.827831 298.171901 292.390411 297.60932 
C 292.952992 297.04674 293.269091 296.283609 293.269091 295.488 
C 293.269091 294.692391 292.952992 293.92926 292.390411 293.36668 
C 291.827831 292.804099 291.0647 292.488 290.269091 292.488 
C 289.473482 292.488 288.710351 292.804099 288.147771 293.36668 
C 287.58519 293.92926 287.269091 294.692391 287.269091 295.488 
C 287.269091 296.283609 287.58519 297.04674 288.147771 297.60932 
C 288.710351 298.171901 289.473482 298.488 290.269091 298.488 
z
" clip-path="url(#p343a279cb2)" style="fill: #9467bd; stroke: #ffffff; stroke-width: 0.48"/>
    <path d="M 72.332727 168.223385 
L 73.832727 166.723385 
L 75.332727 168.223385 
L 76.832727 166.723385 
L 75.332727 165.223385 
L 76.832727 163.723385 
L 75.332727 162.223385 
L 73.832727 163.723385 
L 72.332727 162.223385 
L 70.832727 163.723385 
L 72.332727 165.223385 
L 70.832727 166.723385 
z
" clip-path="url(#p343a279cb2)" style="fill: #1f77b4; stroke: #ffffff; stroke-width: 0.48"/>
    <path d="M 72.332727 168.223385 
L 73.832727 166.723385 
L 75.332727 168.223385 
L 76.832727 166.723385 
L 75.332727 165.223385 
L 76.832727 163.723385 
L 75.332727 162.223385 
L 73.832727 163.723385 
L 72.332727 162.223385 
L 70.832727 163.723385 
L 72.332727 165.223385 
L 70.832727 166.723385 
z
" clip-path="url(#p343a279cb2)" style="fill: #ff7f0e; stroke: #ffffff; stroke-width: 0.48"/>
    <path d="M 72.332727 168.223385 
L 73.832727 166.723385 
L 75.332727 168.223385 
L 76.832727 166.723385 
L 75.332727 165.223385 
L 76.832727 163.723385 
L 75.332727 162.223385 
L 73.832727 163.723385 
L 72.332727 162.223385 
L 70.832727 163.723385 
L 72.332727 165.223385 
L 70.832727 166.723385 
z
" clip-path="url(#p343a279cb2)" style="fill: #2ca02c; stroke: #ffffff; stroke-width: 0.48"/>
    <path d="M 72.332727 168.223385 
L 73.832727 166.723385 
L 75.332727 168.223385 
L 76.832727 166.723385 
L 75.332727 165.223385 
L 76.832727 163.723385 
L 75.332727 162.223385 
L 73.832727 163.723385 
L 72.332727 162.223385 
L 70.832727 163.723385 
L 72.332727 165.223385 
L 70.832727 166.723385 
z
" clip-path="url(#p343a279cb2)" style="fill: #d62728; stroke: #ffffff; stroke-width: 0.48"/>
    <path d="M 288.769091 168.223385 
L 290.269091 166.723385 
L 291.769091 168.223385 
L 293.269091 166.723385 
L 291.769091 165.223385 
L 293.269091 163.723385 
L 291.769091 162.223385 
L 290.269091 163.723385 
L 288.769091 162.223385 
L 287.269091 163.723385 
L 288.769091 165.223385 
L 287.269091 166.723385 
z
" clip-path="url(#p343a279cb2)" style="fill: #9467bd; stroke: #ffffff; stroke-width: 0.48"/>
    <path d="M 71.711407 293.36668 
L 71.711407 297.60932 
L 75.954048 297.60932 
L 75.954048 293.36668 
z
" clip-path="url(#p343a279cb2)" style="fill: #1f77b4; stroke: #ffffff; stroke-width: 0.48"/>
    <path d="M 71.711407 293.36668 
L 71.711407 297.60932 
L 75.954048 297.60932 
L 75.954048 293.36668 
z
" clip-path="url(#p343a279cb2)" style="fill: #ff7f0e; stroke: #ffffff; stroke-width: 0.48"/>
    <path d="M 71.711407 293.36668 
L 71.711407 297.60932 
L 75.954048 297.60932 
L 75.954048 293.36668 
z
" clip-path="url(#p343a279cb2)" style="fill: #2ca02c; stroke: #ffffff; stroke-width: 0.48"/>
    <path d="M 71.711407 293.36668 
L 71.711407 297.60932 
L 75.954048 297.60932 
L 75.954048 293.36668 
z
" clip-path="url(#p343a279cb2)" style="fill: #d62728; stroke: #ffffff; stroke-width: 0.48"/>
    <path d="M 288.147771 293.36668 
L 288.147771 297.60932 
L 292.390411 297.60932 
L 292.390411 293.36668 
z
" clip-path="url(#p343a279cb2)" style="fill: #9467bd; stroke: #ffffff; stroke-width: 0.48"/>
    <path d="M 73.832727 205.441846 
C 74.628337 205.441846 75.391467 205.125747 75.954048 204.563166 
C 76.516628 204.000586 76.832727 203.237455 76.832727 202.441846 
C 76.832727 201.646237 76.516628 200.883107 75.954048 200.320526 
C 75.391467 199.757945 74.628337 199.441846 73.832727 199.441846 
C 73.037118 199.441846 72.273988 199.757945 71.711407 200.320526 
C 71.148826 200.883107 70.832727 201.646237 70.832727 202.441846 
C 70.832727 203.237455 71.148826 204.000586 71.711407 204.563166 
C 72.273988 205.125747 73.037118 205.441846 73.832727 205.441846 
z
" clip-path="url(#p343a279cb2)" style="fill: #1f77b4; stroke: #ffffff; stroke-width: 0.48"/>
    <path d="M 73.832727 205.441846 
C 74.628337 205.441846 75.391467 205.125747 75.954048 204.563166 
C 76.516628 204.000586 76.832727 203.237455 76.832727 202.441846 
C 76.832727 201.646237 76.516628 200.883107 75.954048 200.320526 
C 75.391467 199.757945 74.628337 199.441846 73.832727 199.441846 
C 73.037118 199.441846 72.273988 199.757945 71.711407 200.320526 
C 71.148826 200.883107 70.832727 201.646237 70.832727 202.441846 
C 70.832727 203.237455 71.148826 204.000586 71.711407 204.563166 
C 72.273988 205.125747 73.037118 205.441846 73.832727 205.441846 
z
" clip-path="url(#p343a279cb2)" style="fill: #ff7f0e; stroke: #ffffff; stroke-width: 0.48"/>
    <path d="M 73.832727 205.441846 
C 74.628337 205.441846 75.391467 205.125747 75.954048 204.563166 
C 76.516628 204.000586 76.832727 203.237455 76.832727 202.441846 
C 76.832727 201.646237 76.516628 200.883107 75.954048 200.320526 
C 75.391467 199.757945 74.628337 199.441846 73.832727 199.441846 
C 73.037118 199.441846 72.273988 199.757945 71.711407 200.320526 
C 71.148826 200.883107 70.832727 201.646237 70.832727 202.441846 
C 70.832727 203.237455 71.148826 204.000586 71.711407 204.563166 
C 72.273988 205.125747 73.037118 205.441846 73.832727 205.441846 
z
" clip-path="url(#p343a279cb2)" style="fill: #2ca02c; stroke: #ffffff; stroke-width: 0.48"/>
    <path d="M 73.832727 205.441846 
C 74.628337 205.441846 75.391467 205.125747 75.954048 204.563166 
C 76.516628 204.000586 76.832727 203.237455 76.832727 202.441846 
C 76.832727 201.646237 76.516628 200.883107 75.954048 200.320526 
C 75.391467 199.757945 74.628337 199.441846 73.832727 199.441846 
C 73.037118 199.441846 72.273988 199.757945 71.711407 200.320526 
C 71.148826 200.883107 70.832727 201.646237 70.832727 202.441846 
C 70.832727 203.237455 71.148826 204.000586 71.711407 204.563166 
C 72.273988 205.125747 73.037118 205.441846 73.832727 205.441846 
z
" clip-path="url(#p343a279cb2)" style="fill: #d62728; stroke: #ffffff; stroke-width: 0.48"/>
    <path d="M 162.374876 205.441846 
C 163.170485 205.441846 163.933616 205.125747 164.496196 204.563166 
C 165.058777 204.000586 165.374876 203.237455 165.374876 202.441846 
C 165.374876 201.646237 165.058777 200.883107 164.496196 200.320526 
C 163.933616 199.757945 163.170485 199.441846 162.374876 199.441846 
C 161.579267 199.441846 160.816136 199.757945 160.253556 200.320526 
C 159.690975 200.883107 159.374876 201.646237 159.374876 202.441846 
C 159.374876 203.237455 159.690975 204.000586 160.253556 204.563166 
C 160.816136 205.125747 161.579267 205.441846 162.374876 205.441846 
z
" clip-path="url(#p343a279cb2)" style="fill: #9467bd; stroke: #ffffff; stroke-width: 0.48"/>
    <path d="M 72.332727 149.614154 
L 73.832727 148.114154 
L 75.332727 149.614154 
L 76.832727 148.114154 
L 75.332727 146.614154 
L 76.832727 145.114154 
L 75.332727 143.614154 
L 73.832727 145.114154 
L 72.332727 143.614154 
L 70.832727 145.114154 
L 72.332727 146.614154 
L 70.832727 148.114154 
z
" clip-path="url(#p343a279cb2)" style="fill: #1f77b4; stroke: #ffffff; stroke-width: 0.48"/>
    <path d="M 72.332727 149.614154 
L 73.832727 148.114154 
L 75.332727 149.614154 
L 76.832727 148.114154 
L 75.332727 146.614154 
L 76.832727 145.114154 
L 75.332727 143.614154 
L 73.832727 145.114154 
L 72.332727 143.614154 
L 70.832727 145.114154 
L 72.332727 146.614154 
L 70.832727 148.114154 
z
" clip-path="url(#p343a279cb2)" style="fill: #ff7f0e; stroke: #ffffff; stroke-width: 0.48"/>
    <path d="M 72.332727 149.614154 
L 73.832727 148.114154 
L 75.332727 149.614154 
L 76.832727 148.114154 
L 75.332727 146.614154 
L 76.832727 145.114154 
L 75.332727 143.614154 
L 73.832727 145.114154 
L 72.332727 143.614154 
L 70.832727 145.114154 
L 72.332727 146.614154 
L 70.832727 148.114154 
z
" clip-path="url(#p343a279cb2)" style="fill: #2ca02c; stroke: #ffffff; stroke-width: 0.48"/>
    <path d="M 72.332727 149.614154 
L 73.832727 148.114154 
L 75.332727 149.614154 
L 76.832727 148.114154 
L 75.332727 146.614154 
L 76.832727 145.114154 
L 75.332727 143.614154 
L 73.832727 145.114154 
L 72.332727 143.614154 
L 70.832727 145.114154 
L 72.332727 146.614154 
L 70.832727 148.114154 
z
" clip-path="url(#p343a279cb2)" style="fill: #d62728; stroke: #ffffff; stroke-width: 0.48"/>
    <path d="M 160.874876 149.614154 
L 162.374876 148.114154 
L 163.874876 149.614154 
L 165.374876 148.114154 
L 163.874876 146.614154 
L 165.374876 145.114154 
L 163.874876 143.614154 
L 162.374876 145.114154 
L 160.874876 143.614154 
L 159.374876 145.114154 
L 160.874876 146.614154 
L 159.374876 148.114154 
z
" clip-path="url(#p343a279cb2)" style="fill: #9467bd; stroke: #ffffff; stroke-width: 0.48"/>
    <path d="M 71.711407 107.274372 
L 71.711407 111.517013 
L 75.954048 111.517013 
L 75.954048 107.274372 
z
" clip-path="url(#p343a279cb2)" style="fill: #1f77b4; stroke: #ffffff; stroke-width: 0.48"/>
    <path d="M 71.711407 107.274372 
L 71.711407 111.517013 
L 75.954048 111.517013 
L 75.954048 107.274372 
z
" clip-path="url(#p343a279cb2)" style="fill: #ff7f0e; stroke: #ffffff; stroke-width: 0.48"/>
    <path d="M 71.711407 107.274372 
L 71.711407 111.517013 
L 75.954048 111.517013 
L 75.954048 107.274372 
z
" clip-path="url(#p343a279cb2)" style="fill: #2ca02c; stroke: #ffffff; stroke-width: 0.48"/>
    <path d="M 71.711407 107.274372 
L 71.711407 111.517013 
L 75.954048 111.517013 
L 75.954048 107.274372 
z
" clip-path="url(#p343a279cb2)" style="fill: #d62728; stroke: #ffffff; stroke-width: 0.48"/>
    <path d="M 160.253556 107.274372 
L 160.253556 111.517013 
L 164.496196 111.517013 
L 164.496196 107.274372 
z
" clip-path="url(#p343a279cb2)" style="fill: #9467bd; stroke: #ffffff; stroke-width: 0.48"/>
    <path d="M 73.832727 112.395692 
C 74.628337 112.395692 75.391467 112.079593 75.954048 111.517013 
C 76.516628 110.954432 76.832727 110.191302 76.832727 109.395692 
C 76.832727 108.600083 76.516628 107.836953 75.954048 107.274372 
C 75.391467 106.711791 74.628337 106.395692 73.832727 106.395692 
C 73.037118 106.395692 72.273988 106.711791 71.711407 107.274372 
C 71.148826 107.836953 70.832727 108.600083 70.832727 109.395692 
C 70.832727 110.191302 71.148826 110.954432 71.711407 111.517013 
C 72.273988 112.079593 73.037118 112.395692 73.832727 112.395692 
z
" clip-path="url(#p343a279cb2)" style="fill: #1f77b4; stroke: #ffffff; stroke-width: 0.48"/>
    <path d="M 73.832727 112.395692 
C 74.628337 112.395692 75.391467 112.079593 75.954048 111.517013 
C 76.516628 110.954432 76.832727 110.191302 76.832727 109.395692 
C 76.832727 108.600083 76.516628 107.836953 75.954048 107.274372 
C 75.391467 106.711791 74.628337 106.395692 73.832727 106.395692 
C 73.037118 106.395692 72.273988 106.711791 71.711407 107.274372 
C 71.148826 107.836953 70.832727 108.600083 70.832727 109.395692 
C 70.832727 110.191302 71.148826 110.954432 71.711407 111.517013 
C 72.273988 112.079593 73.037118 112.395692 73.832727 112.395692 
z
" clip-path="url(#p343a279cb2)" style="fill: #ff7f0e; stroke: #ffffff; stroke-width: 0.48"/>
    <path d="M 73.832727 112.395692 
C 74.628337 112.395692 75.391467 112.079593 75.954048 111.517013 
C 76.516628 110.954432 76.832727 110.191302 76.832727 109.395692 
C 76.832727 108.600083 76.516628 107.836953 75.954048 107.274372 
C 75.391467 106.711791 74.628337 106.395692 73.832727 106.395692 
C 73.037118 106.395692 72.273988 106.711791 71.711407 107.274372 
C 71.148826 107.836953 70.832727 108.600083 70.832727 109.395692 
C 70.832727 110.191302 71.148826 110.954432 71.711407 111.517013 
C 72.273988 112.079593 73.037118 112.395692 73.832727 112.395692 
z
" clip-path="url(#p343a279cb2)" style="fill: #2ca02c; stroke: #ffffff; stroke-width: 0.48"/>
    <path d="M 73.832727 112.395692 
C 74.628337 112.395692 75.391467 112.079593 75.954048 111.517013 
C 76.516628 110.954432 76.832727 110.191302 76.832727 109.395692 
C 76.832727 108.600083 76.516628 107.836953 75.954048 107.274372 
C 75.391467 106.711791 74.628337 106.395692 73.832727 106.395692 
C 73.037118 106.395692 72.273988 106.711791 71.711407 107.274372 
C 71.148826 107.836953 70.832727 108.600083 70.832727 109.395692 
C 70.832727 110.191302 71.148826 110.954432 71.711407 111.517013 
C 72.273988 112.079593 73.037118 112.395692 73.832727 112.395692 
z
" clip-path="url(#p343a279cb2)" style="fill: #d62728; stroke: #ffffff; stroke-width: 0.48"/>
    <path d="M 103.346777 112.395692 
C 104.142386 112.395692 104.905516 112.079593 105.468097 111.517013 
C 106.030678 110.954432 106.346777 110.191302 106.346777 109.395692 
C 106.346777 108.600083 106.030678 107.836953 105.468097 107.274372 
C 104.905516 106.711791 104.142386 106.395692 103.346777 106.395692 
C 102.551168 106.395692 101.788037 106.711791 101.225457 107.274372 
C 100.662876 107.836953 100.346777 108.600083 100.346777 109.395692 
C 100.346777 110.191302 100.662876 110.954432 101.225457 111.517013 
C 101.788037 112.079593 102.551168 112.395692 103.346777 112.395692 
z
" clip-path="url(#p343a279cb2)" style="fill: #9467bd; stroke: #ffffff; stroke-width: 0.48"/>
    <path d="M 72.332727 279.878769 
L 73.832727 278.378769 
L 75.332727 279.878769 
L 76.832727 278.378769 
L 75.332727 276.878769 
L 76.832727 275.378769 
L 75.332727 273.878769 
L 73.832727 275.378769 
L 72.332727 273.878769 
L 70.832727 275.378769 
L 72.332727 276.878769 
L 70.832727 278.378769 
z
" clip-path="url(#p343a279cb2)" style="fill: #1f77b4; stroke: #ffffff; stroke-width: 0.48"/>
    <path d="M 72.332727 279.878769 
L 73.832727 278.378769 
L 75.332727 279.878769 
L 76.832727 278.378769 
L 75.332727 276.878769 
L 76.832727 275.378769 
L 75.332727 273.878769 
L 73.832727 275.378769 
L 72.332727 273.878769 
L 70.832727 275.378769 
L 72.332727 276.878769 
L 70.832727 278.378769 
z
" clip-path="url(#p343a279cb2)" style="fill: #ff7f0e; stroke: #ffffff; stroke-width: 0.48"/>
    <path d="M 72.332727 279.878769 
L 73.832727 278.378769 
L 75.332727 279.878769 
L 76.832727 278.378769 
L 75.332727 276.878769 
L 76.832727 275.378769 
L 75.332727 273.878769 
L 73.832727 275.378769 
L 72.332727 273.878769 
L 70.832727 275.378769 
L 72.332727 276.878769 
L 70.832727 278.378769 
z
" clip-path="url(#p343a279cb2)" style="fill: #2ca02c; stroke: #ffffff; stroke-width: 0.48"/>
    <path d="M 72.332727 279.878769 
L 73.832727 278.378769 
L 75.332727 279.878769 
L 76.832727 278.378769 
L 75.332727 276.878769 
L 76.832727 275.378769 
L 75.332727 273.878769 
L 73.832727 275.378769 
L 72.332727 273.878769 
L 70.832727 275.378769 
L 72.332727 276.878769 
L 70.832727 278.378769 
z
" clip-path="url(#p343a279cb2)" style="fill: #d62728; stroke: #ffffff; stroke-width: 0.48"/>
    <path d="M 101.846777 279.878769 
L 103.346777 278.378769 
L 104.846777 279.878769 
L 106.346777 278.378769 
L 104.846777 276.878769 
L 106.346777 275.378769 
L 104.846777 273.878769 
L 103.346777 275.378769 
L 101.846777 273.878769 
L 100.346777 275.378769 
L 101.846777 276.878769 
L 100.346777 278.378769 
z
" clip-path="url(#p343a279cb2)" style="fill: #9467bd; stroke: #ffffff; stroke-width: 0.48"/>
    <path d="M 71.711407 144.492834 
L 71.711407 148.735474 
L 75.954048 148.735474 
L 75.954048 144.492834 
z
" clip-path="url(#p343a279cb2)" style="fill: #1f77b4; stroke: #ffffff; stroke-width: 0.48"/>
    <path d="M 71.711407 144.492834 
L 71.711407 148.735474 
L 75.954048 148.735474 
L 75.954048 144.492834 
z
" clip-path="url(#p343a279cb2)" style="fill: #ff7f0e; stroke: #ffffff; stroke-width: 0.48"/>
    <path d="M 71.711407 144.492834 
L 71.711407 148.735474 
L 75.954048 148.735474 
L 75.954048 144.492834 
z
" clip-path="url(#p343a279cb2)" style="fill: #2ca02c; stroke: #ffffff; stroke-width: 0.48"/>
    <path d="M 71.711407 144.492834 
L 71.711407 148.735474 
L 75.954048 148.735474 
L 75.954048 144.492834 
z
" clip-path="url(#p343a279cb2)" style="fill: #d62728; stroke: #ffffff; stroke-width: 0.48"/>
    <path d="M 101.225457 144.492834 
L 101.225457 148.735474 
L 105.468097 148.735474 
L 105.468097 144.492834 
z
" clip-path="url(#p343a279cb2)" style="fill: #9467bd; stroke: #ffffff; stroke-width: 0.48"/>
    <path d="M 73.832727 149.614154 
C 74.628337 149.614154 75.391467 149.298055 75.954048 148.735474 
C 76.516628 148.172893 76.832727 147.409763 76.832727 146.614154 
C 76.832727 145.818545 76.516628 145.055414 75.954048 144.492834 
C 75.391467 143.930253 74.628337 143.614154 73.832727 143.614154 
C 73.037118 143.614154 72.273988 143.930253 71.711407 144.492834 
C 71.148826 145.055414 70.832727 145.818545 70.832727 146.614154 
C 70.832727 147.409763 71.148826 148.172893 71.711407 148.735474 
C 72.273988 149.298055 73.037118 149.614154 73.832727 149.614154 
z
" clip-path="url(#p343a279cb2)" style="fill: #1f77b4; stroke: #ffffff; stroke-width: 0.48"/>
    <path d="M 73.832727 149.614154 
C 74.628337 149.614154 75.391467 149.298055 75.954048 148.735474 
C 76.516628 148.172893 76.832727 147.409763 76.832727 146.614154 
C 76.832727 145.818545 76.516628 145.055414 75.954048 144.492834 
C 75.391467 143.930253 74.628337 143.614154 73.832727 143.614154 
C 73.037118 143.614154 72.273988 143.930253 71.711407 144.492834 
C 71.148826 145.055414 70.832727 145.818545 70.832727 146.614154 
C 70.832727 147.409763 71.148826 148.172893 71.711407 148.735474 
C 72.273988 149.298055 73.037118 149.614154 73.832727 149.614154 
z
" clip-path="url(#p343a279cb2)" style="fill: #ff7f0e; stroke: #ffffff; stroke-width: 0.48"/>
    <path d="M 73.832727 149.614154 
C 74.628337 149.614154 75.391467 149.298055 75.954048 148.735474 
C 76.516628 148.172893 76.832727 147.409763 76.832727 146.614154 
C 76.832727 145.818545 76.516628 145.055414 75.954048 144.492834 
C 75.391467 143.930253 74.628337 143.614154 73.832727 143.614154 
C 73.037118 143.614154 72.273988 143.930253 71.711407 144.492834 
C 71.148826 145.055414 70.832727 145.818545 70.832727 146.614154 
C 70.832727 147.409763 71.148826 148.172893 71.711407 148.735474 
C 72.273988 149.298055 73.037118 149.614154 73.832727 149.614154 
z
" clip-path="url(#p343a279cb2)" style="fill: #2ca02c; stroke: #ffffff; stroke-width: 0.48"/>
    <path d="M 73.832727 149.614154 
C 74.628337 149.614154 75.391467 149.298055 75.954048 148.735474 
C 76.516628 148.172893 76.832727 147.409763 76.832727 146.614154 
C 76.832727 145.818545 76.516628 145.055414 75.954048 144.492834 
C 75.391467 143.930253 74.628337 143.614154 73.832727 143.614154 
C 73.037118 143.614154 72.273988 143.930253 71.711407 144.492834 
C 71.148826 145.055414 70.832727 145.818545 70.832727 146.614154 
C 70.832727 147.409763 71.148826 148.172893 71.711407 148.735474 
C 72.273988 149.298055 73.037118 149.614154 73.832727 149.614154 
z
" clip-path="url(#p343a279cb2)" style="fill: #d62728; stroke: #ffffff; stroke-width: 0.48"/>
    <path d="M 152.53686 149.614154 
C 153.332469 149.614154 154.095599 149.298055 154.65818 148.735474 
C 155.220761 148.172893 155.53686 147.409763 155.53686 146.614154 
C 155.53686 145.818545 155.220761 145.055414 154.65818 144.492834 
C 154.095599 143.930253 153.332469 143.614154 152.53686 143.614154 
C 151.74125 143.614154 150.97812 143.930253 150.415539 144.492834 
C 149.852958 145.055414 149.53686 145.818545 149.53686 146.614154 
C 149.53686 147.409763 149.852958 148.172893 150.415539 148.735474 
C 150.97812 149.298055 151.74125 149.614154 152.53686 149.614154 
z
" clip-path="url(#p343a279cb2)" style="fill: #9467bd; stroke: #ffffff; stroke-width: 0.48"/>
    <path d="M 72.332727 242.660308 
L 73.832727 241.160308 
L 75.332727 242.660308 
L 76.832727 241.160308 
L 75.332727 239.660308 
L 76.832727 238.160308 
L 75.332727 236.660308 
L 73.832727 238.160308 
L 72.332727 236.660308 
L 70.832727 238.160308 
L 72.332727 239.660308 
L 70.832727 241.160308 
z
" clip-path="url(#p343a279cb2)" style="fill: #1f77b4; stroke: #ffffff; stroke-width: 0.48"/>
    <path d="M 72.332727 242.660308 
L 73.832727 241.160308 
L 75.332727 242.660308 
L 76.832727 241.160308 
L 75.332727 239.660308 
L 76.832727 238.160308 
L 75.332727 236.660308 
L 73.832727 238.160308 
L 72.332727 236.660308 
L 70.832727 238.160308 
L 72.332727 239.660308 
L 70.832727 241.160308 
z
" clip-path="url(#p343a279cb2)" style="fill: #ff7f0e; stroke: #ffffff; stroke-width: 0.48"/>
    <path d="M 72.332727 242.660308 
L 73.832727 241.160308 
L 75.332727 242.660308 
L 76.832727 241.160308 
L 75.332727 239.660308 
L 76.832727 238.160308 
L 75.332727 236.660308 
L 73.832727 238.160308 
L 72.332727 236.660308 
L 70.832727 238.160308 
L 72.332727 239.660308 
L 70.832727 241.160308 
z
" clip-path="url(#p343a279cb2)" style="fill: #2ca02c; stroke: #ffffff; stroke-width: 0.48"/>
    <path d="M 72.332727 242.660308 
L 73.832727 241.160308 
L 75.332727 242.660308 
L 76.832727 241.160308 
L 75.332727 239.660308 
L 76.832727 238.160308 
L 75.332727 236.660308 
L 73.832727 238.160308 
L 72.332727 236.660308 
L 70.832727 238.160308 
L 72.332727 239.660308 
L 70.832727 241.160308 
z
" clip-path="url(#p343a279cb2)" style="fill: #d62728; stroke: #ffffff; stroke-width: 0.48"/>
    <path d="M 151.03686 242.660308 
L 152.53686 241.160308 
L 154.03686 242.660308 
L 155.53686 241.160308 
L 154.03686 239.660308 
L 155.53686 238.160308 
L 154.03686 236.660308 
L 152.53686 238.160308 
L 151.03686 236.660308 
L 149.53686 238.160308 
L 151.03686 239.660308 
L 149.53686 241.160308 
z
" clip-path="url(#p343a279cb2)" style="fill: #9467bd; stroke: #ffffff; stroke-width: 0.48"/>
    <path d="M 71.711407 163.102064 
L 71.711407 167.344705 
L 75.954048 167.344705 
L 75.954048 163.102064 
z
" clip-path="url(#p343a279cb2)" style="fill: #1f77b4; stroke: #ffffff; stroke-width: 0.48"/>
    <path d="M 71.711407 163.102064 
L 71.711407 167.344705 
L 75.954048 167.344705 
L 75.954048 163.102064 
z
" clip-path="url(#p343a279cb2)" style="fill: #ff7f0e; stroke: #ffffff; stroke-width: 0.48"/>
    <path d="M 71.711407 163.102064 
L 71.711407 167.344705 
L 75.954048 167.344705 
L 75.954048 163.102064 
z
" clip-path="url(#p343a279cb2)" style="fill: #2ca02c; stroke: #ffffff; stroke-width: 0.48"/>
    <path d="M 71.711407 163.102064 
L 71.711407 167.344705 
L 75.954048 167.344705 
L 75.954048 163.102064 
z
" clip-path="url(#p343a279cb2)" style="fill: #d62728; stroke: #ffffff; stroke-width: 0.48"/>
    <path d="M 150.415539 163.102064 
L 150.415539 167.344705 
L 154.65818 167.344705 
L 154.65818 163.102064 
z
" clip-path="url(#p343a279cb2)" style="fill: #9467bd; stroke: #ffffff; stroke-width: 0.48"/>
    <path d="M 73.832727 205.441846 
C 74.628337 205.441846 75.391467 205.125747 75.954048 204.563166 
C 76.516628 204.000586 76.832727 203.237455 76.832727 202.441846 
C 76.832727 201.646237 76.516628 200.883107 75.954048 200.320526 
C 75.391467 199.757945 74.628337 199.441846 73.832727 199.441846 
C 73.037118 199.441846 72.273988 199.757945 71.711407 200.320526 
C 71.148826 200.883107 70.832727 201.646237 70.832727 202.441846 
C 70.832727 203.237455 71.148826 204.000586 71.711407 204.563166 
C 72.273988 205.125747 73.037118 205.441846 73.832727 205.441846 
z
" clip-path="url(#p343a279cb2)" style="fill: #1f77b4; stroke: #ffffff; stroke-width: 0.48"/>
    <path d="M 73.832727 205.441846 
C 74.628337 205.441846 75.391467 205.125747 75.954048 204.563166 
C 76.516628 204.000586 76.832727 203.237455 76.832727 202.441846 
C 76.832727 201.646237 76.516628 200.883107 75.954048 200.320526 
C 75.391467 199.757945 74.628337 199.441846 73.832727 199.441846 
C 73.037118 199.441846 72.273988 199.757945 71.711407 200.320526 
C 71.148826 200.883107 70.832727 201.646237 70.832727 202.441846 
C 70.832727 203.237455 71.148826 204.000586 71.711407 204.563166 
C 72.273988 205.125747 73.037118 205.441846 73.832727 205.441846 
z
" clip-path="url(#p343a279cb2)" style="fill: #ff7f0e; stroke: #ffffff; stroke-width: 0.48"/>
    <path d="M 73.832727 205.441846 
C 74.628337 205.441846 75.391467 205.125747 75.954048 204.563166 
C 76.516628 204.000586 76.832727 203.237455 76.832727 202.441846 
C 76.832727 201.646237 76.516628 200.883107 75.954048 200.320526 
C 75.391467 199.757945 74.628337 199.441846 73.832727 199.441846 
C 73.037118 199.441846 72.273988 199.757945 71.711407 200.320526 
C 71.148826 200.883107 70.832727 201.646237 70.832727 202.441846 
C 70.832727 203.237455 71.148826 204.000586 71.711407 204.563166 
C 72.273988 205.125747 73.037118 205.441846 73.832727 205.441846 
z
" clip-path="url(#p343a279cb2)" style="fill: #2ca02c; stroke: #ffffff; stroke-width: 0.48"/>
    <path d="M 73.832727 205.441846 
C 74.628337 205.441846 75.391467 205.125747 75.954048 204.563166 
C 76.516628 204.000586 76.832727 203.237455 76.832727 202.441846 
C 76.832727 201.646237 76.516628 200.883107 75.954048 200.320526 
C 75.391467 199.757945 74.628337 199.441846 73.832727 199.441846 
C 73.037118 199.441846 72.273988 199.757945 71.711407 200.320526 
C 71.148826 200.883107 70.832727 201.646237 70.832727 202.441846 
C 70.832727 203.237455 71.148826 204.000586 71.711407 204.563166 
C 72.273988 205.125747 73.037118 205.441846 73.832727 205.441846 
z
" clip-path="url(#p343a279cb2)" style="fill: #d62728; stroke: #ffffff; stroke-width: 0.48"/>
    <path d="M 113.184793 205.441846 
C 113.980403 205.441846 114.743533 205.125747 115.306114 204.563166 
C 115.868694 204.000586 116.184793 203.237455 116.184793 202.441846 
C 116.184793 201.646237 115.868694 200.883107 115.306114 200.320526 
C 114.743533 199.757945 113.980403 199.441846 113.184793 199.441846 
C 112.389184 199.441846 111.626054 199.757945 111.063473 200.320526 
C 110.500892 200.883107 110.184793 201.646237 110.184793 202.441846 
C 110.184793 203.237455 110.500892 204.000586 111.063473 204.563166 
C 111.626054 205.125747 112.389184 205.441846 113.184793 205.441846 
z
" clip-path="url(#p343a279cb2)" style="fill: #9467bd; stroke: #ffffff; stroke-width: 0.48"/>
    <path d="M 72.332727 131.004923 
L 73.832727 129.504923 
L 75.332727 131.004923 
L 76.832727 129.504923 
L 75.332727 128.004923 
L 76.832727 126.504923 
L 75.332727 125.004923 
L 73.832727 126.504923 
L 72.332727 125.004923 
L 70.832727 126.504923 
L 72.332727 128.004923 
L 70.832727 129.504923 
z
" clip-path="url(#p343a279cb2)" style="fill: #1f77b4; stroke: #ffffff; stroke-width: 0.48"/>
    <path d="M 72.332727 131.004923 
L 73.832727 129.504923 
L 75.332727 131.004923 
L 76.832727 129.504923 
L 75.332727 128.004923 
L 76.832727 126.504923 
L 75.332727 125.004923 
L 73.832727 126.504923 
L 72.332727 125.004923 
L 70.832727 126.504923 
L 72.332727 128.004923 
L 70.832727 129.504923 
z
" clip-path="url(#p343a279cb2)" style="fill: #ff7f0e; stroke: #ffffff; stroke-width: 0.48"/>
    <path d="M 72.332727 131.004923 
L 73.832727 129.504923 
L 75.332727 131.004923 
L 76.832727 129.504923 
L 75.332727 128.004923 
L 76.832727 126.504923 
L 75.332727 125.004923 
L 73.832727 126.504923 
L 72.332727 125.004923 
L 70.832727 126.504923 
L 72.332727 128.004923 
L 70.832727 129.504923 
z
" clip-path="url(#p343a279cb2)" style="fill: #2ca02c; stroke: #ffffff; stroke-width: 0.48"/>
    <path d="M 72.332727 131.004923 
L 73.832727 129.504923 
L 75.332727 131.004923 
L 76.832727 129.504923 
L 75.332727 128.004923 
L 76.832727 126.504923 
L 75.332727 125.004923 
L 73.832727 126.504923 
L 72.332727 125.004923 
L 70.832727 126.504923 
L 72.332727 128.004923 
L 70.832727 129.504923 
z
" clip-path="url(#p343a279cb2)" style="fill: #d62728; stroke: #ffffff; stroke-width: 0.48"/>
    <path d="M 111.684793 131.004923 
L 113.184793 129.504923 
L 114.684793 131.004923 
L 116.184793 129.504923 
L 114.684793 128.004923 
L 116.184793 126.504923 
L 114.684793 125.004923 
L 113.184793 126.504923 
L 111.684793 125.004923 
L 110.184793 126.504923 
L 111.684793 128.004923 
L 110.184793 129.504923 
z
" clip-path="url(#p343a279cb2)" style="fill: #9467bd; stroke: #ffffff; stroke-width: 0.48"/>
    <path d="M 71.711407 256.148218 
L 71.711407 260.390859 
L 75.954048 260.390859 
L 75.954048 256.148218 
z
" clip-path="url(#p343a279cb2)" style="fill: #1f77b4; stroke: #ffffff; stroke-width: 0.48"/>
    <path d="M 71.711407 256.148218 
L 71.711407 260.390859 
L 75.954048 260.390859 
L 75.954048 256.148218 
z
" clip-path="url(#p343a279cb2)" style="fill: #ff7f0e; stroke: #ffffff; stroke-width: 0.48"/>
    <path d="M 71.711407 256.148218 
L 71.711407 260.390859 
L 75.954048 260.390859 
L 75.954048 256.148218 
z
" clip-path="url(#p343a279cb2)" style="fill: #2ca02c; stroke: #ffffff; stroke-width: 0.48"/>
    <path d="M 71.711407 256.148218 
L 71.711407 260.390859 
L 75.954048 260.390859 
L 75.954048 256.148218 
z
" clip-path="url(#p343a279cb2)" style="fill: #d62728; stroke: #ffffff; stroke-width: 0.48"/>
    <path d="M 111.063473 256.148218 
L 111.063473 260.390859 
L 115.306114 260.390859 
L 115.306114 256.148218 
z
" clip-path="url(#p343a279cb2)" style="fill: #9467bd; stroke: #ffffff; stroke-width: 0.48"/>
    <path d="M 78.537866 131.004923 
C 79.333475 131.004923 80.096605 130.688824 80.659186 130.126243 
C 81.221767 129.563663 81.537866 128.800532 81.537866 128.004923 
C 81.537866 127.209314 81.221767 126.446183 80.659186 125.883603 
C 80.096605 125.321022 79.333475 125.004923 78.537866 125.004923 
C 77.742256 125.004923 76.979126 125.321022 76.416545 125.883603 
C 75.853965 126.446183 75.537866 127.209314 75.537866 128.004923 
C 75.537866 128.800532 75.853965 129.563663 76.416545 130.126243 
C 76.979126 130.688824 77.742256 131.004923 78.537866 131.004923 
z
" clip-path="url(#p343a279cb2)" style="fill: #1f77b4; stroke: #ffffff; stroke-width: 0.48"/>
    <path d="M 73.832727 131.004923 
C 74.628337 131.004923 75.391467 130.688824 75.954048 130.126243 
C 76.516628 129.563663 76.832727 128.800532 76.832727 128.004923 
C 76.832727 127.209314 76.516628 126.446183 75.954048 125.883603 
C 75.391467 125.321022 74.628337 125.004923 73.832727 125.004923 
C 73.037118 125.004923 72.273988 125.321022 71.711407 125.883603 
C 71.148826 126.446183 70.832727 127.209314 70.832727 128.004923 
C 70.832727 128.800532 71.148826 129.563663 71.711407 130.126243 
C 72.273988 130.688824 73.037118 131.004923 73.832727 131.004923 
z
" clip-path="url(#p343a279cb2)" style="fill: #ff7f0e; stroke: #ffffff; stroke-width: 0.48"/>
    <path d="M 113.184793 131.004923 
C 113.980403 131.004923 114.743533 130.688824 115.306114 130.126243 
C 115.868694 129.563663 116.184793 128.800532 116.184793 128.004923 
C 116.184793 127.209314 115.868694 126.446183 115.306114 125.883603 
C 114.743533 125.321022 113.980403 125.004923 113.184793 125.004923 
C 112.389184 125.004923 111.626054 125.321022 111.063473 125.883603 
C 110.500892 126.446183 110.184793 127.209314 110.184793 128.004923 
C 110.184793 128.800532 110.500892 129.563663 111.063473 130.126243 
C 111.626054 130.688824 112.389184 131.004923 113.184793 131.004923 
z
" clip-path="url(#p343a279cb2)" style="fill: #2ca02c; stroke: #ffffff; stroke-width: 0.48"/>
    <path d="M 73.832727 131.004923 
C 74.628337 131.004923 75.391467 130.688824 75.954048 130.126243 
C 76.516628 129.563663 76.832727 128.800532 76.832727 128.004923 
C 76.832727 127.209314 76.516628 126.446183 75.954048 125.883603 
C 75.391467 125.321022 74.628337 125.004923 73.832727 125.004923 
C 73.037118 125.004923 72.273988 125.321022 71.711407 125.883603 
C 71.148826 126.446183 70.832727 127.209314 70.832727 128.004923 
C 70.832727 128.800532 71.148826 129.563663 71.711407 130.126243 
C 72.273988 130.688824 73.037118 131.004923 73.832727 131.004923 
z
" clip-path="url(#p343a279cb2)" style="fill: #d62728; stroke: #ffffff; stroke-width: 0.48"/>
    <path d="M 398.487273 131.004923 
C 399.282882 131.004923 400.046012 130.688824 400.608593 130.126243 
C 401.171174 129.563663 401.487273 128.800532 401.487273 128.004923 
C 401.487273 127.209314 401.171174 126.446183 400.608593 125.883603 
C 400.046012 125.321022 399.282882 125.004923 398.487273 125.004923 
C 397.691663 125.004923 396.928533 125.321022 396.365952 125.883603 
C 395.803372 126.446183 395.487273 127.209314 395.487273 128.004923 
C 395.487273 128.800532 395.803372 129.563663 396.365952 130.126243 
C 396.928533 130.688824 397.691663 131.004923 398.487273 131.004923 
z
" clip-path="url(#p343a279cb2)" style="fill: #9467bd; stroke: #ffffff; stroke-width: 0.48"/>
    <path d="M 77.037866 75.177231 
L 78.537866 73.677231 
L 80.037866 75.177231 
L 81.537866 73.677231 
L 80.037866 72.177231 
L 81.537866 70.677231 
L 80.037866 69.177231 
L 78.537866 70.677231 
L 77.037866 69.177231 
L 75.537866 70.677231 
L 77.037866 72.177231 
L 75.537866 73.677231 
z
" clip-path="url(#p343a279cb2)" style="fill: #1f77b4; stroke: #ffffff; stroke-width: 0.48"/>
    <path d="M 72.332727 75.177231 
L 73.832727 73.677231 
L 75.332727 75.177231 
L 76.832727 73.677231 
L 75.332727 72.177231 
L 76.832727 70.677231 
L 75.332727 69.177231 
L 73.832727 70.677231 
L 72.332727 69.177231 
L 70.832727 70.677231 
L 72.332727 72.177231 
L 70.832727 73.677231 
z
" clip-path="url(#p343a279cb2)" style="fill: #ff7f0e; stroke: #ffffff; stroke-width: 0.48"/>
    <path d="M 111.684793 75.177231 
L 113.184793 73.677231 
L 114.684793 75.177231 
L 116.184793 73.677231 
L 114.684793 72.177231 
L 116.184793 70.677231 
L 114.684793 69.177231 
L 113.184793 70.677231 
L 111.684793 69.177231 
L 110.184793 70.677231 
L 111.684793 72.177231 
L 110.184793 73.677231 
z
" clip-path="url(#p343a279cb2)" style="fill: #2ca02c; stroke: #ffffff; stroke-width: 0.48"/>
    <path d="M 72.332727 75.177231 
L 73.832727 73.677231 
L 75.332727 75.177231 
L 76.832727 73.677231 
L 75.332727 72.177231 
L 76.832727 70.677231 
L 75.332727 69.177231 
L 73.832727 70.677231 
L 72.332727 69.177231 
L 70.832727 70.677231 
L 72.332727 72.177231 
L 70.832727 73.677231 
z
" clip-path="url(#p343a279cb2)" style="fill: #d62728; stroke: #ffffff; stroke-width: 0.48"/>
    <path d="M 396.987273 75.177231 
L 398.487273 73.677231 
L 399.987273 75.177231 
L 401.487273 73.677231 
L 399.987273 72.177231 
L 401.487273 70.677231 
L 399.987273 69.177231 
L 398.487273 70.677231 
L 396.987273 69.177231 
L 395.487273 70.677231 
L 396.987273 72.177231 
L 395.487273 73.677231 
z
" clip-path="url(#p343a279cb2)" style="fill: #9467bd; stroke: #ffffff; stroke-width: 0.48"/>
    <path d="M 76.416545 200.320526 
L 76.416545 204.563166 
L 80.659186 204.563166 
L 80.659186 200.320526 
z
" clip-path="url(#p343a279cb2)" style="fill: #1f77b4; stroke: #ffffff; stroke-width: 0.48"/>
    <path d="M 71.711407 200.320526 
L 71.711407 204.563166 
L 75.954048 204.563166 
L 75.954048 200.320526 
z
" clip-path="url(#p343a279cb2)" style="fill: #ff7f0e; stroke: #ffffff; stroke-width: 0.48"/>
    <path d="M 111.063473 200.320526 
L 111.063473 204.563166 
L 115.306114 204.563166 
L 115.306114 200.320526 
z
" clip-path="url(#p343a279cb2)" style="fill: #2ca02c; stroke: #ffffff; stroke-width: 0.48"/>
    <path d="M 71.711407 200.320526 
L 71.711407 204.563166 
L 75.954048 204.563166 
L 75.954048 200.320526 
z
" clip-path="url(#p343a279cb2)" style="fill: #d62728; stroke: #ffffff; stroke-width: 0.48"/>
    <path d="M 396.365952 200.320526 
L 396.365952 204.563166 
L 400.608593 204.563166 
L 400.608593 200.320526 
z
" clip-path="url(#p343a279cb2)" style="fill: #9467bd; stroke: #ffffff; stroke-width: 0.48"/>
   </g>
   <g id="PathCollection_2"/>
   <g id="PathCollection_3"/>
   <g id="PathCollection_4"/>
   <g id="PathCollection_5"/>
   <g id="PathCollection_6"/>
   <g id="PathCollection_7"/>
   <g id="PathCollection_8"/>
   <g id="PathCollection_9"/>
   <g id="matplotlib.axis_1">
    <g id="xtick_1">
     <g id="line2d_1">
      <defs>
       <path id="m8b3a5846e8" d="M 0 0 
L 0 3.5 
" style="stroke: #000000; stroke-width: 0.8"/>
      </defs>
      <g>
       <use xlink:href="#m8b3a5846e8" x="63.994711" y="307.584" style="stroke: #000000; stroke-width: 0.8"/>
      </g>
     </g>
     <g id="text_1">
      <!-- 0 -->
      <g transform="translate(60.813461 322.182437) scale(0.1 -0.1)">
       <defs>
        <path id="DejaVuSans-30" d="M 2034 4250 
Q 1547 4250 1301 3770 
Q 1056 3291 1056 2328 
Q 1056 1369 1301 889 
Q 1547 409 2034 409 
Q 2525 409 2770 889 
Q 3016 1369 3016 2328 
Q 3016 3291 2770 3770 
Q 2525 4250 2034 4250 
z
M 2034 4750 
Q 2819 4750 3233 4129 
Q 3647 3509 3647 2328 
Q 3647 1150 3233 529 
Q 2819 -91 2034 -91 
Q 1250 -91 836 529 
Q 422 1150 422 2328 
Q 422 3509 836 4129 
Q 1250 4750 2034 4750 
z
" transform="scale(0.015625)"/>
       </defs>
       <use xlink:href="#DejaVuSans-30"/>
      </g>
     </g>
    </g>
    <g id="xtick_2">
     <g id="line2d_2">
      <g>
       <use xlink:href="#m8b3a5846e8" x="113.184793" y="307.584" style="stroke: #000000; stroke-width: 0.8"/>
      </g>
     </g>
     <g id="text_2">
      <!-- 5 -->
      <g transform="translate(110.003543 322.182437) scale(0.1 -0.1)">
       <defs>
        <path id="DejaVuSans-35" d="M 691 4666 
L 3169 4666 
L 3169 4134 
L 1269 4134 
L 1269 2991 
Q 1406 3038 1543 3061 
Q 1681 3084 1819 3084 
Q 2600 3084 3056 2656 
Q 3513 2228 3513 1497 
Q 3513 744 3044 326 
Q 2575 -91 1722 -91 
Q 1428 -91 1123 -41 
Q 819 9 494 109 
L 494 744 
Q 775 591 1075 516 
Q 1375 441 1709 441 
Q 2250 441 2565 725 
Q 2881 1009 2881 1497 
Q 2881 1984 2565 2268 
Q 2250 2553 1709 2553 
Q 1456 2553 1204 2497 
Q 953 2441 691 2322 
L 691 4666 
z
" transform="scale(0.015625)"/>
       </defs>
       <use xlink:href="#DejaVuSans-35"/>
      </g>
     </g>
    </g>
    <g id="xtick_3">
     <g id="line2d_3">
      <g>
       <use xlink:href="#m8b3a5846e8" x="162.374876" y="307.584" style="stroke: #000000; stroke-width: 0.8"/>
      </g>
     </g>
     <g id="text_3">
      <!-- 10 -->
      <g transform="translate(156.012376 322.182437) scale(0.1 -0.1)">
       <defs>
        <path id="DejaVuSans-31" d="M 794 531 
L 1825 531 
L 1825 4091 
L 703 3866 
L 703 4441 
L 1819 4666 
L 2450 4666 
L 2450 531 
L 3481 531 
L 3481 0 
L 794 0 
L 794 531 
z
" transform="scale(0.015625)"/>
       </defs>
       <use xlink:href="#DejaVuSans-31"/>
       <use xlink:href="#DejaVuSans-30" x="63.623047"/>
      </g>
     </g>
    </g>
    <g id="xtick_4">
     <g id="line2d_4">
      <g>
       <use xlink:href="#m8b3a5846e8" x="211.564959" y="307.584" style="stroke: #000000; stroke-width: 0.8"/>
      </g>
     </g>
     <g id="text_4">
      <!-- 15 -->
      <g transform="translate(205.202459 322.182437) scale(0.1 -0.1)">
       <use xlink:href="#DejaVuSans-31"/>
       <use xlink:href="#DejaVuSans-35" x="63.623047"/>
      </g>
     </g>
    </g>
    <g id="xtick_5">
     <g id="line2d_5">
      <g>
       <use xlink:href="#m8b3a5846e8" x="260.755041" y="307.584" style="stroke: #000000; stroke-width: 0.8"/>
      </g>
     </g>
     <g id="text_5">
      <!-- 20 -->
      <g transform="translate(254.392541 322.182437) scale(0.1 -0.1)">
       <defs>
        <path id="DejaVuSans-32" d="M 1228 531 
L 3431 531 
L 3431 0 
L 469 0 
L 469 531 
Q 828 903 1448 1529 
Q 2069 2156 2228 2338 
Q 2531 2678 2651 2914 
Q 2772 3150 2772 3378 
Q 2772 3750 2511 3984 
Q 2250 4219 1831 4219 
Q 1534 4219 1204 4116 
Q 875 4013 500 3803 
L 500 4441 
Q 881 4594 1212 4672 
Q 1544 4750 1819 4750 
Q 2544 4750 2975 4387 
Q 3406 4025 3406 3419 
Q 3406 3131 3298 2873 
Q 3191 2616 2906 2266 
Q 2828 2175 2409 1742 
Q 1991 1309 1228 531 
z
" transform="scale(0.015625)"/>
       </defs>
       <use xlink:href="#DejaVuSans-32"/>
       <use xlink:href="#DejaVuSans-30" x="63.623047"/>
      </g>
     </g>
    </g>
    <g id="xtick_6">
     <g id="line2d_6">
      <g>
       <use xlink:href="#m8b3a5846e8" x="309.945124" y="307.584" style="stroke: #000000; stroke-width: 0.8"/>
      </g>
     </g>
     <g id="text_6">
      <!-- 25 -->
      <g transform="translate(303.582624 322.182437) scale(0.1 -0.1)">
       <use xlink:href="#DejaVuSans-32"/>
       <use xlink:href="#DejaVuSans-35" x="63.623047"/>
      </g>
     </g>
    </g>
    <g id="xtick_7">
     <g id="line2d_7">
      <g>
       <use xlink:href="#m8b3a5846e8" x="359.135207" y="307.584" style="stroke: #000000; stroke-width: 0.8"/>
      </g>
     </g>
     <g id="text_7">
      <!-- 30 -->
      <g transform="translate(352.772707 322.182437) scale(0.1 -0.1)">
       <defs>
        <path id="DejaVuSans-33" d="M 2597 2516 
Q 3050 2419 3304 2112 
Q 3559 1806 3559 1356 
Q 3559 666 3084 287 
Q 2609 -91 1734 -91 
Q 1441 -91 1130 -33 
Q 819 25 488 141 
L 488 750 
Q 750 597 1062 519 
Q 1375 441 1716 441 
Q 2309 441 2620 675 
Q 2931 909 2931 1356 
Q 2931 1769 2642 2001 
Q 2353 2234 1838 2234 
L 1294 2234 
L 1294 2753 
L 1863 2753 
Q 2328 2753 2575 2939 
Q 2822 3125 2822 3475 
Q 2822 3834 2567 4026 
Q 2313 4219 1838 4219 
Q 1578 4219 1281 4162 
Q 984 4106 628 3988 
L 628 4550 
Q 988 4650 1302 4700 
Q 1616 4750 1894 4750 
Q 2613 4750 3031 4423 
Q 3450 4097 3450 3541 
Q 3450 3153 3228 2886 
Q 3006 2619 2597 2516 
z
" transform="scale(0.015625)"/>
       </defs>
       <use xlink:href="#DejaVuSans-33"/>
       <use xlink:href="#DejaVuSans-30" x="63.623047"/>
      </g>
     </g>
    </g>
    <g id="xtick_8">
     <g id="line2d_8">
      <g>
       <use xlink:href="#m8b3a5846e8" x="408.325289" y="307.584" style="stroke: #000000; stroke-width: 0.8"/>
      </g>
     </g>
     <g id="text_8">
      <!-- 35 -->
      <g transform="translate(401.962789 322.182437) scale(0.1 -0.1)">
       <use xlink:href="#DejaVuSans-33"/>
       <use xlink:href="#DejaVuSans-35" x="63.623047"/>
      </g>
     </g>
    </g>
    <g id="text_9">
     <!-- Count -->
     <g transform="translate(221.311563 335.860562) scale(0.1 -0.1)">
      <defs>
       <path id="DejaVuSans-43" d="M 4122 4306 
L 4122 3641 
Q 3803 3938 3442 4084 
Q 3081 4231 2675 4231 
Q 1875 4231 1450 3742 
Q 1025 3253 1025 2328 
Q 1025 1406 1450 917 
Q 1875 428 2675 428 
Q 3081 428 3442 575 
Q 3803 722 4122 1019 
L 4122 359 
Q 3791 134 3420 21 
Q 3050 -91 2638 -91 
Q 1578 -91 968 557 
Q 359 1206 359 2328 
Q 359 3453 968 4101 
Q 1578 4750 2638 4750 
Q 3056 4750 3426 4639 
Q 3797 4528 4122 4306 
z
" transform="scale(0.015625)"/>
       <path id="DejaVuSans-6f" d="M 1959 3097 
Q 1497 3097 1228 2736 
Q 959 2375 959 1747 
Q 959 1119 1226 758 
Q 1494 397 1959 397 
Q 2419 397 2687 759 
Q 2956 1122 2956 1747 
Q 2956 2369 2687 2733 
Q 2419 3097 1959 3097 
z
M 1959 3584 
Q 2709 3584 3137 3096 
Q 3566 2609 3566 1747 
Q 3566 888 3137 398 
Q 2709 -91 1959 -91 
Q 1206 -91 779 398 
Q 353 888 353 1747 
Q 353 2609 779 3096 
Q 1206 3584 1959 3584 
z
" transform="scale(0.015625)"/>
       <path id="DejaVuSans-75" d="M 544 1381 
L 544 3500 
L 1119 3500 
L 1119 1403 
Q 1119 906 1312 657 
Q 1506 409 1894 409 
Q 2359 409 2629 706 
Q 2900 1003 2900 1516 
L 2900 3500 
L 3475 3500 
L 3475 0 
L 2900 0 
L 2900 538 
Q 2691 219 2414 64 
Q 2138 -91 1772 -91 
Q 1169 -91 856 284 
Q 544 659 544 1381 
z
M 1991 3584 
L 1991 3584 
z
" transform="scale(0.015625)"/>
       <path id="DejaVuSans-6e" d="M 3513 2113 
L 3513 0 
L 2938 0 
L 2938 2094 
Q 2938 2591 2744 2837 
Q 2550 3084 2163 3084 
Q 1697 3084 1428 2787 
Q 1159 2491 1159 1978 
L 1159 0 
L 581 0 
L 581 3500 
L 1159 3500 
L 1159 2956 
Q 1366 3272 1645 3428 
Q 1925 3584 2291 3584 
Q 2894 3584 3203 3211 
Q 3513 2838 3513 2113 
z
" transform="scale(0.015625)"/>
       <path id="DejaVuSans-74" d="M 1172 4494 
L 1172 3500 
L 2356 3500 
L 2356 3053 
L 1172 3053 
L 1172 1153 
Q 1172 725 1289 603 
Q 1406 481 1766 481 
L 2356 481 
L 2356 0 
L 1766 0 
Q 1100 0 847 248 
Q 594 497 594 1153 
L 594 3053 
L 172 3053 
L 172 3500 
L 594 3500 
L 594 4494 
L 1172 4494 
z
" transform="scale(0.015625)"/>
      </defs>
      <use xlink:href="#DejaVuSans-43"/>
      <use xlink:href="#DejaVuSans-6f" x="69.824219"/>
      <use xlink:href="#DejaVuSans-75" x="131.005859"/>
      <use xlink:href="#DejaVuSans-6e" x="194.384766"/>
      <use xlink:href="#DejaVuSans-74" x="257.763672"/>
     </g>
    </g>
   </g>
   <g id="matplotlib.axis_2">
    <g id="ytick_1">
     <g id="line2d_9">
      <defs>
       <path id="md5acc11e0a" d="M 0 0 
L -3.5 0 
" style="stroke: #000000; stroke-width: 0.8"/>
      </defs>
      <g>
       <use xlink:href="#md5acc11e0a" x="57.6" y="295.488" style="stroke: #000000; stroke-width: 0.8"/>
      </g>
     </g>
     <g id="text_10">
      <!-- 1.5 -->
      <g transform="translate(34.696875 299.287219) scale(0.1 -0.1)">
       <defs>
        <path id="DejaVuSans-2e" d="M 684 794 
L 1344 794 
L 1344 0 
L 684 0 
L 684 794 
z
" transform="scale(0.015625)"/>
       </defs>
       <use xlink:href="#DejaVuSans-31"/>
       <use xlink:href="#DejaVuSans-2e" x="63.623047"/>
       <use xlink:href="#DejaVuSans-35" x="95.410156"/>
      </g>
     </g>
    </g>
    <g id="ytick_2">
     <g id="line2d_10">
      <g>
       <use xlink:href="#md5acc11e0a" x="57.6" y="258.269538" style="stroke: #000000; stroke-width: 0.8"/>
      </g>
     </g>
     <g id="text_11">
      <!-- 2.0 -->
      <g transform="translate(34.696875 262.068757) scale(0.1 -0.1)">
       <use xlink:href="#DejaVuSans-32"/>
       <use xlink:href="#DejaVuSans-2e" x="63.623047"/>
       <use xlink:href="#DejaVuSans-30" x="95.410156"/>
      </g>
     </g>
    </g>
    <g id="ytick_3">
     <g id="line2d_11">
      <g>
       <use xlink:href="#md5acc11e0a" x="57.6" y="221.051077" style="stroke: #000000; stroke-width: 0.8"/>
      </g>
     </g>
     <g id="text_12">
      <!-- 2.5 -->
      <g transform="translate(34.696875 224.850296) scale(0.1 -0.1)">
       <use xlink:href="#DejaVuSans-32"/>
       <use xlink:href="#DejaVuSans-2e" x="63.623047"/>
       <use xlink:href="#DejaVuSans-35" x="95.410156"/>
      </g>
     </g>
    </g>
    <g id="ytick_4">
     <g id="line2d_12">
      <g>
       <use xlink:href="#md5acc11e0a" x="57.6" y="183.832615" style="stroke: #000000; stroke-width: 0.8"/>
      </g>
     </g>
     <g id="text_13">
      <!-- 3.0 -->
      <g transform="translate(34.696875 187.631834) scale(0.1 -0.1)">
       <use xlink:href="#DejaVuSans-33"/>
       <use xlink:href="#DejaVuSans-2e" x="63.623047"/>
       <use xlink:href="#DejaVuSans-30" x="95.410156"/>
      </g>
     </g>
    </g>
    <g id="ytick_5">
     <g id="line2d_13">
      <g>
       <use xlink:href="#md5acc11e0a" x="57.6" y="146.614154" style="stroke: #000000; stroke-width: 0.8"/>
      </g>
     </g>
     <g id="text_14">
      <!-- 3.5 -->
      <g transform="translate(34.696875 150.413373) scale(0.1 -0.1)">
       <use xlink:href="#DejaVuSans-33"/>
       <use xlink:href="#DejaVuSans-2e" x="63.623047"/>
       <use xlink:href="#DejaVuSans-35" x="95.410156"/>
      </g>
     </g>
    </g>
    <g id="ytick_6">
     <g id="line2d_14">
      <g>
       <use xlink:href="#md5acc11e0a" x="57.6" y="109.395692" style="stroke: #000000; stroke-width: 0.8"/>
      </g>
     </g>
     <g id="text_15">
      <!-- 4.0 -->
      <g transform="translate(34.696875 113.194911) scale(0.1 -0.1)">
       <defs>
        <path id="DejaVuSans-34" d="M 2419 4116 
L 825 1625 
L 2419 1625 
L 2419 4116 
z
M 2253 4666 
L 3047 4666 
L 3047 1625 
L 3713 1625 
L 3713 1100 
L 3047 1100 
L 3047 0 
L 2419 0 
L 2419 1100 
L 313 1100 
L 313 1709 
L 2253 4666 
z
" transform="scale(0.015625)"/>
       </defs>
       <use xlink:href="#DejaVuSans-34"/>
       <use xlink:href="#DejaVuSans-2e" x="63.623047"/>
       <use xlink:href="#DejaVuSans-30" x="95.410156"/>
      </g>
     </g>
    </g>
    <g id="ytick_7">
     <g id="line2d_15">
      <g>
       <use xlink:href="#md5acc11e0a" x="57.6" y="72.177231" style="stroke: #000000; stroke-width: 0.8"/>
      </g>
     </g>
     <g id="text_16">
      <!-- 4.5 -->
      <g transform="translate(34.696875 75.97645) scale(0.1 -0.1)">
       <use xlink:href="#DejaVuSans-34"/>
       <use xlink:href="#DejaVuSans-2e" x="63.623047"/>
       <use xlink:href="#DejaVuSans-35" x="95.410156"/>
      </g>
     </g>
    </g>
    <g id="text_17">
     <!-- Rating -->
     <g transform="translate(28.617187 190.645969) rotate(-90) scale(0.1 -0.1)">
      <defs>
       <path id="DejaVuSans-52" d="M 2841 2188 
Q 3044 2119 3236 1894 
Q 3428 1669 3622 1275 
L 4263 0 
L 3584 0 
L 2988 1197 
Q 2756 1666 2539 1819 
Q 2322 1972 1947 1972 
L 1259 1972 
L 1259 0 
L 628 0 
L 628 4666 
L 2053 4666 
Q 2853 4666 3247 4331 
Q 3641 3997 3641 3322 
Q 3641 2881 3436 2590 
Q 3231 2300 2841 2188 
z
M 1259 4147 
L 1259 2491 
L 2053 2491 
Q 2509 2491 2742 2702 
Q 2975 2913 2975 3322 
Q 2975 3731 2742 3939 
Q 2509 4147 2053 4147 
L 1259 4147 
z
" transform="scale(0.015625)"/>
       <path id="DejaVuSans-61" d="M 2194 1759 
Q 1497 1759 1228 1600 
Q 959 1441 959 1056 
Q 959 750 1161 570 
Q 1363 391 1709 391 
Q 2188 391 2477 730 
Q 2766 1069 2766 1631 
L 2766 1759 
L 2194 1759 
z
M 3341 1997 
L 3341 0 
L 2766 0 
L 2766 531 
Q 2569 213 2275 61 
Q 1981 -91 1556 -91 
Q 1019 -91 701 211 
Q 384 513 384 1019 
Q 384 1609 779 1909 
Q 1175 2209 1959 2209 
L 2766 2209 
L 2766 2266 
Q 2766 2663 2505 2880 
Q 2244 3097 1772 3097 
Q 1472 3097 1187 3025 
Q 903 2953 641 2809 
L 641 3341 
Q 956 3463 1253 3523 
Q 1550 3584 1831 3584 
Q 2591 3584 2966 3190 
Q 3341 2797 3341 1997 
z
" transform="scale(0.015625)"/>
       <path id="DejaVuSans-69" d="M 603 3500 
L 1178 3500 
L 1178 0 
L 603 0 
L 603 3500 
z
M 603 4863 
L 1178 4863 
L 1178 4134 
L 603 4134 
L 603 4863 
z
" transform="scale(0.015625)"/>
       <path id="DejaVuSans-67" d="M 2906 1791 
Q 2906 2416 2648 2759 
Q 2391 3103 1925 3103 
Q 1463 3103 1205 2759 
Q 947 2416 947 1791 
Q 947 1169 1205 825 
Q 1463 481 1925 481 
Q 2391 481 2648 825 
Q 2906 1169 2906 1791 
z
M 3481 434 
Q 3481 -459 3084 -895 
Q 2688 -1331 1869 -1331 
Q 1566 -1331 1297 -1286 
Q 1028 -1241 775 -1147 
L 775 -588 
Q 1028 -725 1275 -790 
Q 1522 -856 1778 -856 
Q 2344 -856 2625 -561 
Q 2906 -266 2906 331 
L 2906 616 
Q 2728 306 2450 153 
Q 2172 0 1784 0 
Q 1141 0 747 490 
Q 353 981 353 1791 
Q 353 2603 747 3093 
Q 1141 3584 1784 3584 
Q 2172 3584 2450 3431 
Q 2728 3278 2906 2969 
L 2906 3500 
L 3481 3500 
L 3481 434 
z
" transform="scale(0.015625)"/>
      </defs>
      <use xlink:href="#DejaVuSans-52"/>
      <use xlink:href="#DejaVuSans-61" x="67.232422"/>
      <use xlink:href="#DejaVuSans-74" x="128.511719"/>
      <use xlink:href="#DejaVuSans-69" x="167.720703"/>
      <use xlink:href="#DejaVuSans-6e" x="195.503906"/>
      <use xlink:href="#DejaVuSans-67" x="258.882812"/>
     </g>
    </g>
   </g>
   <g id="patch_3">
    <path d="M 57.6 307.584 
L 57.6 41.472 
" style="fill: none; stroke: #000000; stroke-width: 0.8; stroke-linejoin: miter; stroke-linecap: square"/>
   </g>
   <g id="patch_4">
    <path d="M 414.72 307.584 
L 414.72 41.472 
" style="fill: none; stroke: #000000; stroke-width: 0.8; stroke-linejoin: miter; stroke-linecap: square"/>
   </g>
   <g id="patch_5">
    <path d="M 57.6 307.584 
L 414.72 307.584 
" style="fill: none; stroke: #000000; stroke-width: 0.8; stroke-linejoin: miter; stroke-linecap: square"/>
   </g>
   <g id="patch_6">
    <path d="M 57.6 41.472 
L 414.72 41.472 
" style="fill: none; stroke: #000000; stroke-width: 0.8; stroke-linejoin: miter; stroke-linecap: square"/>
   </g>
   <g id="legend_1">
    <g id="patch_7">
     <path d="M 201.417031 302.584 
L 270.902969 302.584 
Q 272.902969 302.584 272.902969 300.584 
L 272.902969 154.80275 
Q 272.902969 152.80275 270.902969 152.80275 
L 201.417031 152.80275 
Q 199.417031 152.80275 199.417031 154.80275 
L 199.417031 300.584 
Q 199.417031 302.584 201.417031 302.584 
z
" style="fill: #ffffff; opacity: 0.8; stroke: #cccccc; stroke-linejoin: miter"/>
    </g>
    <g id="text_18">
     <!-- Agg -->
     <g transform="translate(211.417031 164.401187) scale(0.1 -0.1)">
      <defs>
       <path id="DejaVuSans-41" d="M 2188 4044 
L 1331 1722 
L 3047 1722 
L 2188 4044 
z
M 1831 4666 
L 2547 4666 
L 4325 0 
L 3669 0 
L 3244 1197 
L 1141 1197 
L 716 0 
L 50 0 
L 1831 4666 
z
" transform="scale(0.015625)"/>
      </defs>
      <use xlink:href="#DejaVuSans-41"/>
      <use xlink:href="#DejaVuSans-67" x="68.408203"/>
      <use xlink:href="#DejaVuSans-67" x="131.884766"/>
     </g>
    </g>
    <g id="PathCollection_10">
     <defs>
      <path id="m2c260f181e" d="M 0 3 
C 0.795609 3 1.55874 2.683901 2.12132 2.12132 
C 2.683901 1.55874 3 0.795609 3 0 
C 3 -0.795609 2.683901 -1.55874 2.12132 -2.12132 
C 1.55874 -2.683901 0.795609 -3 0 -3 
C -0.795609 -3 -1.55874 -2.683901 -2.12132 -2.12132 
C -2.683901 -1.55874 -3 -0.795609 -3 0 
C -3 0.795609 -2.683901 1.55874 -2.12132 2.12132 
C -1.55874 2.683901 -0.795609 3 0 3 
z
" style="stroke: #1f77b4"/>
     </defs>
     <g>
      <use xlink:href="#m2c260f181e" x="213.417031" y="176.454313" style="fill: #1f77b4; stroke: #1f77b4"/>
     </g>
    </g>
    <g id="text_19">
     <!-- mean -->
     <g transform="translate(231.417031 179.079313) scale(0.1 -0.1)">
      <defs>
       <path id="DejaVuSans-6d" d="M 3328 2828 
Q 3544 3216 3844 3400 
Q 4144 3584 4550 3584 
Q 5097 3584 5394 3201 
Q 5691 2819 5691 2113 
L 5691 0 
L 5113 0 
L 5113 2094 
Q 5113 2597 4934 2840 
Q 4756 3084 4391 3084 
Q 3944 3084 3684 2787 
Q 3425 2491 3425 1978 
L 3425 0 
L 2847 0 
L 2847 2094 
Q 2847 2600 2669 2842 
Q 2491 3084 2119 3084 
Q 1678 3084 1418 2786 
Q 1159 2488 1159 1978 
L 1159 0 
L 581 0 
L 581 3500 
L 1159 3500 
L 1159 2956 
Q 1356 3278 1631 3431 
Q 1906 3584 2284 3584 
Q 2666 3584 2933 3390 
Q 3200 3197 3328 2828 
z
" transform="scale(0.015625)"/>
       <path id="DejaVuSans-65" d="M 3597 1894 
L 3597 1613 
L 953 1613 
Q 991 1019 1311 708 
Q 1631 397 2203 397 
Q 2534 397 2845 478 
Q 3156 559 3463 722 
L 3463 178 
Q 3153 47 2828 -22 
Q 2503 -91 2169 -91 
Q 1331 -91 842 396 
Q 353 884 353 1716 
Q 353 2575 817 3079 
Q 1281 3584 2069 3584 
Q 2775 3584 3186 3129 
Q 3597 2675 3597 1894 
z
M 3022 2063 
Q 3016 2534 2758 2815 
Q 2500 3097 2075 3097 
Q 1594 3097 1305 2825 
Q 1016 2553 972 2059 
L 3022 2063 
z
" transform="scale(0.015625)"/>
      </defs>
      <use xlink:href="#DejaVuSans-6d"/>
      <use xlink:href="#DejaVuSans-65" x="97.412109"/>
      <use xlink:href="#DejaVuSans-61" x="158.935547"/>
      <use xlink:href="#DejaVuSans-6e" x="220.214844"/>
     </g>
    </g>
    <g id="PathCollection_11">
     <defs>
      <path id="mee9c75bf0f" d="M 0 3 
C 0.795609 3 1.55874 2.683901 2.12132 2.12132 
C 2.683901 1.55874 3 0.795609 3 0 
C 3 -0.795609 2.683901 -1.55874 2.12132 -2.12132 
C 1.55874 -2.683901 0.795609 -3 0 -3 
C -0.795609 -3 -1.55874 -2.683901 -2.12132 -2.12132 
C -2.683901 -1.55874 -3 -0.795609 -3 0 
C -3 0.795609 -2.683901 1.55874 -2.12132 2.12132 
C -1.55874 2.683901 -0.795609 3 0 3 
z
" style="stroke: #ff7f0e"/>
     </defs>
     <g>
      <use xlink:href="#mee9c75bf0f" x="213.417031" y="191.132438" style="fill: #ff7f0e; stroke: #ff7f0e"/>
     </g>
    </g>
    <g id="text_20">
     <!-- median -->
     <g transform="translate(231.417031 193.757438) scale(0.1 -0.1)">
      <defs>
       <path id="DejaVuSans-64" d="M 2906 2969 
L 2906 4863 
L 3481 4863 
L 3481 0 
L 2906 0 
L 2906 525 
Q 2725 213 2448 61 
Q 2172 -91 1784 -91 
Q 1150 -91 751 415 
Q 353 922 353 1747 
Q 353 2572 751 3078 
Q 1150 3584 1784 3584 
Q 2172 3584 2448 3432 
Q 2725 3281 2906 2969 
z
M 947 1747 
Q 947 1113 1208 752 
Q 1469 391 1925 391 
Q 2381 391 2643 752 
Q 2906 1113 2906 1747 
Q 2906 2381 2643 2742 
Q 2381 3103 1925 3103 
Q 1469 3103 1208 2742 
Q 947 2381 947 1747 
z
" transform="scale(0.015625)"/>
      </defs>
      <use xlink:href="#DejaVuSans-6d"/>
      <use xlink:href="#DejaVuSans-65" x="97.412109"/>
      <use xlink:href="#DejaVuSans-64" x="158.935547"/>
      <use xlink:href="#DejaVuSans-69" x="222.412109"/>
      <use xlink:href="#DejaVuSans-61" x="250.195312"/>
      <use xlink:href="#DejaVuSans-6e" x="311.474609"/>
     </g>
    </g>
    <g id="PathCollection_12">
     <defs>
      <path id="m19e551f7bc" d="M 0 3 
C 0.795609 3 1.55874 2.683901 2.12132 2.12132 
C 2.683901 1.55874 3 0.795609 3 0 
C 3 -0.795609 2.683901 -1.55874 2.12132 -2.12132 
C 1.55874 -2.683901 0.795609 -3 0 -3 
C -0.795609 -3 -1.55874 -2.683901 -2.12132 -2.12132 
C -2.683901 -1.55874 -3 -0.795609 -3 0 
C -3 0.795609 -2.683901 1.55874 -2.12132 2.12132 
C -1.55874 2.683901 -0.795609 3 0 3 
z
" style="stroke: #2ca02c"/>
     </defs>
     <g>
      <use xlink:href="#m19e551f7bc" x="213.417031" y="205.810563" style="fill: #2ca02c; stroke: #2ca02c"/>
     </g>
    </g>
    <g id="text_21">
     <!-- max -->
     <g transform="translate(231.417031 208.435563) scale(0.1 -0.1)">
      <defs>
       <path id="DejaVuSans-78" d="M 3513 3500 
L 2247 1797 
L 3578 0 
L 2900 0 
L 1881 1375 
L 863 0 
L 184 0 
L 1544 1831 
L 300 3500 
L 978 3500 
L 1906 2253 
L 2834 3500 
L 3513 3500 
z
" transform="scale(0.015625)"/>
      </defs>
      <use xlink:href="#DejaVuSans-6d"/>
      <use xlink:href="#DejaVuSans-61" x="97.412109"/>
      <use xlink:href="#DejaVuSans-78" x="158.691406"/>
     </g>
    </g>
    <g id="PathCollection_13">
     <defs>
      <path id="mbe8feb72d0" d="M 0 3 
C 0.795609 3 1.55874 2.683901 2.12132 2.12132 
C 2.683901 1.55874 3 0.795609 3 0 
C 3 -0.795609 2.683901 -1.55874 2.12132 -2.12132 
C 1.55874 -2.683901 0.795609 -3 0 -3 
C -0.795609 -3 -1.55874 -2.683901 -2.12132 -2.12132 
C -2.683901 -1.55874 -3 -0.795609 -3 0 
C -3 0.795609 -2.683901 1.55874 -2.12132 2.12132 
C -1.55874 2.683901 -0.795609 3 0 3 
z
" style="stroke: #d62728"/>
     </defs>
     <g>
      <use xlink:href="#mbe8feb72d0" x="213.417031" y="220.488688" style="fill: #d62728; stroke: #d62728"/>
     </g>
    </g>
    <g id="text_22">
     <!-- min -->
     <g transform="translate(231.417031 223.113688) scale(0.1 -0.1)">
      <use xlink:href="#DejaVuSans-6d"/>
      <use xlink:href="#DejaVuSans-69" x="97.412109"/>
      <use xlink:href="#DejaVuSans-6e" x="125.195312"/>
     </g>
    </g>
    <g id="PathCollection_14">
     <defs>
      <path id="mcab6739529" d="M 0 3 
C 0.795609 3 1.55874 2.683901 2.12132 2.12132 
C 2.683901 1.55874 3 0.795609 3 0 
C 3 -0.795609 2.683901 -1.55874 2.12132 -2.12132 
C 1.55874 -2.683901 0.795609 -3 0 -3 
C -0.795609 -3 -1.55874 -2.683901 -2.12132 -2.12132 
C -2.683901 -1.55874 -3 -0.795609 -3 0 
C -3 0.795609 -2.683901 1.55874 -2.12132 2.12132 
C -1.55874 2.683901 -0.795609 3 0 3 
z
" style="stroke: #9467bd"/>
     </defs>
     <g>
      <use xlink:href="#mcab6739529" x="213.417031" y="235.166812" style="fill: #9467bd; stroke: #9467bd"/>
     </g>
    </g>
    <g id="text_23">
     <!-- total -->
     <g transform="translate(231.417031 237.791812) scale(0.1 -0.1)">
      <defs>
       <path id="DejaVuSans-6c" d="M 603 4863 
L 1178 4863 
L 1178 0 
L 603 0 
L 603 4863 
z
" transform="scale(0.015625)"/>
      </defs>
      <use xlink:href="#DejaVuSans-74"/>
      <use xlink:href="#DejaVuSans-6f" x="39.208984"/>
      <use xlink:href="#DejaVuSans-74" x="100.390625"/>
      <use xlink:href="#DejaVuSans-61" x="139.599609"/>
      <use xlink:href="#DejaVuSans-6c" x="200.878906"/>
     </g>
    </g>
    <g id="text_24">
     <!-- Technique -->
     <g transform="translate(211.417031 252.469938) scale(0.1 -0.1)">
      <defs>
       <path id="DejaVuSans-54" d="M -19 4666 
L 3928 4666 
L 3928 4134 
L 2272 4134 
L 2272 0 
L 1638 0 
L 1638 4134 
L -19 4134 
L -19 4666 
z
" transform="scale(0.015625)"/>
       <path id="DejaVuSans-63" d="M 3122 3366 
L 3122 2828 
Q 2878 2963 2633 3030 
Q 2388 3097 2138 3097 
Q 1578 3097 1268 2742 
Q 959 2388 959 1747 
Q 959 1106 1268 751 
Q 1578 397 2138 397 
Q 2388 397 2633 464 
Q 2878 531 3122 666 
L 3122 134 
Q 2881 22 2623 -34 
Q 2366 -91 2075 -91 
Q 1284 -91 818 406 
Q 353 903 353 1747 
Q 353 2603 823 3093 
Q 1294 3584 2113 3584 
Q 2378 3584 2631 3529 
Q 2884 3475 3122 3366 
z
" transform="scale(0.015625)"/>
       <path id="DejaVuSans-68" d="M 3513 2113 
L 3513 0 
L 2938 0 
L 2938 2094 
Q 2938 2591 2744 2837 
Q 2550 3084 2163 3084 
Q 1697 3084 1428 2787 
Q 1159 2491 1159 1978 
L 1159 0 
L 581 0 
L 581 4863 
L 1159 4863 
L 1159 2956 
Q 1366 3272 1645 3428 
Q 1925 3584 2291 3584 
Q 2894 3584 3203 3211 
Q 3513 2838 3513 2113 
z
" transform="scale(0.015625)"/>
       <path id="DejaVuSans-71" d="M 947 1747 
Q 947 1113 1208 752 
Q 1469 391 1925 391 
Q 2381 391 2643 752 
Q 2906 1113 2906 1747 
Q 2906 2381 2643 2742 
Q 2381 3103 1925 3103 
Q 1469 3103 1208 2742 
Q 947 2381 947 1747 
z
M 2906 525 
Q 2725 213 2448 61 
Q 2172 -91 1784 -91 
Q 1150 -91 751 415 
Q 353 922 353 1747 
Q 353 2572 751 3078 
Q 1150 3584 1784 3584 
Q 2172 3584 2448 3432 
Q 2725 3281 2906 2969 
L 2906 3500 
L 3481 3500 
L 3481 -1331 
L 2906 -1331 
L 2906 525 
z
" transform="scale(0.015625)"/>
      </defs>
      <use xlink:href="#DejaVuSans-54"/>
      <use xlink:href="#DejaVuSans-65" x="44.083984"/>
      <use xlink:href="#DejaVuSans-63" x="105.607422"/>
      <use xlink:href="#DejaVuSans-68" x="160.587891"/>
      <use xlink:href="#DejaVuSans-6e" x="223.966797"/>
      <use xlink:href="#DejaVuSans-69" x="287.345703"/>
      <use xlink:href="#DejaVuSans-71" x="315.128906"/>
      <use xlink:href="#DejaVuSans-75" x="378.605469"/>
      <use xlink:href="#DejaVuSans-65" x="441.984375"/>
     </g>
    </g>
    <g id="PathCollection_15">
     <defs>
      <path id="m2f441c4d29" d="M 0 3 
C 0.795609 3 1.55874 2.683901 2.12132 2.12132 
C 2.683901 1.55874 3 0.795609 3 0 
C 3 -0.795609 2.683901 -1.55874 2.12132 -2.12132 
C 1.55874 -2.683901 0.795609 -3 0 -3 
C -0.795609 -3 -1.55874 -2.683901 -2.12132 -2.12132 
C -2.683901 -1.55874 -3 -0.795609 -3 0 
C -3 0.795609 -2.683901 1.55874 -2.12132 2.12132 
C -1.55874 2.683901 -0.795609 3 0 3 
z
" style="stroke: #333333"/>
     </defs>
     <g>
      <use xlink:href="#m2f441c4d29" x="213.417031" y="264.523062" style="fill: #333333; stroke: #333333"/>
     </g>
    </g>
    <g id="text_25">
     <!-- OntMet -->
     <g transform="translate(231.417031 267.148062) scale(0.1 -0.1)">
      <defs>
       <path id="DejaVuSans-4f" d="M 2522 4238 
Q 1834 4238 1429 3725 
Q 1025 3213 1025 2328 
Q 1025 1447 1429 934 
Q 1834 422 2522 422 
Q 3209 422 3611 934 
Q 4013 1447 4013 2328 
Q 4013 3213 3611 3725 
Q 3209 4238 2522 4238 
z
M 2522 4750 
Q 3503 4750 4090 4092 
Q 4678 3434 4678 2328 
Q 4678 1225 4090 567 
Q 3503 -91 2522 -91 
Q 1538 -91 948 565 
Q 359 1222 359 2328 
Q 359 3434 948 4092 
Q 1538 4750 2522 4750 
z
" transform="scale(0.015625)"/>
       <path id="DejaVuSans-4d" d="M 628 4666 
L 1569 4666 
L 2759 1491 
L 3956 4666 
L 4897 4666 
L 4897 0 
L 4281 0 
L 4281 4097 
L 3078 897 
L 2444 897 
L 1241 4097 
L 1241 0 
L 628 0 
L 628 4666 
z
" transform="scale(0.015625)"/>
      </defs>
      <use xlink:href="#DejaVuSans-4f"/>
      <use xlink:href="#DejaVuSans-6e" x="78.710938"/>
      <use xlink:href="#DejaVuSans-74" x="142.089844"/>
      <use xlink:href="#DejaVuSans-4d" x="181.298828"/>
      <use xlink:href="#DejaVuSans-65" x="267.578125"/>
      <use xlink:href="#DejaVuSans-74" x="329.101562"/>
     </g>
    </g>
    <g id="PathCollection_16">
     <defs>
      <path id="m4bb567f37f" d="M -1.5 3 
L 0 1.5 
L 1.5 3 
L 3 1.5 
L 1.5 0 
L 3 -1.5 
L 1.5 -3 
L 0 -1.5 
L -1.5 -3 
L -3 -1.5 
L -1.5 0 
L -3 1.5 
z
" style="stroke: #333333"/>
     </defs>
     <g>
      <use xlink:href="#m4bb567f37f" x="213.417031" y="279.201188" style="fill: #333333; stroke: #333333"/>
     </g>
    </g>
    <g id="text_26">
     <!-- ClaFreq -->
     <g transform="translate(231.417031 281.826188) scale(0.1 -0.1)">
      <defs>
       <path id="DejaVuSans-46" d="M 628 4666 
L 3309 4666 
L 3309 4134 
L 1259 4134 
L 1259 2759 
L 3109 2759 
L 3109 2228 
L 1259 2228 
L 1259 0 
L 628 0 
L 628 4666 
z
" transform="scale(0.015625)"/>
       <path id="DejaVuSans-72" d="M 2631 2963 
Q 2534 3019 2420 3045 
Q 2306 3072 2169 3072 
Q 1681 3072 1420 2755 
Q 1159 2438 1159 1844 
L 1159 0 
L 581 0 
L 581 3500 
L 1159 3500 
L 1159 2956 
Q 1341 3275 1631 3429 
Q 1922 3584 2338 3584 
Q 2397 3584 2469 3576 
Q 2541 3569 2628 3553 
L 2631 2963 
z
" transform="scale(0.015625)"/>
      </defs>
      <use xlink:href="#DejaVuSans-43"/>
      <use xlink:href="#DejaVuSans-6c" x="69.824219"/>
      <use xlink:href="#DejaVuSans-61" x="97.607422"/>
      <use xlink:href="#DejaVuSans-46" x="158.886719"/>
      <use xlink:href="#DejaVuSans-72" x="209.15625"/>
      <use xlink:href="#DejaVuSans-65" x="248.019531"/>
      <use xlink:href="#DejaVuSans-71" x="309.542969"/>
     </g>
    </g>
    <g id="PathCollection_17">
     <defs>
      <path id="mf3db2a4b66" d="M -2.12132 -2.12132 
L -2.12132 2.12132 
L 2.12132 2.12132 
L 2.12132 -2.12132 
z
" style="stroke: #333333"/>
     </defs>
     <g>
      <use xlink:href="#mf3db2a4b66" x="213.417031" y="293.879312" style="fill: #333333; stroke: #333333"/>
     </g>
    </g>
    <g id="text_27">
     <!-- LabLen -->
     <g transform="translate(231.417031 296.504312) scale(0.1 -0.1)">
      <defs>
       <path id="DejaVuSans-4c" d="M 628 4666 
L 1259 4666 
L 1259 531 
L 3531 531 
L 3531 0 
L 628 0 
L 628 4666 
z
" transform="scale(0.015625)"/>
       <path id="DejaVuSans-62" d="M 3116 1747 
Q 3116 2381 2855 2742 
Q 2594 3103 2138 3103 
Q 1681 3103 1420 2742 
Q 1159 2381 1159 1747 
Q 1159 1113 1420 752 
Q 1681 391 2138 391 
Q 2594 391 2855 752 
Q 3116 1113 3116 1747 
z
M 1159 2969 
Q 1341 3281 1617 3432 
Q 1894 3584 2278 3584 
Q 2916 3584 3314 3078 
Q 3713 2572 3713 1747 
Q 3713 922 3314 415 
Q 2916 -91 2278 -91 
Q 1894 -91 1617 61 
Q 1341 213 1159 525 
L 1159 0 
L 581 0 
L 581 4863 
L 1159 4863 
L 1159 2969 
z
" transform="scale(0.015625)"/>
      </defs>
      <use xlink:href="#DejaVuSans-4c"/>
      <use xlink:href="#DejaVuSans-61" x="55.712891"/>
      <use xlink:href="#DejaVuSans-62" x="116.992188"/>
      <use xlink:href="#DejaVuSans-4c" x="180.46875"/>
      <use xlink:href="#DejaVuSans-65" x="234.431641"/>
      <use xlink:href="#DejaVuSans-6e" x="295.955078"/>
     </g>
    </g>
   </g>
  </g>
 </g>
 <defs>
  <clipPath id="p343a279cb2">
   <rect x="57.6" y="41.472" width="357.12" height="266.112"/>
  </clipPath>
 </defs>
</svg>
