<?xml version="1.0" encoding="utf-8" standalone="no"?>
<!DOCTYPE svg PUBLIC "-//W3C//DTD SVG 1.1//EN"
  "http://www.w3.org/Graphics/SVG/1.1/DTD/svg11.dtd">
<svg xmlns:xlink="http://www.w3.org/1999/xlink" width="360pt" height="360pt" viewBox="0 0 360 360" xmlns="http://www.w3.org/2000/svg" version="1.1">
 <metadata>
  <rdf:RDF xmlns:dc="http://purl.org/dc/elements/1.1/" xmlns:cc="http://creativecommons.org/ns#" xmlns:rdf="http://www.w3.org/1999/02/22-rdf-syntax-ns#">
   <cc:Work>
    <dc:type rdf:resource="http://purl.org/dc/dcmitype/StillImage"/>
    <dc:date>2022-12-19T01:35:41.537849</dc:date>
    <dc:format>image/svg+xml</dc:format>
    <dc:creator>
     <cc:Agent>
      <dc:title>Matplotlib v3.6.2, https://matplotlib.org/</dc:title>
     </cc:Agent>
    </dc:creator>
   </cc:Work>
  </rdf:RDF>
 </metadata>
 <defs>
  <style type="text/css">*{stroke-linejoin: round; stroke-linecap: butt}</style>
 </defs>
 <g id="figure_1">
  <g id="patch_1">
   <path d="M 0 360 
L 360 360 
L 360 0 
L 0 0 
z
" style="fill: #ffffff"/>
  </g>
  <g id="axes_1">
   <g id="patch_2">
    <path d="M 47.855 318.04 
L 349.2 318.04 
L 349.2 10.8 
L 47.855 10.8 
z
" style="fill: #ffffff"/>
   </g>
   <g id="PathCollection_1">
    <path d="M 99.824926 92.221399 
C 100.620536 92.221399 101.383666 91.9053 101.946247 91.342719 
C 102.508828 90.780138 102.824926 90.017008 102.824926 89.221399 
C 102.824926 88.425789 102.508828 87.662659 101.946247 87.100078 
C 101.383666 86.537498 100.620536 86.221399 99.824926 86.221399 
C 99.029317 86.221399 98.266187 86.537498 97.703606 87.100078 
C 97.141025 87.662659 96.824926 88.425789 96.824926 89.221399 
C 96.824926 90.017008 97.141025 90.780138 97.703606 91.342719 
C 98.266187 91.9053 99.029317 92.221399 99.824926 92.221399 
z
" clip-path="url(#pdcbab83eee)" style="fill: #1f77b4; stroke: #ffffff; stroke-width: 0.48"/>
    <path d="M 96.310588 92.221399 
L 97.810588 90.721399 
L 99.310588 92.221399 
L 100.810588 90.721399 
L 99.310588 89.221399 
L 100.810588 87.721399 
L 99.310588 86.221399 
L 97.810588 87.721399 
L 96.310588 86.221399 
L 94.810588 87.721399 
L 96.310588 89.221399 
L 94.810588 90.721399 
z
" clip-path="url(#pdcbab83eee)" style="fill: #ff7f0e; stroke: #ffffff; stroke-width: 0.48"/>
    <path d="M 123.890003 87.100078 
L 123.890003 91.342719 
L 128.132644 91.342719 
L 128.132644 87.100078 
z
" clip-path="url(#pdcbab83eee)" style="fill: #2ca02c; stroke: #ffffff; stroke-width: 0.48"/>
    <path d="M 84.724559 92.221399 
L 86.724559 92.221399 
L 86.724559 90.221399 
L 88.724559 90.221399 
L 88.724559 88.221399 
L 86.724559 88.221399 
L 86.724559 86.221399 
L 84.724559 86.221399 
L 84.724559 88.221399 
L 82.724559 88.221399 
L 82.724559 90.221399 
L 84.724559 90.221399 
z
" clip-path="url(#pdcbab83eee)" style="fill: #d62728; stroke: #ffffff; stroke-width: 0.48"/>
    <path d="M 63.566838 27.765455 
C 64.362448 27.765455 65.125578 27.449356 65.688159 26.886775 
C 66.250739 26.324194 66.566838 25.561064 66.566838 24.765455 
C 66.566838 23.969845 66.250739 23.206715 65.688159 22.644134 
C 65.125578 22.081553 64.362448 21.765455 63.566838 21.765455 
C 62.771229 21.765455 62.008099 22.081553 61.445518 22.644134 
C 60.882937 23.206715 60.566838 23.969845 60.566838 24.765455 
C 60.566838 25.561064 60.882937 26.324194 61.445518 26.886775 
C 62.008099 27.449356 62.771229 27.765455 63.566838 27.765455 
z
" clip-path="url(#pdcbab83eee)" style="fill: #1f77b4; stroke: #ffffff; stroke-width: 0.48"/>
    <path d="M 88.253235 27.765455 
L 89.753235 26.265455 
L 91.253235 27.765455 
L 92.753235 26.265455 
L 91.253235 24.765455 
L 92.753235 23.265455 
L 91.253235 21.765455 
L 89.753235 23.265455 
L 88.253235 21.765455 
L 86.753235 23.265455 
L 88.253235 24.765455 
L 86.753235 26.265455 
z
" clip-path="url(#pdcbab83eee)" style="fill: #ff7f0e; stroke: #ffffff; stroke-width: 0.48"/>
    <path d="M 150.0764 22.644134 
L 150.0764 26.886775 
L 154.319041 26.886775 
L 154.319041 22.644134 
z
" clip-path="url(#pdcbab83eee)" style="fill: #2ca02c; stroke: #ffffff; stroke-width: 0.48"/>
    <path d="M 62.566838 27.765455 
L 64.566838 27.765455 
L 64.566838 25.765455 
L 66.566838 25.765455 
L 66.566838 23.765455 
L 64.566838 23.765455 
L 64.566838 21.765455 
L 62.566838 21.765455 
L 62.566838 23.765455 
L 60.566838 23.765455 
L 60.566838 25.765455 
L 62.566838 25.765455 
z
" clip-path="url(#pdcbab83eee)" style="fill: #d62728; stroke: #ffffff; stroke-width: 0.48"/>
    <path d="M 180.398456 307.074545 
C 181.194065 307.074545 181.957195 306.758447 182.519776 306.195866 
C 183.082357 305.633285 183.398456 304.870155 183.398456 304.074545 
C 183.398456 303.278936 183.082357 302.515806 182.519776 301.953225 
C 181.957195 301.390644 181.194065 301.074545 180.398456 301.074545 
C 179.602847 301.074545 178.839716 301.390644 178.277136 301.953225 
C 177.714555 302.515806 177.398456 303.278936 177.398456 304.074545 
C 177.398456 304.870155 177.714555 305.633285 178.277136 306.195866 
C 178.839716 306.758447 179.602847 307.074545 180.398456 307.074545 
z
" clip-path="url(#pdcbab83eee)" style="fill: #1f77b4; stroke: #ffffff; stroke-width: 0.48"/>
    <path d="M 201.056176 307.074545 
L 202.556176 305.574545 
L 204.056176 307.074545 
L 205.556176 305.574545 
L 204.056176 304.074545 
L 205.556176 302.574545 
L 204.056176 301.074545 
L 202.556176 302.574545 
L 201.056176 301.074545 
L 199.556176 302.574545 
L 201.056176 304.074545 
L 199.556176 305.574545 
z
" clip-path="url(#pdcbab83eee)" style="fill: #ff7f0e; stroke: #ffffff; stroke-width: 0.48"/>
    <path d="M 333.38118 301.953225 
L 333.38118 306.195866 
L 337.62382 306.195866 
L 337.62382 301.953225 
z
" clip-path="url(#pdcbab83eee)" style="fill: #2ca02c; stroke: #ffffff; stroke-width: 0.48"/>
    <path d="M 153.212059 307.074545 
L 155.212059 307.074545 
L 155.212059 305.074545 
L 157.212059 305.074545 
L 157.212059 303.074545 
L 155.212059 303.074545 
L 155.212059 301.074545 
L 153.212059 301.074545 
L 153.212059 303.074545 
L 151.212059 303.074545 
L 151.212059 305.074545 
L 153.212059 305.074545 
z
" clip-path="url(#pdcbab83eee)" style="fill: #d62728; stroke: #ffffff; stroke-width: 0.48"/>
    <path d="M 132.054338 199.647972 
C 132.849948 199.647972 133.613078 199.331873 134.175659 198.769292 
C 134.738239 198.206712 135.054338 197.443581 135.054338 196.647972 
C 135.054338 195.852363 134.738239 195.089232 134.175659 194.526652 
C 133.613078 193.964071 132.849948 193.647972 132.054338 193.647972 
C 131.258729 193.647972 130.495599 193.964071 129.933018 194.526652 
C 129.370437 195.089232 129.054338 195.852363 129.054338 196.647972 
C 129.054338 197.443581 129.370437 198.206712 129.933018 198.769292 
C 130.495599 199.331873 131.258729 199.647972 132.054338 199.647972 
z
" clip-path="url(#pdcbab83eee)" style="fill: #1f77b4; stroke: #ffffff; stroke-width: 0.48"/>
    <path d="M 134.583015 199.647972 
L 136.083015 198.147972 
L 137.583015 199.647972 
L 139.083015 198.147972 
L 137.583015 196.647972 
L 139.083015 195.147972 
L 137.583015 193.647972 
L 136.083015 195.147972 
L 134.583015 193.647972 
L 133.083015 195.147972 
L 134.583015 196.647972 
L 133.083015 198.147972 
z
" clip-path="url(#pdcbab83eee)" style="fill: #ff7f0e; stroke: #ffffff; stroke-width: 0.48"/>
    <path d="M 166.191106 194.526652 
L 166.191106 198.769292 
L 170.433747 198.769292 
L 170.433747 194.526652 
z
" clip-path="url(#pdcbab83eee)" style="fill: #2ca02c; stroke: #ffffff; stroke-width: 0.48"/>
    <path d="M 112.925294 199.647972 
L 114.925294 199.647972 
L 114.925294 197.647972 
L 116.925294 197.647972 
L 116.925294 195.647972 
L 114.925294 195.647972 
L 114.925294 193.647972 
L 112.925294 193.647972 
L 112.925294 195.647972 
L 110.925294 195.647972 
L 110.925294 197.647972 
L 112.925294 197.647972 
z
" clip-path="url(#pdcbab83eee)" style="fill: #d62728; stroke: #ffffff; stroke-width: 0.48"/>
    <path d="M 89.753235 135.192028 
C 90.548845 135.192028 91.311975 134.875929 91.874556 134.313348 
C 92.437136 133.750768 92.753235 132.987637 92.753235 132.192028 
C 92.753235 131.396419 92.437136 130.633288 91.874556 130.070708 
C 91.311975 129.508127 90.548845 129.192028 89.753235 129.192028 
C 88.957626 129.192028 88.194496 129.508127 87.631915 130.070708 
C 87.069334 130.633288 86.753235 131.396419 86.753235 132.192028 
C 86.753235 132.987637 87.069334 133.750768 87.631915 134.313348 
C 88.194496 134.875929 88.957626 135.192028 89.753235 135.192028 
z
" clip-path="url(#pdcbab83eee)" style="fill: #1f77b4; stroke: #ffffff; stroke-width: 0.48"/>
    <path d="M 92.281912 135.192028 
L 93.781912 133.692028 
L 95.281912 135.192028 
L 96.781912 133.692028 
L 95.281912 132.192028 
L 96.781912 130.692028 
L 95.281912 129.192028 
L 93.781912 130.692028 
L 92.281912 129.192028 
L 90.781912 130.692028 
L 92.281912 132.192028 
L 90.781912 133.692028 
z
" clip-path="url(#pdcbab83eee)" style="fill: #ff7f0e; stroke: #ffffff; stroke-width: 0.48"/>
    <path d="M 131.947356 130.070708 
L 131.947356 134.313348 
L 136.189997 134.313348 
L 136.189997 130.070708 
z
" clip-path="url(#pdcbab83eee)" style="fill: #2ca02c; stroke: #ffffff; stroke-width: 0.48"/>
    <path d="M 60.5525 135.192028 
L 62.5525 135.192028 
L 62.5525 133.192028 
L 64.5525 133.192028 
L 64.5525 131.192028 
L 62.5525 131.192028 
L 62.5525 129.192028 
L 60.5525 129.192028 
L 60.5525 131.192028 
L 58.5525 131.192028 
L 58.5525 133.192028 
L 60.5525 133.192028 
z
" clip-path="url(#pdcbab83eee)" style="fill: #d62728; stroke: #ffffff; stroke-width: 0.48"/>
    <path d="M 136.083015 264.103916 
C 136.878624 264.103916 137.641754 263.787817 138.204335 263.225236 
C 138.766916 262.662656 139.083015 261.899525 139.083015 261.103916 
C 139.083015 260.308307 138.766916 259.545176 138.204335 258.982596 
C 137.641754 258.420015 136.878624 258.103916 136.083015 258.103916 
C 135.287405 258.103916 134.524275 258.420015 133.961694 258.982596 
C 133.399114 259.545176 133.083015 260.308307 133.083015 261.103916 
C 133.083015 261.899525 133.399114 262.662656 133.961694 263.225236 
C 134.524275 263.787817 135.287405 264.103916 136.083015 264.103916 
z
" clip-path="url(#pdcbab83eee)" style="fill: #1f77b4; stroke: #ffffff; stroke-width: 0.48"/>
    <path d="M 138.611691 264.103916 
L 140.111691 262.603916 
L 141.611691 264.103916 
L 143.111691 262.603916 
L 141.611691 261.103916 
L 143.111691 259.603916 
L 141.611691 258.103916 
L 140.111691 259.603916 
L 138.611691 258.103916 
L 137.111691 259.603916 
L 138.611691 261.103916 
L 137.111691 262.603916 
z
" clip-path="url(#pdcbab83eee)" style="fill: #ff7f0e; stroke: #ffffff; stroke-width: 0.48"/>
    <path d="M 196.40618 258.982596 
L 196.40618 263.225236 
L 200.64882 263.225236 
L 200.64882 258.982596 
z
" clip-path="url(#pdcbab83eee)" style="fill: #2ca02c; stroke: #ffffff; stroke-width: 0.48"/>
    <path d="M 92.781912 264.103916 
L 94.781912 264.103916 
L 94.781912 262.103916 
L 96.781912 262.103916 
L 96.781912 260.103916 
L 94.781912 260.103916 
L 94.781912 258.103916 
L 92.781912 258.103916 
L 92.781912 260.103916 
L 90.781912 260.103916 
L 90.781912 262.103916 
L 92.781912 262.103916 
z
" clip-path="url(#pdcbab83eee)" style="fill: #d62728; stroke: #ffffff; stroke-width: 0.48"/>
    <path d="M 99.824926 156.677343 
C 100.620536 156.677343 101.383666 156.361244 101.946247 155.798663 
C 102.508828 155.236082 102.824926 154.472952 102.824926 153.677343 
C 102.824926 152.881733 102.508828 152.118603 101.946247 151.556022 
C 101.383666 150.993442 100.620536 150.677343 99.824926 150.677343 
C 99.029317 150.677343 98.266187 150.993442 97.703606 151.556022 
C 97.141025 152.118603 96.824926 152.881733 96.824926 153.677343 
C 96.824926 154.472952 97.141025 155.236082 97.703606 155.798663 
C 98.266187 156.361244 99.029317 156.677343 99.824926 156.677343 
z
" clip-path="url(#pdcbab83eee)" style="fill: #1f77b4; stroke: #ffffff; stroke-width: 0.48"/>
    <path d="M 106.382279 156.677343 
L 107.882279 155.177343 
L 109.382279 156.677343 
L 110.882279 155.177343 
L 109.382279 153.677343 
L 110.882279 152.177343 
L 109.382279 150.677343 
L 107.882279 152.177343 
L 106.382279 150.677343 
L 104.882279 152.177343 
L 106.382279 153.677343 
L 104.882279 155.177343 
z
" clip-path="url(#pdcbab83eee)" style="fill: #ff7f0e; stroke: #ffffff; stroke-width: 0.48"/>
    <path d="M 186.334488 151.556022 
L 186.334488 155.798663 
L 190.577129 155.798663 
L 190.577129 151.556022 
z
" clip-path="url(#pdcbab83eee)" style="fill: #2ca02c; stroke: #ffffff; stroke-width: 0.48"/>
    <path d="M 82.710221 156.677343 
L 84.710221 156.677343 
L 84.710221 154.677343 
L 86.710221 154.677343 
L 86.710221 152.677343 
L 84.710221 152.677343 
L 84.710221 150.677343 
L 82.710221 150.677343 
L 82.710221 152.677343 
L 80.710221 152.677343 
L 80.710221 154.677343 
L 82.710221 154.677343 
z
" clip-path="url(#pdcbab83eee)" style="fill: #d62728; stroke: #ffffff; stroke-width: 0.48"/>
    <path d="M 107.882279 63.574312 
C 108.677889 63.574312 109.441019 63.258213 110.0036 62.695633 
C 110.56618 62.133052 110.882279 61.369922 110.882279 60.574312 
C 110.882279 59.778703 110.56618 59.015573 110.0036 58.452992 
C 109.441019 57.890411 108.677889 57.574312 107.882279 57.574312 
C 107.08667 57.574312 106.32354 57.890411 105.760959 58.452992 
C 105.198378 59.015573 104.882279 59.778703 104.882279 60.574312 
C 104.882279 61.369922 105.198378 62.133052 105.760959 62.695633 
C 106.32354 63.258213 107.08667 63.574312 107.882279 63.574312 
z
" clip-path="url(#pdcbab83eee)" style="fill: #1f77b4; stroke: #ffffff; stroke-width: 0.48"/>
    <path d="M 128.54 63.574312 
L 130.04 62.074312 
L 131.54 63.574312 
L 133.04 62.074312 
L 131.54 60.574312 
L 133.04 59.074312 
L 131.54 57.574312 
L 130.04 59.074312 
L 128.54 57.574312 
L 127.04 59.074312 
L 128.54 60.574312 
L 127.04 62.074312 
z
" clip-path="url(#pdcbab83eee)" style="fill: #ff7f0e; stroke: #ffffff; stroke-width: 0.48"/>
    <path d="M 236.692944 58.452992 
L 236.692944 62.695633 
L 240.935585 62.695633 
L 240.935585 58.452992 
z
" clip-path="url(#pdcbab83eee)" style="fill: #2ca02c; stroke: #ffffff; stroke-width: 0.48"/>
    <path d="M 60.5525 63.574312 
L 62.5525 63.574312 
L 62.5525 61.574312 
L 64.5525 61.574312 
L 64.5525 59.574312 
L 62.5525 59.574312 
L 62.5525 57.574312 
L 60.5525 57.574312 
L 60.5525 59.574312 
L 58.5525 59.574312 
L 58.5525 61.574312 
L 60.5525 61.574312 
z
" clip-path="url(#pdcbab83eee)" style="fill: #d62728; stroke: #ffffff; stroke-width: 0.48"/>
   </g>
   <g id="PathCollection_2"/>
   <g id="PathCollection_3"/>
   <g id="PathCollection_4"/>
   <g id="PathCollection_5"/>
   <g id="matplotlib.axis_1">
    <g id="xtick_1">
     <g id="line2d_1">
      <defs>
       <path id="ma69fbca4eb" d="M 0 0 
L 0 3.5 
" style="stroke: #000000; stroke-width: 0.8"/>
      </defs>
      <g>
       <use xlink:href="#ma69fbca4eb" x="59.538162" y="318.04" style="stroke: #000000; stroke-width: 0.8"/>
      </g>
     </g>
     <g id="text_1">
      <!-- 0 -->
      <g transform="translate(56.356912 332.638438) scale(0.1 -0.1)">
       <defs>
        <path id="DejaVuSans-30" d="M 2034 4250 
Q 1547 4250 1301 3770 
Q 1056 3291 1056 2328 
Q 1056 1369 1301 889 
Q 1547 409 2034 409 
Q 2525 409 2770 889 
Q 3016 1369 3016 2328 
Q 3016 3291 2770 3770 
Q 2525 4250 2034 4250 
z
M 2034 4750 
Q 2819 4750 3233 4129 
Q 3647 3509 3647 2328 
Q 3647 1150 3233 529 
Q 2819 -91 2034 -91 
Q 1250 -91 836 529 
Q 422 1150 422 2328 
Q 422 3509 836 4129 
Q 1250 4750 2034 4750 
z
" transform="scale(0.015625)"/>
       </defs>
       <use xlink:href="#DejaVuSans-30"/>
      </g>
     </g>
    </g>
    <g id="xtick_2">
     <g id="line2d_2">
      <g>
       <use xlink:href="#ma69fbca4eb" x="99.824926" y="318.04" style="stroke: #000000; stroke-width: 0.8"/>
      </g>
     </g>
     <g id="text_2">
      <!-- 20 -->
      <g transform="translate(93.462426 332.638438) scale(0.1 -0.1)">
       <defs>
        <path id="DejaVuSans-32" d="M 1228 531 
L 3431 531 
L 3431 0 
L 469 0 
L 469 531 
Q 828 903 1448 1529 
Q 2069 2156 2228 2338 
Q 2531 2678 2651 2914 
Q 2772 3150 2772 3378 
Q 2772 3750 2511 3984 
Q 2250 4219 1831 4219 
Q 1534 4219 1204 4116 
Q 875 4013 500 3803 
L 500 4441 
Q 881 4594 1212 4672 
Q 1544 4750 1819 4750 
Q 2544 4750 2975 4387 
Q 3406 4025 3406 3419 
Q 3406 3131 3298 2873 
Q 3191 2616 2906 2266 
Q 2828 2175 2409 1742 
Q 1991 1309 1228 531 
z
" transform="scale(0.015625)"/>
       </defs>
       <use xlink:href="#DejaVuSans-32"/>
       <use xlink:href="#DejaVuSans-30" x="63.623047"/>
      </g>
     </g>
    </g>
    <g id="xtick_3">
     <g id="line2d_3">
      <g>
       <use xlink:href="#ma69fbca4eb" x="140.111691" y="318.04" style="stroke: #000000; stroke-width: 0.8"/>
      </g>
     </g>
     <g id="text_3">
      <!-- 40 -->
      <g transform="translate(133.749191 332.638438) scale(0.1 -0.1)">
       <defs>
        <path id="DejaVuSans-34" d="M 2419 4116 
L 825 1625 
L 2419 1625 
L 2419 4116 
z
M 2253 4666 
L 3047 4666 
L 3047 1625 
L 3713 1625 
L 3713 1100 
L 3047 1100 
L 3047 0 
L 2419 0 
L 2419 1100 
L 313 1100 
L 313 1709 
L 2253 4666 
z
" transform="scale(0.015625)"/>
       </defs>
       <use xlink:href="#DejaVuSans-34"/>
       <use xlink:href="#DejaVuSans-30" x="63.623047"/>
      </g>
     </g>
    </g>
    <g id="xtick_4">
     <g id="line2d_4">
      <g>
       <use xlink:href="#ma69fbca4eb" x="180.398456" y="318.04" style="stroke: #000000; stroke-width: 0.8"/>
      </g>
     </g>
     <g id="text_4">
      <!-- 60 -->
      <g transform="translate(174.035956 332.638438) scale(0.1 -0.1)">
       <defs>
        <path id="DejaVuSans-36" d="M 2113 2584 
Q 1688 2584 1439 2293 
Q 1191 2003 1191 1497 
Q 1191 994 1439 701 
Q 1688 409 2113 409 
Q 2538 409 2786 701 
Q 3034 994 3034 1497 
Q 3034 2003 2786 2293 
Q 2538 2584 2113 2584 
z
M 3366 4563 
L 3366 3988 
Q 3128 4100 2886 4159 
Q 2644 4219 2406 4219 
Q 1781 4219 1451 3797 
Q 1122 3375 1075 2522 
Q 1259 2794 1537 2939 
Q 1816 3084 2150 3084 
Q 2853 3084 3261 2657 
Q 3669 2231 3669 1497 
Q 3669 778 3244 343 
Q 2819 -91 2113 -91 
Q 1303 -91 875 529 
Q 447 1150 447 2328 
Q 447 3434 972 4092 
Q 1497 4750 2381 4750 
Q 2619 4750 2861 4703 
Q 3103 4656 3366 4563 
z
" transform="scale(0.015625)"/>
       </defs>
       <use xlink:href="#DejaVuSans-36"/>
       <use xlink:href="#DejaVuSans-30" x="63.623047"/>
      </g>
     </g>
    </g>
    <g id="xtick_5">
     <g id="line2d_5">
      <g>
       <use xlink:href="#ma69fbca4eb" x="220.685221" y="318.04" style="stroke: #000000; stroke-width: 0.8"/>
      </g>
     </g>
     <g id="text_5">
      <!-- 80 -->
      <g transform="translate(214.322721 332.638438) scale(0.1 -0.1)">
       <defs>
        <path id="DejaVuSans-38" d="M 2034 2216 
Q 1584 2216 1326 1975 
Q 1069 1734 1069 1313 
Q 1069 891 1326 650 
Q 1584 409 2034 409 
Q 2484 409 2743 651 
Q 3003 894 3003 1313 
Q 3003 1734 2745 1975 
Q 2488 2216 2034 2216 
z
M 1403 2484 
Q 997 2584 770 2862 
Q 544 3141 544 3541 
Q 544 4100 942 4425 
Q 1341 4750 2034 4750 
Q 2731 4750 3128 4425 
Q 3525 4100 3525 3541 
Q 3525 3141 3298 2862 
Q 3072 2584 2669 2484 
Q 3125 2378 3379 2068 
Q 3634 1759 3634 1313 
Q 3634 634 3220 271 
Q 2806 -91 2034 -91 
Q 1263 -91 848 271 
Q 434 634 434 1313 
Q 434 1759 690 2068 
Q 947 2378 1403 2484 
z
M 1172 3481 
Q 1172 3119 1398 2916 
Q 1625 2713 2034 2713 
Q 2441 2713 2670 2916 
Q 2900 3119 2900 3481 
Q 2900 3844 2670 4047 
Q 2441 4250 2034 4250 
Q 1625 4250 1398 4047 
Q 1172 3844 1172 3481 
z
" transform="scale(0.015625)"/>
       </defs>
       <use xlink:href="#DejaVuSans-38"/>
       <use xlink:href="#DejaVuSans-30" x="63.623047"/>
      </g>
     </g>
    </g>
    <g id="xtick_6">
     <g id="line2d_6">
      <g>
       <use xlink:href="#ma69fbca4eb" x="260.971985" y="318.04" style="stroke: #000000; stroke-width: 0.8"/>
      </g>
     </g>
     <g id="text_6">
      <!-- 100 -->
      <g transform="translate(251.428235 332.638438) scale(0.1 -0.1)">
       <defs>
        <path id="DejaVuSans-31" d="M 794 531 
L 1825 531 
L 1825 4091 
L 703 3866 
L 703 4441 
L 1819 4666 
L 2450 4666 
L 2450 531 
L 3481 531 
L 3481 0 
L 794 0 
L 794 531 
z
" transform="scale(0.015625)"/>
       </defs>
       <use xlink:href="#DejaVuSans-31"/>
       <use xlink:href="#DejaVuSans-30" x="63.623047"/>
       <use xlink:href="#DejaVuSans-30" x="127.246094"/>
      </g>
     </g>
    </g>
    <g id="xtick_7">
     <g id="line2d_7">
      <g>
       <use xlink:href="#ma69fbca4eb" x="301.25875" y="318.04" style="stroke: #000000; stroke-width: 0.8"/>
      </g>
     </g>
     <g id="text_7">
      <!-- 120 -->
      <g transform="translate(291.715 332.638438) scale(0.1 -0.1)">
       <use xlink:href="#DejaVuSans-31"/>
       <use xlink:href="#DejaVuSans-32" x="63.623047"/>
       <use xlink:href="#DejaVuSans-30" x="127.246094"/>
      </g>
     </g>
    </g>
    <g id="xtick_8">
     <g id="line2d_8">
      <g>
       <use xlink:href="#ma69fbca4eb" x="341.545515" y="318.04" style="stroke: #000000; stroke-width: 0.8"/>
      </g>
     </g>
     <g id="text_8">
      <!-- 140 -->
      <g transform="translate(332.001765 332.638438) scale(0.1 -0.1)">
       <use xlink:href="#DejaVuSans-31"/>
       <use xlink:href="#DejaVuSans-34" x="63.623047"/>
       <use xlink:href="#DejaVuSans-30" x="127.246094"/>
      </g>
     </g>
    </g>
    <g id="text_9">
     <!-- Length -->
     <g transform="translate(181.280625 346.316563) scale(0.1 -0.1)">
      <defs>
       <path id="DejaVuSans-4c" d="M 628 4666 
L 1259 4666 
L 1259 531 
L 3531 531 
L 3531 0 
L 628 0 
L 628 4666 
z
" transform="scale(0.015625)"/>
       <path id="DejaVuSans-65" d="M 3597 1894 
L 3597 1613 
L 953 1613 
Q 991 1019 1311 708 
Q 1631 397 2203 397 
Q 2534 397 2845 478 
Q 3156 559 3463 722 
L 3463 178 
Q 3153 47 2828 -22 
Q 2503 -91 2169 -91 
Q 1331 -91 842 396 
Q 353 884 353 1716 
Q 353 2575 817 3079 
Q 1281 3584 2069 3584 
Q 2775 3584 3186 3129 
Q 3597 2675 3597 1894 
z
M 3022 2063 
Q 3016 2534 2758 2815 
Q 2500 3097 2075 3097 
Q 1594 3097 1305 2825 
Q 1016 2553 972 2059 
L 3022 2063 
z
" transform="scale(0.015625)"/>
       <path id="DejaVuSans-6e" d="M 3513 2113 
L 3513 0 
L 2938 0 
L 2938 2094 
Q 2938 2591 2744 2837 
Q 2550 3084 2163 3084 
Q 1697 3084 1428 2787 
Q 1159 2491 1159 1978 
L 1159 0 
L 581 0 
L 581 3500 
L 1159 3500 
L 1159 2956 
Q 1366 3272 1645 3428 
Q 1925 3584 2291 3584 
Q 2894 3584 3203 3211 
Q 3513 2838 3513 2113 
z
" transform="scale(0.015625)"/>
       <path id="DejaVuSans-67" d="M 2906 1791 
Q 2906 2416 2648 2759 
Q 2391 3103 1925 3103 
Q 1463 3103 1205 2759 
Q 947 2416 947 1791 
Q 947 1169 1205 825 
Q 1463 481 1925 481 
Q 2391 481 2648 825 
Q 2906 1169 2906 1791 
z
M 3481 434 
Q 3481 -459 3084 -895 
Q 2688 -1331 1869 -1331 
Q 1566 -1331 1297 -1286 
Q 1028 -1241 775 -1147 
L 775 -588 
Q 1028 -725 1275 -790 
Q 1522 -856 1778 -856 
Q 2344 -856 2625 -561 
Q 2906 -266 2906 331 
L 2906 616 
Q 2728 306 2450 153 
Q 2172 0 1784 0 
Q 1141 0 747 490 
Q 353 981 353 1791 
Q 353 2603 747 3093 
Q 1141 3584 1784 3584 
Q 2172 3584 2450 3431 
Q 2728 3278 2906 2969 
L 2906 3500 
L 3481 3500 
L 3481 434 
z
" transform="scale(0.015625)"/>
       <path id="DejaVuSans-74" d="M 1172 4494 
L 1172 3500 
L 2356 3500 
L 2356 3053 
L 1172 3053 
L 1172 1153 
Q 1172 725 1289 603 
Q 1406 481 1766 481 
L 2356 481 
L 2356 0 
L 1766 0 
Q 1100 0 847 248 
Q 594 497 594 1153 
L 594 3053 
L 172 3053 
L 172 3500 
L 594 3500 
L 594 4494 
L 1172 4494 
z
" transform="scale(0.015625)"/>
       <path id="DejaVuSans-68" d="M 3513 2113 
L 3513 0 
L 2938 0 
L 2938 2094 
Q 2938 2591 2744 2837 
Q 2550 3084 2163 3084 
Q 1697 3084 1428 2787 
Q 1159 2491 1159 1978 
L 1159 0 
L 581 0 
L 581 4863 
L 1159 4863 
L 1159 2956 
Q 1366 3272 1645 3428 
Q 1925 3584 2291 3584 
Q 2894 3584 3203 3211 
Q 3513 2838 3513 2113 
z
" transform="scale(0.015625)"/>
      </defs>
      <use xlink:href="#DejaVuSans-4c"/>
      <use xlink:href="#DejaVuSans-65" x="53.962891"/>
      <use xlink:href="#DejaVuSans-6e" x="115.486328"/>
      <use xlink:href="#DejaVuSans-67" x="178.865234"/>
      <use xlink:href="#DejaVuSans-74" x="242.341797"/>
      <use xlink:href="#DejaVuSans-68" x="281.550781"/>
     </g>
    </g>
   </g>
   <g id="matplotlib.axis_2">
    <g id="ytick_1">
     <g id="line2d_9">
      <defs>
       <path id="ma496c4b818" d="M 0 0 
L -3.5 0 
" style="stroke: #000000; stroke-width: 0.8"/>
      </defs>
      <g>
       <use xlink:href="#ma496c4b818" x="47.855" y="304.074545" style="stroke: #000000; stroke-width: 0.8"/>
      </g>
     </g>
     <g id="text_10">
      <!-- 1.5 -->
      <g transform="translate(24.951875 307.873764) scale(0.1 -0.1)">
       <defs>
        <path id="DejaVuSans-2e" d="M 684 794 
L 1344 794 
L 1344 0 
L 684 0 
L 684 794 
z
" transform="scale(0.015625)"/>
        <path id="DejaVuSans-35" d="M 691 4666 
L 3169 4666 
L 3169 4134 
L 1269 4134 
L 1269 2991 
Q 1406 3038 1543 3061 
Q 1681 3084 1819 3084 
Q 2600 3084 3056 2656 
Q 3513 2228 3513 1497 
Q 3513 744 3044 326 
Q 2575 -91 1722 -91 
Q 1428 -91 1123 -41 
Q 819 9 494 109 
L 494 744 
Q 775 591 1075 516 
Q 1375 441 1709 441 
Q 2250 441 2565 725 
Q 2881 1009 2881 1497 
Q 2881 1984 2565 2268 
Q 2250 2553 1709 2553 
Q 1456 2553 1204 2497 
Q 953 2441 691 2322 
L 691 4666 
z
" transform="scale(0.015625)"/>
       </defs>
       <use xlink:href="#DejaVuSans-31"/>
       <use xlink:href="#DejaVuSans-2e" x="63.623047"/>
       <use xlink:href="#DejaVuSans-35" x="95.410156"/>
      </g>
     </g>
    </g>
    <g id="ytick_2">
     <g id="line2d_10">
      <g>
       <use xlink:href="#ma496c4b818" x="47.855" y="261.103916" style="stroke: #000000; stroke-width: 0.8"/>
      </g>
     </g>
     <g id="text_11">
      <!-- 2.0 -->
      <g transform="translate(24.951875 264.903135) scale(0.1 -0.1)">
       <use xlink:href="#DejaVuSans-32"/>
       <use xlink:href="#DejaVuSans-2e" x="63.623047"/>
       <use xlink:href="#DejaVuSans-30" x="95.410156"/>
      </g>
     </g>
    </g>
    <g id="ytick_3">
     <g id="line2d_11">
      <g>
       <use xlink:href="#ma496c4b818" x="47.855" y="218.133287" style="stroke: #000000; stroke-width: 0.8"/>
      </g>
     </g>
     <g id="text_12">
      <!-- 2.5 -->
      <g transform="translate(24.951875 221.932505) scale(0.1 -0.1)">
       <use xlink:href="#DejaVuSans-32"/>
       <use xlink:href="#DejaVuSans-2e" x="63.623047"/>
       <use xlink:href="#DejaVuSans-35" x="95.410156"/>
      </g>
     </g>
    </g>
    <g id="ytick_4">
     <g id="line2d_12">
      <g>
       <use xlink:href="#ma496c4b818" x="47.855" y="175.162657" style="stroke: #000000; stroke-width: 0.8"/>
      </g>
     </g>
     <g id="text_13">
      <!-- 3.0 -->
      <g transform="translate(24.951875 178.961876) scale(0.1 -0.1)">
       <defs>
        <path id="DejaVuSans-33" d="M 2597 2516 
Q 3050 2419 3304 2112 
Q 3559 1806 3559 1356 
Q 3559 666 3084 287 
Q 2609 -91 1734 -91 
Q 1441 -91 1130 -33 
Q 819 25 488 141 
L 488 750 
Q 750 597 1062 519 
Q 1375 441 1716 441 
Q 2309 441 2620 675 
Q 2931 909 2931 1356 
Q 2931 1769 2642 2001 
Q 2353 2234 1838 2234 
L 1294 2234 
L 1294 2753 
L 1863 2753 
Q 2328 2753 2575 2939 
Q 2822 3125 2822 3475 
Q 2822 3834 2567 4026 
Q 2313 4219 1838 4219 
Q 1578 4219 1281 4162 
Q 984 4106 628 3988 
L 628 4550 
Q 988 4650 1302 4700 
Q 1616 4750 1894 4750 
Q 2613 4750 3031 4423 
Q 3450 4097 3450 3541 
Q 3450 3153 3228 2886 
Q 3006 2619 2597 2516 
z
" transform="scale(0.015625)"/>
       </defs>
       <use xlink:href="#DejaVuSans-33"/>
       <use xlink:href="#DejaVuSans-2e" x="63.623047"/>
       <use xlink:href="#DejaVuSans-30" x="95.410156"/>
      </g>
     </g>
    </g>
    <g id="ytick_5">
     <g id="line2d_13">
      <g>
       <use xlink:href="#ma496c4b818" x="47.855" y="132.192028" style="stroke: #000000; stroke-width: 0.8"/>
      </g>
     </g>
     <g id="text_14">
      <!-- 3.5 -->
      <g transform="translate(24.951875 135.991247) scale(0.1 -0.1)">
       <use xlink:href="#DejaVuSans-33"/>
       <use xlink:href="#DejaVuSans-2e" x="63.623047"/>
       <use xlink:href="#DejaVuSans-35" x="95.410156"/>
      </g>
     </g>
    </g>
    <g id="ytick_6">
     <g id="line2d_14">
      <g>
       <use xlink:href="#ma496c4b818" x="47.855" y="89.221399" style="stroke: #000000; stroke-width: 0.8"/>
      </g>
     </g>
     <g id="text_15">
      <!-- 4.0 -->
      <g transform="translate(24.951875 93.020617) scale(0.1 -0.1)">
       <use xlink:href="#DejaVuSans-34"/>
       <use xlink:href="#DejaVuSans-2e" x="63.623047"/>
       <use xlink:href="#DejaVuSans-30" x="95.410156"/>
      </g>
     </g>
    </g>
    <g id="ytick_7">
     <g id="line2d_15">
      <g>
       <use xlink:href="#ma496c4b818" x="47.855" y="46.250769" style="stroke: #000000; stroke-width: 0.8"/>
      </g>
     </g>
     <g id="text_16">
      <!-- 4.5 -->
      <g transform="translate(24.951875 50.049988) scale(0.1 -0.1)">
       <use xlink:href="#DejaVuSans-34"/>
       <use xlink:href="#DejaVuSans-2e" x="63.623047"/>
       <use xlink:href="#DejaVuSans-35" x="95.410156"/>
      </g>
     </g>
    </g>
    <g id="text_17">
     <!-- Rating -->
     <g transform="translate(18.872187 180.537969) rotate(-90) scale(0.1 -0.1)">
      <defs>
       <path id="DejaVuSans-52" d="M 2841 2188 
Q 3044 2119 3236 1894 
Q 3428 1669 3622 1275 
L 4263 0 
L 3584 0 
L 2988 1197 
Q 2756 1666 2539 1819 
Q 2322 1972 1947 1972 
L 1259 1972 
L 1259 0 
L 628 0 
L 628 4666 
L 2053 4666 
Q 2853 4666 3247 4331 
Q 3641 3997 3641 3322 
Q 3641 2881 3436 2590 
Q 3231 2300 2841 2188 
z
M 1259 4147 
L 1259 2491 
L 2053 2491 
Q 2509 2491 2742 2702 
Q 2975 2913 2975 3322 
Q 2975 3731 2742 3939 
Q 2509 4147 2053 4147 
L 1259 4147 
z
" transform="scale(0.015625)"/>
       <path id="DejaVuSans-61" d="M 2194 1759 
Q 1497 1759 1228 1600 
Q 959 1441 959 1056 
Q 959 750 1161 570 
Q 1363 391 1709 391 
Q 2188 391 2477 730 
Q 2766 1069 2766 1631 
L 2766 1759 
L 2194 1759 
z
M 3341 1997 
L 3341 0 
L 2766 0 
L 2766 531 
Q 2569 213 2275 61 
Q 1981 -91 1556 -91 
Q 1019 -91 701 211 
Q 384 513 384 1019 
Q 384 1609 779 1909 
Q 1175 2209 1959 2209 
L 2766 2209 
L 2766 2266 
Q 2766 2663 2505 2880 
Q 2244 3097 1772 3097 
Q 1472 3097 1187 3025 
Q 903 2953 641 2809 
L 641 3341 
Q 956 3463 1253 3523 
Q 1550 3584 1831 3584 
Q 2591 3584 2966 3190 
Q 3341 2797 3341 1997 
z
" transform="scale(0.015625)"/>
       <path id="DejaVuSans-69" d="M 603 3500 
L 1178 3500 
L 1178 0 
L 603 0 
L 603 3500 
z
M 603 4863 
L 1178 4863 
L 1178 4134 
L 603 4134 
L 603 4863 
z
" transform="scale(0.015625)"/>
      </defs>
      <use xlink:href="#DejaVuSans-52"/>
      <use xlink:href="#DejaVuSans-61" x="67.232422"/>
      <use xlink:href="#DejaVuSans-74" x="128.511719"/>
      <use xlink:href="#DejaVuSans-69" x="167.720703"/>
      <use xlink:href="#DejaVuSans-6e" x="195.503906"/>
      <use xlink:href="#DejaVuSans-67" x="258.882812"/>
     </g>
    </g>
   </g>
   <g id="patch_3">
    <path d="M 47.855 318.04 
L 47.855 10.8 
" style="fill: none; stroke: #000000; stroke-width: 0.8; stroke-linejoin: miter; stroke-linecap: square"/>
   </g>
   <g id="patch_4">
    <path d="M 349.2 318.04 
L 349.2 10.8 
" style="fill: none; stroke: #000000; stroke-width: 0.8; stroke-linejoin: miter; stroke-linecap: square"/>
   </g>
   <g id="patch_5">
    <path d="M 47.855 318.04 
L 349.2 318.04 
" style="fill: none; stroke: #000000; stroke-width: 0.8; stroke-linejoin: miter; stroke-linecap: square"/>
   </g>
   <g id="patch_6">
    <path d="M 47.855 10.8 
L 349.2 10.8 
" style="fill: none; stroke: #000000; stroke-width: 0.8; stroke-linejoin: miter; stroke-linecap: square"/>
   </g>
   <g id="legend_1">
    <g id="patch_7">
     <path d="M 272.714062 92.190625 
L 342.2 92.190625 
Q 344.2 92.190625 344.2 90.190625 
L 344.2 17.8 
Q 344.2 15.8 342.2 15.8 
L 272.714062 15.8 
Q 270.714062 15.8 270.714062 17.8 
L 270.714062 90.190625 
Q 270.714062 92.190625 272.714062 92.190625 
z
" style="fill: #ffffff; opacity: 0.8; stroke: #cccccc; stroke-linejoin: miter"/>
    </g>
    <g id="text_18">
     <!-- agg -->
     <g transform="translate(298.044531 27.398438) scale(0.1 -0.1)">
      <use xlink:href="#DejaVuSans-61"/>
      <use xlink:href="#DejaVuSans-67" x="61.279297"/>
      <use xlink:href="#DejaVuSans-67" x="124.755859"/>
     </g>
    </g>
    <g id="PathCollection_6">
     <defs>
      <path id="mb4d96704ea" d="M 0 3 
C 0.795609 3 1.55874 2.683901 2.12132 2.12132 
C 2.683901 1.55874 3 0.795609 3 0 
C 3 -0.795609 2.683901 -1.55874 2.12132 -2.12132 
C 1.55874 -2.683901 0.795609 -3 0 -3 
C -0.795609 -3 -1.55874 -2.683901 -2.12132 -2.12132 
C -2.683901 -1.55874 -3 -0.795609 -3 0 
C -3 0.795609 -2.683901 1.55874 -2.12132 2.12132 
C -1.55874 2.683901 -0.795609 3 0 3 
z
" style="stroke: #1f77b4"/>
     </defs>
     <g>
      <use xlink:href="#mb4d96704ea" x="284.714062" y="39.451563" style="fill: #1f77b4; stroke: #1f77b4"/>
     </g>
    </g>
    <g id="text_19">
     <!-- median -->
     <g transform="translate(302.714062 42.076563) scale(0.1 -0.1)">
      <defs>
       <path id="DejaVuSans-6d" d="M 3328 2828 
Q 3544 3216 3844 3400 
Q 4144 3584 4550 3584 
Q 5097 3584 5394 3201 
Q 5691 2819 5691 2113 
L 5691 0 
L 5113 0 
L 5113 2094 
Q 5113 2597 4934 2840 
Q 4756 3084 4391 3084 
Q 3944 3084 3684 2787 
Q 3425 2491 3425 1978 
L 3425 0 
L 2847 0 
L 2847 2094 
Q 2847 2600 2669 2842 
Q 2491 3084 2119 3084 
Q 1678 3084 1418 2786 
Q 1159 2488 1159 1978 
L 1159 0 
L 581 0 
L 581 3500 
L 1159 3500 
L 1159 2956 
Q 1356 3278 1631 3431 
Q 1906 3584 2284 3584 
Q 2666 3584 2933 3390 
Q 3200 3197 3328 2828 
z
" transform="scale(0.015625)"/>
       <path id="DejaVuSans-64" d="M 2906 2969 
L 2906 4863 
L 3481 4863 
L 3481 0 
L 2906 0 
L 2906 525 
Q 2725 213 2448 61 
Q 2172 -91 1784 -91 
Q 1150 -91 751 415 
Q 353 922 353 1747 
Q 353 2572 751 3078 
Q 1150 3584 1784 3584 
Q 2172 3584 2448 3432 
Q 2725 3281 2906 2969 
z
M 947 1747 
Q 947 1113 1208 752 
Q 1469 391 1925 391 
Q 2381 391 2643 752 
Q 2906 1113 2906 1747 
Q 2906 2381 2643 2742 
Q 2381 3103 1925 3103 
Q 1469 3103 1208 2742 
Q 947 2381 947 1747 
z
" transform="scale(0.015625)"/>
      </defs>
      <use xlink:href="#DejaVuSans-6d"/>
      <use xlink:href="#DejaVuSans-65" x="97.412109"/>
      <use xlink:href="#DejaVuSans-64" x="158.935547"/>
      <use xlink:href="#DejaVuSans-69" x="222.412109"/>
      <use xlink:href="#DejaVuSans-61" x="250.195312"/>
      <use xlink:href="#DejaVuSans-6e" x="311.474609"/>
     </g>
    </g>
    <g id="PathCollection_7">
     <defs>
      <path id="mc0acf25621" d="M -1.5 3 
L 0 1.5 
L 1.5 3 
L 3 1.5 
L 1.5 0 
L 3 -1.5 
L 1.5 -3 
L 0 -1.5 
L -1.5 -3 
L -3 -1.5 
L -1.5 0 
L -3 1.5 
z
" style="stroke: #ff7f0e"/>
     </defs>
     <g>
      <use xlink:href="#mc0acf25621" x="284.714062" y="54.129688" style="fill: #ff7f0e; stroke: #ff7f0e"/>
     </g>
    </g>
    <g id="text_20">
     <!-- mean -->
     <g transform="translate(302.714062 56.754688) scale(0.1 -0.1)">
      <use xlink:href="#DejaVuSans-6d"/>
      <use xlink:href="#DejaVuSans-65" x="97.412109"/>
      <use xlink:href="#DejaVuSans-61" x="158.935547"/>
      <use xlink:href="#DejaVuSans-6e" x="220.214844"/>
     </g>
    </g>
    <g id="PathCollection_8">
     <defs>
      <path id="mf30f878662" d="M -2.12132 -2.12132 
L -2.12132 2.12132 
L 2.12132 2.12132 
L 2.12132 -2.12132 
z
" style="stroke: #2ca02c"/>
     </defs>
     <g>
      <use xlink:href="#mf30f878662" x="284.714062" y="68.807813" style="fill: #2ca02c; stroke: #2ca02c"/>
     </g>
    </g>
    <g id="text_21">
     <!-- max -->
     <g transform="translate(302.714062 71.432813) scale(0.1 -0.1)">
      <defs>
       <path id="DejaVuSans-78" d="M 3513 3500 
L 2247 1797 
L 3578 0 
L 2900 0 
L 1881 1375 
L 863 0 
L 184 0 
L 1544 1831 
L 300 3500 
L 978 3500 
L 1906 2253 
L 2834 3500 
L 3513 3500 
z
" transform="scale(0.015625)"/>
      </defs>
      <use xlink:href="#DejaVuSans-6d"/>
      <use xlink:href="#DejaVuSans-61" x="97.412109"/>
      <use xlink:href="#DejaVuSans-78" x="158.691406"/>
     </g>
    </g>
    <g id="PathCollection_9">
     <defs>
      <path id="mcfe08009f8" d="M -1 3 
L 1 3 
L 1 1 
L 3 1 
L 3 -1 
L 1 -1 
L 1 -3 
L -1 -3 
L -1 -1 
L -3 -1 
L -3 1 
L -1 1 
z
" style="stroke: #d62728"/>
     </defs>
     <g>
      <use xlink:href="#mcfe08009f8" x="284.714062" y="83.485938" style="fill: #d62728; stroke: #d62728"/>
     </g>
    </g>
    <g id="text_22">
     <!-- min -->
     <g transform="translate(302.714062 86.110938) scale(0.1 -0.1)">
      <use xlink:href="#DejaVuSans-6d"/>
      <use xlink:href="#DejaVuSans-69" x="97.412109"/>
      <use xlink:href="#DejaVuSans-6e" x="125.195312"/>
     </g>
    </g>
   </g>
  </g>
 </g>
 <defs>
  <clipPath id="pdcbab83eee">
   <rect x="47.855" y="10.8" width="301.345" height="307.24"/>
  </clipPath>
 </defs>
</svg>
